%TF.GenerationSoftware,KiCad,Pcbnew,7.0.6-1.fc38*%
%TF.CreationDate,2023-08-19T18:40:52-03:00*%
%TF.ProjectId,CeilingFanControl,4365696c-696e-4674-9661-6e436f6e7472,rev?*%
%TF.SameCoordinates,Original*%
%TF.FileFunction,Copper,L2,Bot*%
%TF.FilePolarity,Positive*%
%FSLAX46Y46*%
G04 Gerber Fmt 4.6, Leading zero omitted, Abs format (unit mm)*
G04 Created by KiCad (PCBNEW 7.0.6-1.fc38) date 2023-08-19 18:40:52*
%MOMM*%
%LPD*%
G01*
G04 APERTURE LIST*
G04 Aperture macros list*
%AMRoundRect*
0 Rectangle with rounded corners*
0 $1 Rounding radius*
0 $2 $3 $4 $5 $6 $7 $8 $9 X,Y pos of 4 corners*
0 Add a 4 corners polygon primitive as box body*
4,1,4,$2,$3,$4,$5,$6,$7,$8,$9,$2,$3,0*
0 Add four circle primitives for the rounded corners*
1,1,$1+$1,$2,$3*
1,1,$1+$1,$4,$5*
1,1,$1+$1,$6,$7*
1,1,$1+$1,$8,$9*
0 Add four rect primitives between the rounded corners*
20,1,$1+$1,$2,$3,$4,$5,0*
20,1,$1+$1,$4,$5,$6,$7,0*
20,1,$1+$1,$6,$7,$8,$9,0*
20,1,$1+$1,$8,$9,$2,$3,0*%
G04 Aperture macros list end*
%TA.AperFunction,ComponentPad*%
%ADD10R,1.700000X1.700000*%
%TD*%
%TA.AperFunction,ComponentPad*%
%ADD11O,1.700000X1.700000*%
%TD*%
%TA.AperFunction,ComponentPad*%
%ADD12C,2.100000*%
%TD*%
%TA.AperFunction,ComponentPad*%
%ADD13O,1.905000X2.000000*%
%TD*%
%TA.AperFunction,ComponentPad*%
%ADD14R,1.905000X2.000000*%
%TD*%
%TA.AperFunction,SMDPad,CuDef*%
%ADD15R,1.350000X2.850000*%
%TD*%
%TA.AperFunction,SMDPad,CuDef*%
%ADD16RoundRect,0.250000X-0.250000X-0.475000X0.250000X-0.475000X0.250000X0.475000X-0.250000X0.475000X0*%
%TD*%
%TA.AperFunction,SMDPad,CuDef*%
%ADD17R,1.650000X0.650000*%
%TD*%
%TA.AperFunction,SMDPad,CuDef*%
%ADD18R,1.780000X2.000000*%
%TD*%
%TA.AperFunction,SMDPad,CuDef*%
%ADD19RoundRect,0.250000X0.450000X-0.262500X0.450000X0.262500X-0.450000X0.262500X-0.450000X-0.262500X0*%
%TD*%
%TA.AperFunction,SMDPad,CuDef*%
%ADD20RoundRect,0.250000X-0.450000X0.262500X-0.450000X-0.262500X0.450000X-0.262500X0.450000X0.262500X0*%
%TD*%
%TA.AperFunction,SMDPad,CuDef*%
%ADD21R,1.500000X0.650000*%
%TD*%
%TA.AperFunction,SMDPad,CuDef*%
%ADD22RoundRect,0.249999X0.450001X1.425001X-0.450001X1.425001X-0.450001X-1.425001X0.450001X-1.425001X0*%
%TD*%
%TA.AperFunction,SMDPad,CuDef*%
%ADD23RoundRect,0.250000X0.262500X0.450000X-0.262500X0.450000X-0.262500X-0.450000X0.262500X-0.450000X0*%
%TD*%
%TA.AperFunction,SMDPad,CuDef*%
%ADD24RoundRect,0.225000X0.375000X-0.225000X0.375000X0.225000X-0.375000X0.225000X-0.375000X-0.225000X0*%
%TD*%
%TA.AperFunction,SMDPad,CuDef*%
%ADD25R,0.500000X1.050000*%
%TD*%
%TA.AperFunction,Conductor*%
%ADD26C,0.400000*%
%TD*%
%TA.AperFunction,Conductor*%
%ADD27C,2.000000*%
%TD*%
%TA.AperFunction,Conductor*%
%ADD28C,0.800000*%
%TD*%
G04 APERTURE END LIST*
D10*
%TO.P,J2,1,Pin_1*%
%TO.N,/VPP*%
X21870000Y-19330000D03*
D11*
%TO.P,J2,2,Pin_2*%
%TO.N,+3V3*%
X24410000Y-19330000D03*
%TO.P,J2,3,Pin_3*%
%TO.N,GND*%
X26950000Y-19330000D03*
%TO.P,J2,4,Pin_4*%
%TO.N,/ICSPDAT*%
X29490000Y-19330000D03*
%TO.P,J2,5,Pin_5*%
%TO.N,/ICSPCLK*%
X32030000Y-19330000D03*
%TD*%
D12*
%TO.P,J1,1,Pin_1*%
%TO.N,NEUT*%
X18900000Y-67150000D03*
%TO.P,J1,2,Pin_2*%
%TO.N,LINE*%
X23900000Y-67150000D03*
%TD*%
D10*
%TO.P,J3,1,Pin_1*%
%TO.N,+5V*%
X19450000Y-34450000D03*
D11*
%TO.P,J3,2,Pin_2*%
%TO.N,/SCL*%
X19450000Y-31910000D03*
%TO.P,J3,3,Pin_3*%
%TO.N,/SDA*%
X19450000Y-29370000D03*
%TO.P,J3,4,Pin_4*%
%TO.N,+3V3*%
X19450000Y-26830000D03*
%TO.P,J3,5,Pin_5*%
%TO.N,GND*%
X19450000Y-24290000D03*
%TD*%
D13*
%TO.P,Q3,3,G*%
%TO.N,Net-(Q3-G)*%
X41870000Y-60010000D03*
%TO.P,Q3,2,A2*%
%TO.N,LINE*%
X39330000Y-60010000D03*
D14*
%TO.P,Q3,1,A1*%
%TO.N,/FAN_DIR-2_POWER*%
X36790000Y-60010000D03*
%TD*%
D10*
%TO.P,J5,1,Pin_1*%
%TO.N,+5V*%
X34100000Y-34450000D03*
D11*
%TO.P,J5,2,Pin_2*%
%TO.N,/SCL*%
X34100000Y-31910000D03*
%TO.P,J5,3,Pin_3*%
%TO.N,/SDA*%
X34100000Y-29370000D03*
%TO.P,J5,4,Pin_4*%
%TO.N,+3V3*%
X34100000Y-26830000D03*
%TO.P,J5,5,Pin_5*%
%TO.N,GND*%
X34100000Y-24290000D03*
%TD*%
D12*
%TO.P,J4,3,Pin_3*%
%TO.N,/FAN_DIR-2_POWER*%
X41050000Y-67150000D03*
%TO.P,J4,2,Pin_2*%
%TO.N,NEUT*%
X36050000Y-67150000D03*
%TO.P,J4,1,Pin_1*%
%TO.N,/FAN_DIR-1_POWER*%
X31050000Y-67150000D03*
%TD*%
D13*
%TO.P,Q2,3,G*%
%TO.N,Net-(Q2-G)*%
X30500000Y-60070000D03*
%TO.P,Q2,2,A2*%
%TO.N,LINE*%
X27960000Y-60070000D03*
D14*
%TO.P,Q2,1,A1*%
%TO.N,/FAN_DIR-1_POWER*%
X25420000Y-60070000D03*
%TD*%
D15*
%TO.P,BR1,1,~_1*%
%TO.N,Net-(BR1-~_1)*%
X22660000Y-52260000D03*
%TO.P,BR1,2,~_2*%
%TO.N,Net-(BR1-~_2)*%
X17560000Y-52260000D03*
%TO.P,BR1,3,+*%
%TO.N,Net-(BR1-+)*%
X17560000Y-44060000D03*
%TO.P,BR1,4,-*%
%TO.N,Net-(BR1--)*%
X22660000Y-44060000D03*
%TD*%
D16*
%TO.P,C2,1*%
%TO.N,Net-(BR1-+)*%
X16350000Y-38500000D03*
%TO.P,C2,2*%
%TO.N,Net-(D1-A)*%
X18250000Y-38500000D03*
%TD*%
%TO.P,C1,1*%
%TO.N,Net-(BR1-~_2)*%
X17050000Y-55570000D03*
%TO.P,C1,2*%
%TO.N,Net-(BR1-~_1)*%
X18950000Y-55570000D03*
%TD*%
D17*
%TO.P,Q4,1,A*%
%TO.N,Net-(Q4-A)*%
X26220000Y-38690000D03*
%TO.P,Q4,2,K*%
%TO.N,Net-(Q1-C)*%
X26220000Y-37420000D03*
%TO.P,Q4,3,E*%
%TO.N,GND*%
X32620000Y-37420000D03*
%TO.P,Q4,4,C*%
%TO.N,/ZCD*%
X32620000Y-38690000D03*
%TD*%
D18*
%TO.P,U2,1*%
%TO.N,Net-(R8-Pad2)*%
X28930000Y-41900000D03*
%TO.P,U2,2*%
%TO.N,GND*%
X31470000Y-41900000D03*
%TO.P,U2,3,NC*%
%TO.N,unconnected-(U2-NC-Pad3)*%
X34010000Y-41900000D03*
%TO.P,U2,4*%
%TO.N,Net-(Q2-G)*%
X34010000Y-49520000D03*
%TO.P,U2,5,NC*%
%TO.N,unconnected-(U2-NC-Pad5)*%
X31470000Y-49520000D03*
%TO.P,U2,6*%
%TO.N,Net-(R10-Pad2)*%
X28930000Y-49520000D03*
%TD*%
D19*
%TO.P,R1,1*%
%TO.N,LINE*%
X19090000Y-59505000D03*
%TO.P,R1,2*%
%TO.N,Net-(BR1-~_1)*%
X19090000Y-57680000D03*
%TD*%
D20*
%TO.P,R4,1*%
%TO.N,Net-(Q4-A)*%
X26120000Y-41010000D03*
%TO.P,R4,2*%
%TO.N,Net-(BR1-+)*%
X26120000Y-42835000D03*
%TD*%
D21*
%TO.P,IC1,1,VDD*%
%TO.N,+3V3*%
X24010000Y-32470000D03*
%TO.P,IC1,2,RA5*%
%TO.N,unconnected-(IC1-RA5-Pad2)*%
X24010000Y-31200000D03*
%TO.P,IC1,3,RA4*%
%TO.N,unconnected-(IC1-RA4-Pad3)*%
X24010000Y-29930000D03*
%TO.P,IC1,4,VPP/~{MCLR}/RA3*%
%TO.N,/VPP*%
X24010000Y-28660000D03*
%TO.P,IC1,5,RC5*%
%TO.N,unconnected-(IC1-RC5-Pad5)*%
X24010000Y-27390000D03*
%TO.P,IC1,6,RC4*%
%TO.N,unconnected-(IC1-RC4-Pad6)*%
X24010000Y-26120000D03*
%TO.P,IC1,7,RC3*%
%TO.N,/FAN_DIR-2_SIG*%
X24010000Y-24850000D03*
%TO.P,IC1,8,RC2*%
%TO.N,/FAN_DIR-1_SIG*%
X29410000Y-24850000D03*
%TO.P,IC1,9,RC1*%
%TO.N,/SDA*%
X29410000Y-26120000D03*
%TO.P,IC1,10,RC0*%
%TO.N,/SCL*%
X29410000Y-27390000D03*
%TO.P,IC1,11,RA2*%
%TO.N,/ZCD*%
X29410000Y-28660000D03*
%TO.P,IC1,12,RA1/ICSPCLK*%
%TO.N,/ICSPCLK*%
X29410000Y-29930000D03*
%TO.P,IC1,13,RA0/ICSPDAT*%
%TO.N,/ICSPDAT*%
X29410000Y-31200000D03*
%TO.P,IC1,14,VSS*%
%TO.N,GND*%
X29410000Y-32470000D03*
%TD*%
D22*
%TO.P,R10,1*%
%TO.N,LINE*%
X31980000Y-53610000D03*
%TO.P,R10,2*%
%TO.N,Net-(R10-Pad2)*%
X25880000Y-53610000D03*
%TD*%
D20*
%TO.P,R5,1*%
%TO.N,+3V3*%
X35850000Y-37037500D03*
%TO.P,R5,2*%
%TO.N,/ZCD*%
X35850000Y-38862500D03*
%TD*%
D23*
%TO.P,R3,1*%
%TO.N,Net-(BR1--)*%
X18220000Y-40820000D03*
%TO.P,R3,2*%
%TO.N,Net-(BR1-+)*%
X16395000Y-40820000D03*
%TD*%
%TO.P,R7,1*%
%TO.N,+3V3*%
X38825000Y-29340000D03*
%TO.P,R7,2*%
%TO.N,/SDA*%
X37000000Y-29340000D03*
%TD*%
D20*
%TO.P,R9,1*%
%TO.N,/FAN_DIR-2_SIG*%
X42170000Y-36987500D03*
%TO.P,R9,2*%
%TO.N,Net-(R9-Pad2)*%
X42170000Y-38812500D03*
%TD*%
D24*
%TO.P,D1,1,K*%
%TO.N,Net-(BR1--)*%
X20420000Y-41510000D03*
%TO.P,D1,2,A*%
%TO.N,Net-(D1-A)*%
X20420000Y-38210000D03*
%TD*%
D22*
%TO.P,R11,1*%
%TO.N,LINE*%
X42130000Y-53670000D03*
%TO.P,R11,2*%
%TO.N,Net-(R11-Pad2)*%
X36030000Y-53670000D03*
%TD*%
D18*
%TO.P,U3,1*%
%TO.N,Net-(R9-Pad2)*%
X37730000Y-41960000D03*
%TO.P,U3,2*%
%TO.N,GND*%
X40270000Y-41960000D03*
%TO.P,U3,3,NC*%
%TO.N,unconnected-(U3-NC-Pad3)*%
X42810000Y-41960000D03*
%TO.P,U3,4*%
%TO.N,Net-(Q3-G)*%
X42810000Y-49580000D03*
%TO.P,U3,5,NC*%
%TO.N,unconnected-(U3-NC-Pad5)*%
X40270000Y-49580000D03*
%TO.P,U3,6*%
%TO.N,Net-(R11-Pad2)*%
X37730000Y-49580000D03*
%TD*%
D19*
%TO.P,R2,1*%
%TO.N,NEUT*%
X16730000Y-59465000D03*
%TO.P,R2,2*%
%TO.N,Net-(BR1-~_2)*%
X16730000Y-57640000D03*
%TD*%
D25*
%TO.P,Q1,1,B*%
%TO.N,Net-(BR1--)*%
X23940000Y-40550000D03*
%TO.P,Q1,2,E*%
%TO.N,Net-(D1-A)*%
X22640000Y-40550000D03*
%TO.P,Q1,3,C*%
%TO.N,Net-(Q1-C)*%
X23290000Y-38450000D03*
%TD*%
D23*
%TO.P,R6,1*%
%TO.N,+3V3*%
X38782500Y-31850000D03*
%TO.P,R6,2*%
%TO.N,/SCL*%
X36957500Y-31850000D03*
%TD*%
D20*
%TO.P,R8,1*%
%TO.N,/FAN_DIR-1_SIG*%
X38870000Y-36997500D03*
%TO.P,R8,2*%
%TO.N,Net-(R8-Pad2)*%
X38870000Y-38822500D03*
%TD*%
D26*
%TO.N,Net-(BR1-~_1)*%
X19680000Y-55570000D02*
X21290000Y-53960000D01*
X18950000Y-55570000D02*
X19680000Y-55570000D01*
X21290000Y-53630000D02*
X22660000Y-52260000D01*
X21290000Y-53960000D02*
X21290000Y-53630000D01*
%TO.N,Net-(BR1-~_2)*%
X17050000Y-55570000D02*
X17050000Y-54660000D01*
X17050000Y-54660000D02*
X17560000Y-54150000D01*
X17560000Y-54150000D02*
X17560000Y-52260000D01*
%TO.N,Net-(BR1-~_1)*%
X18950000Y-55570000D02*
X18950000Y-57080000D01*
X18950000Y-57080000D02*
X19090000Y-57220000D01*
%TO.N,Net-(BR1-~_2)*%
X17050000Y-55570000D02*
X17050000Y-57320000D01*
X17050000Y-57320000D02*
X16730000Y-57640000D01*
%TO.N,Net-(BR1-~_1)*%
X19090000Y-57680000D02*
X19090000Y-57220000D01*
D27*
%TO.N,LINE*%
X21920000Y-62370000D02*
X21920000Y-64330000D01*
X21920000Y-64330000D02*
X21920000Y-65170000D01*
D26*
X19090000Y-59505000D02*
X19090000Y-61500000D01*
X19090000Y-61500000D02*
X21920000Y-64330000D01*
%TO.N,NEUT*%
X16750000Y-65000000D02*
X16750000Y-59485000D01*
X16750000Y-59485000D02*
X16730000Y-59465000D01*
%TO.N,/ZCD*%
X34385000Y-38105000D02*
X34350000Y-38070000D01*
X34350000Y-38070000D02*
X34350000Y-36990000D01*
X31680000Y-31160000D02*
X31680000Y-29940000D01*
X34350000Y-36990000D02*
X33620000Y-36260000D01*
X33620000Y-36260000D02*
X32720000Y-36260000D01*
X32720000Y-36260000D02*
X32100000Y-35640000D01*
X32100000Y-35640000D02*
X32100000Y-31580000D01*
X32100000Y-31580000D02*
X31680000Y-31160000D01*
X31680000Y-29940000D02*
X30400000Y-28660000D01*
X30400000Y-28660000D02*
X29410000Y-28660000D01*
%TO.N,/SCL*%
X29410000Y-27390000D02*
X31080000Y-27390000D01*
X31080000Y-27390000D02*
X32600000Y-28910000D01*
X32600000Y-28910000D02*
X32600000Y-30410000D01*
X32600000Y-30410000D02*
X34100000Y-31910000D01*
%TO.N,/SDA*%
X29410000Y-26120000D02*
X31430000Y-26120000D01*
X31430000Y-26120000D02*
X33250000Y-27940000D01*
X33250000Y-27940000D02*
X33250000Y-28520000D01*
X33250000Y-28520000D02*
X34100000Y-29370000D01*
%TO.N,Net-(BR1-+)*%
X16350000Y-40775000D02*
X16395000Y-40820000D01*
X24150000Y-46670000D02*
X26120000Y-44700000D01*
X16350000Y-38500000D02*
X16350000Y-40775000D01*
X15900000Y-41315000D02*
X16395000Y-40820000D01*
X17560000Y-44060000D02*
X18240000Y-44060000D01*
X20850000Y-46670000D02*
X24150000Y-46670000D01*
X18240000Y-44060000D02*
X20850000Y-46670000D01*
X15900000Y-43480000D02*
X15900000Y-41315000D01*
X26120000Y-44700000D02*
X26120000Y-42835000D01*
X17560000Y-44060000D02*
X16480000Y-44060000D01*
X16480000Y-44060000D02*
X15900000Y-43480000D01*
%TO.N,Net-(BR1--)*%
X18220000Y-40820000D02*
X19730000Y-40820000D01*
X19730000Y-40820000D02*
X20420000Y-41510000D01*
X22660000Y-44060000D02*
X23940000Y-42780000D01*
X20420000Y-41510000D02*
X20420000Y-43100000D01*
X23940000Y-42780000D02*
X23940000Y-40550000D01*
X20420000Y-43100000D02*
X21380000Y-44060000D01*
X21380000Y-44060000D02*
X22660000Y-44060000D01*
%TO.N,Net-(D1-A)*%
X19260000Y-38210000D02*
X20420000Y-38210000D01*
X20420000Y-39430000D02*
X20420000Y-38210000D01*
X18970000Y-38500000D02*
X19260000Y-38210000D01*
X18250000Y-38500000D02*
X18970000Y-38500000D01*
X22640000Y-40550000D02*
X21540000Y-40550000D01*
X21540000Y-40550000D02*
X20420000Y-39430000D01*
%TO.N,+3V3*%
X35850000Y-37037500D02*
X35850000Y-35840000D01*
X40670000Y-31440000D02*
X40260000Y-31850000D01*
X19450000Y-26830000D02*
X21850000Y-29230000D01*
X40670000Y-30020000D02*
X40670000Y-31440000D01*
X34100000Y-26830000D02*
X39290000Y-26830000D01*
X24410000Y-19850000D02*
X26370000Y-21810000D01*
X38782500Y-32907500D02*
X38782500Y-31850000D01*
X38825000Y-29340000D02*
X39990000Y-29340000D01*
X26370000Y-32020000D02*
X25920000Y-32470000D01*
X21850000Y-29230000D02*
X21850000Y-31290000D01*
X40670000Y-28210000D02*
X40670000Y-30020000D01*
X24410000Y-19330000D02*
X24410000Y-19850000D01*
X39290000Y-26830000D02*
X40670000Y-28210000D01*
X40260000Y-31850000D02*
X38782500Y-31850000D01*
X21850000Y-31290000D02*
X23030000Y-32470000D01*
X26370000Y-21810000D02*
X26370000Y-32020000D01*
X39990000Y-29340000D02*
X40670000Y-30020000D01*
X23030000Y-32470000D02*
X24010000Y-32470000D01*
X25920000Y-32470000D02*
X24010000Y-32470000D01*
X35850000Y-35840000D02*
X38782500Y-32907500D01*
%TO.N,/VPP*%
X21870000Y-20290000D02*
X21870000Y-19330000D01*
X24200000Y-21870000D02*
X23450000Y-21870000D01*
X25300000Y-28660000D02*
X25770000Y-28190000D01*
X24010000Y-28660000D02*
X25300000Y-28660000D01*
X25770000Y-28190000D02*
X25770000Y-23440000D01*
X23450000Y-21870000D02*
X21870000Y-20290000D01*
X25770000Y-23440000D02*
X24200000Y-21870000D01*
%TO.N,/FAN_DIR-2_SIG*%
X18260000Y-17810000D02*
X18260000Y-20510000D01*
X19770000Y-22020000D02*
X21900000Y-22020000D01*
X34240000Y-16590000D02*
X19480000Y-16590000D01*
X43830000Y-26180000D02*
X34240000Y-16590000D01*
X19480000Y-16590000D02*
X18260000Y-17810000D01*
X43830000Y-36190000D02*
X43830000Y-26180000D01*
X42170000Y-36987500D02*
X43032500Y-36987500D01*
X18260000Y-20510000D02*
X19770000Y-22020000D01*
X24010000Y-24130000D02*
X24010000Y-24850000D01*
X21900000Y-22020000D02*
X24010000Y-24130000D01*
X43032500Y-36987500D02*
X43830000Y-36190000D01*
%TO.N,/FAN_DIR-1_SIG*%
X41360000Y-27280000D02*
X41360000Y-33560000D01*
X36820000Y-22640000D02*
X39060000Y-24880000D01*
X29410000Y-24850000D02*
X31620000Y-22640000D01*
X41360000Y-33560000D02*
X38870000Y-36050000D01*
X31620000Y-22640000D02*
X36820000Y-22640000D01*
X38870000Y-36050000D02*
X38870000Y-35920000D01*
X38870000Y-36997500D02*
X38870000Y-36050000D01*
X39060000Y-24880000D02*
X39060000Y-24980000D01*
X39060000Y-24980000D02*
X41360000Y-27280000D01*
%TO.N,/SDA*%
X34100000Y-29370000D02*
X36970000Y-29370000D01*
X36970000Y-29370000D02*
X37000000Y-29340000D01*
%TO.N,/SCL*%
X34100000Y-31910000D02*
X36897500Y-31910000D01*
X36897500Y-31910000D02*
X36957500Y-31850000D01*
%TO.N,/ZCD*%
X35142500Y-38862500D02*
X34385000Y-38105000D01*
X33800000Y-38690000D02*
X34385000Y-38105000D01*
X35850000Y-38862500D02*
X35142500Y-38862500D01*
X32620000Y-38690000D02*
X33800000Y-38690000D01*
%TO.N,/ICSPCLK*%
X28700000Y-22860000D02*
X27570000Y-23990000D01*
X27570000Y-23990000D02*
X27570000Y-29170000D01*
X32030000Y-19330000D02*
X32030000Y-21040000D01*
X27570000Y-29170000D02*
X28330000Y-29930000D01*
X32030000Y-21040000D02*
X30210000Y-22860000D01*
X30210000Y-22860000D02*
X28700000Y-22860000D01*
X28330000Y-29930000D02*
X29410000Y-29930000D01*
%TO.N,/ICSPDAT*%
X26970000Y-30190000D02*
X26970000Y-22770000D01*
X26970000Y-22770000D02*
X27740000Y-22000000D01*
X27980000Y-31200000D02*
X26970000Y-30190000D01*
X28600000Y-22000000D02*
X29490000Y-21110000D01*
X27740000Y-22000000D02*
X28600000Y-22000000D01*
X29490000Y-21110000D02*
X29490000Y-19330000D01*
X29410000Y-31200000D02*
X27980000Y-31200000D01*
D27*
%TO.N,NEUT*%
X32950000Y-70250000D02*
X22000000Y-70250000D01*
X18900000Y-67150000D02*
X22000000Y-70250000D01*
X36050000Y-67150000D02*
X32950000Y-70250000D01*
D26*
X16750000Y-65000000D02*
X18900000Y-67150000D01*
D27*
%TO.N,LINE*%
X21920000Y-65170000D02*
X23900000Y-67150000D01*
X22910000Y-57340000D02*
X27460000Y-57340000D01*
D28*
X27460000Y-57070000D02*
X27460000Y-57340000D01*
X39330000Y-54960000D02*
X39330000Y-60010000D01*
X30920000Y-53610000D02*
X27460000Y-57070000D01*
D27*
X27960000Y-57840000D02*
X27960000Y-60070000D01*
X21920000Y-62370000D02*
X21920000Y-58330000D01*
X27460000Y-57340000D02*
X27960000Y-57840000D01*
D28*
X40620000Y-53670000D02*
X39330000Y-54960000D01*
X42130000Y-53670000D02*
X40620000Y-53670000D01*
X31980000Y-53610000D02*
X30920000Y-53610000D01*
D27*
X21920000Y-58330000D02*
X22910000Y-57340000D01*
%TO.N,/FAN_DIR-1_POWER*%
X25420000Y-60070000D02*
X25420000Y-63800000D01*
X28770000Y-67150000D02*
X31050000Y-67150000D01*
X25420000Y-63800000D02*
X28770000Y-67150000D01*
%TO.N,/FAN_DIR-2_POWER*%
X36790000Y-60010000D02*
X36790000Y-62890000D01*
X36790000Y-62890000D02*
X41050000Y-67150000D01*
D26*
%TO.N,Net-(Q1-C)*%
X24710000Y-37420000D02*
X26220000Y-37420000D01*
X23290000Y-38450000D02*
X23680000Y-38450000D01*
X23680000Y-38450000D02*
X24710000Y-37420000D01*
D28*
%TO.N,Net-(Q2-G)*%
X30500000Y-60070000D02*
X30720000Y-60070000D01*
X30500000Y-60070000D02*
X30500000Y-59580000D01*
X34010000Y-49520000D02*
X34010000Y-56560000D01*
X34010000Y-56560000D02*
X30500000Y-60070000D01*
%TO.N,Net-(Q3-G)*%
X41870000Y-60010000D02*
X43920000Y-57960000D01*
X43920000Y-57960000D02*
X43920000Y-50690000D01*
X43920000Y-50690000D02*
X42810000Y-49580000D01*
D26*
%TO.N,Net-(Q4-A)*%
X26120000Y-41010000D02*
X26120000Y-38790000D01*
X26120000Y-38790000D02*
X26220000Y-38690000D01*
%TO.N,Net-(R8-Pad2)*%
X28930000Y-40850000D02*
X28930000Y-41900000D01*
X29810000Y-39970000D02*
X28930000Y-40850000D01*
X37722500Y-39970000D02*
X29810000Y-39970000D01*
X38870000Y-38822500D02*
X37722500Y-39970000D01*
%TO.N,Net-(R9-Pad2)*%
X41380000Y-40150000D02*
X39140000Y-40150000D01*
X42170000Y-39360000D02*
X41380000Y-40150000D01*
X38230000Y-41460000D02*
X37730000Y-41960000D01*
X42170000Y-38812500D02*
X42170000Y-39360000D01*
X37730000Y-41960000D02*
X37730000Y-41560000D01*
X37730000Y-41560000D02*
X39140000Y-40150000D01*
D28*
%TO.N,Net-(R10-Pad2)*%
X28930000Y-52660000D02*
X27980000Y-53610000D01*
X28540000Y-49910000D02*
X28930000Y-49520000D01*
X26020000Y-53390000D02*
X25850000Y-53220000D01*
X28930000Y-49520000D02*
X28930000Y-52660000D01*
X27980000Y-53610000D02*
X25880000Y-53610000D01*
%TO.N,Net-(R11-Pad2)*%
X37730000Y-52600000D02*
X37730000Y-49580000D01*
X36660000Y-53670000D02*
X37730000Y-52600000D01*
X36030000Y-53670000D02*
X36660000Y-53670000D01*
%TD*%
%TA.AperFunction,NonConductor*%
G36*
X17312745Y-37203728D02*
G01*
X17320853Y-37207151D01*
X17324167Y-37215305D01*
X17320744Y-37223414D01*
X17319962Y-37224118D01*
X17307294Y-37234514D01*
X17298872Y-37237069D01*
X17292704Y-37234514D01*
X17287258Y-37230045D01*
X17279827Y-37223947D01*
X17275678Y-37216186D01*
X17278233Y-37207763D01*
X17285995Y-37203613D01*
X17287185Y-37203558D01*
X17312745Y-37203728D01*
G37*
%TD.AperFunction*%
%TA.AperFunction,NonConductor*%
G36*
X15428031Y-37191184D02*
G01*
X15436138Y-37194607D01*
X15439452Y-37202761D01*
X15436029Y-37210870D01*
X15435248Y-37211574D01*
X15353590Y-37278590D01*
X15270177Y-37380228D01*
X15262414Y-37384377D01*
X15253991Y-37381822D01*
X15249842Y-37374059D01*
X15249788Y-37372943D01*
X15249986Y-37201561D01*
X15253364Y-37193435D01*
X15261497Y-37190076D01*
X15428031Y-37191184D01*
G37*
%TD.AperFunction*%
%TA.AperFunction,NonConductor*%
G36*
X24591132Y-38970051D02*
G01*
X24594500Y-38978183D01*
X24594500Y-39059954D01*
X24609632Y-39194255D01*
X24646358Y-39299211D01*
X24665613Y-39354239D01*
X24665119Y-39363027D01*
X24658556Y-39368892D01*
X24649768Y-39368398D01*
X24648640Y-39367774D01*
X24539528Y-39299214D01*
X24539525Y-39299212D01*
X24487289Y-39280934D01*
X24369255Y-39239632D01*
X24335494Y-39235827D01*
X24327792Y-39231570D01*
X24325355Y-39223112D01*
X24328649Y-39216270D01*
X24360408Y-39184510D01*
X24360729Y-39184214D01*
X24368068Y-39177913D01*
X24408895Y-39142866D01*
X24432109Y-39112874D01*
X24432585Y-39112335D01*
X24499079Y-39045841D01*
X24574869Y-38970050D01*
X24583000Y-38966683D01*
X24591132Y-38970051D01*
G37*
%TD.AperFunction*%
%TA.AperFunction,NonConductor*%
G36*
X22587576Y-37238835D02*
G01*
X22595684Y-37242258D01*
X22598998Y-37250412D01*
X22595575Y-37258521D01*
X22593616Y-37260072D01*
X22537744Y-37295179D01*
X22537740Y-37295182D01*
X22537738Y-37295184D01*
X22410184Y-37422738D01*
X22410182Y-37422740D01*
X22410179Y-37422744D01*
X22314214Y-37575471D01*
X22314212Y-37575474D01*
X22298266Y-37621046D01*
X22254632Y-37745745D01*
X22239500Y-37880046D01*
X22239500Y-39019954D01*
X22254632Y-39154255D01*
X22254633Y-39154257D01*
X22276945Y-39218024D01*
X22276451Y-39226812D01*
X22269888Y-39232677D01*
X22267378Y-39233250D01*
X22238637Y-39236489D01*
X22210745Y-39239632D01*
X22210742Y-39239632D01*
X22210742Y-39239633D01*
X22040474Y-39299212D01*
X22040471Y-39299214D01*
X21887744Y-39395179D01*
X21887740Y-39395182D01*
X21852053Y-39430868D01*
X21843921Y-39434236D01*
X21835789Y-39430868D01*
X21551265Y-39146344D01*
X21547897Y-39138212D01*
X21550506Y-39130918D01*
X21651798Y-39007494D01*
X21747023Y-38829341D01*
X21805662Y-38636033D01*
X21820500Y-38485380D01*
X21820500Y-37934620D01*
X21805662Y-37783967D01*
X21747023Y-37590659D01*
X21738906Y-37575474D01*
X21651799Y-37412508D01*
X21651798Y-37412506D01*
X21523647Y-37256353D01*
X21518535Y-37252158D01*
X21514386Y-37244396D01*
X21516941Y-37235974D01*
X21524704Y-37231824D01*
X21525893Y-37231769D01*
X22587576Y-37238835D01*
G37*
%TD.AperFunction*%
%TA.AperFunction,NonConductor*%
G36*
X15266822Y-39615769D02*
G01*
X15267570Y-39616594D01*
X15323713Y-39685005D01*
X15326268Y-39693427D01*
X15323713Y-39699595D01*
X15267413Y-39768198D01*
X15259650Y-39772348D01*
X15251228Y-39769793D01*
X15247078Y-39762030D01*
X15247023Y-39760901D01*
X15247182Y-39623875D01*
X15250559Y-39615750D01*
X15258694Y-39612391D01*
X15266822Y-39615769D01*
G37*
%TD.AperFunction*%
%TA.AperFunction,NonConductor*%
G36*
X19414648Y-39516690D02*
G01*
X19420232Y-39523493D01*
X19420547Y-39524803D01*
X19428442Y-39568855D01*
X19428503Y-39569288D01*
X19434925Y-39632436D01*
X19446277Y-39668619D01*
X19446450Y-39669326D01*
X19453141Y-39706651D01*
X19476688Y-39765603D01*
X19476834Y-39766015D01*
X19488928Y-39804557D01*
X19488148Y-39813324D01*
X19481398Y-39818973D01*
X19477955Y-39819500D01*
X19386294Y-39819500D01*
X19378162Y-39816132D01*
X19376152Y-39813421D01*
X19360185Y-39783550D01*
X19283786Y-39690456D01*
X19281231Y-39682034D01*
X19283785Y-39675866D01*
X19377685Y-39561450D01*
X19399087Y-39521409D01*
X19405888Y-39515827D01*
X19414648Y-39516690D01*
G37*
%TD.AperFunction*%
%TA.AperFunction,NonConductor*%
G36*
X24935231Y-39671601D02*
G01*
X24936359Y-39672225D01*
X25045471Y-39740785D01*
X25045474Y-39740787D01*
X25045475Y-39740787D01*
X25045478Y-39740789D01*
X25111799Y-39763995D01*
X25118361Y-39769859D01*
X25119500Y-39774849D01*
X25119500Y-39843706D01*
X25116132Y-39851838D01*
X25113421Y-39853848D01*
X25083550Y-39869814D01*
X25003361Y-39935623D01*
X24994939Y-39938178D01*
X24987176Y-39934028D01*
X24984638Y-39928021D01*
X24975368Y-39845745D01*
X24919386Y-39685757D01*
X24919880Y-39676972D01*
X24926443Y-39671107D01*
X24935231Y-39671601D01*
G37*
%TD.AperFunction*%
%TA.AperFunction,NonConductor*%
G36*
X27268461Y-39788467D02*
G01*
X27274327Y-39795029D01*
X27274972Y-39798805D01*
X27275256Y-39942978D01*
X27271904Y-39951117D01*
X27263779Y-39954501D01*
X27256461Y-39951891D01*
X27156449Y-39869814D01*
X27126579Y-39853848D01*
X27120995Y-39847044D01*
X27120500Y-39843706D01*
X27120500Y-39822335D01*
X27123868Y-39814203D01*
X27130710Y-39810907D01*
X27224255Y-39800368D01*
X27259677Y-39787973D01*
X27268461Y-39788467D01*
G37*
%TD.AperFunction*%
%TA.AperFunction,NonConductor*%
G36*
X21840130Y-41657208D02*
G01*
X21887738Y-41704816D01*
X21887740Y-41704817D01*
X21887741Y-41704818D01*
X21887744Y-41704820D01*
X22040471Y-41800785D01*
X22040474Y-41800787D01*
X22040475Y-41800787D01*
X22040478Y-41800789D01*
X22072933Y-41812145D01*
X22079496Y-41818010D01*
X22079990Y-41826798D01*
X22074125Y-41833361D01*
X22069135Y-41834500D01*
X21940046Y-41834500D01*
X21828391Y-41847079D01*
X21819934Y-41844642D01*
X21815676Y-41836938D01*
X21815659Y-41834524D01*
X21820500Y-41785380D01*
X21820500Y-41665341D01*
X21823868Y-41657209D01*
X21832000Y-41653841D01*
X21840130Y-41657208D01*
G37*
%TD.AperFunction*%
%TA.AperFunction,NonConductor*%
G36*
X24683732Y-43469291D02*
G01*
X24686402Y-43473876D01*
X24694766Y-43501447D01*
X24694769Y-43501457D01*
X24792313Y-43683947D01*
X24792315Y-43683950D01*
X24923590Y-43843910D01*
X25083550Y-43975185D01*
X25113421Y-43991151D01*
X25119004Y-43997953D01*
X25119499Y-44001292D01*
X25119499Y-44280815D01*
X25116131Y-44288947D01*
X24155132Y-45249947D01*
X24147000Y-45253315D01*
X24138868Y-45249947D01*
X24135500Y-45241815D01*
X24135500Y-44004184D01*
X24138867Y-43996053D01*
X24638487Y-43496433D01*
X24662217Y-43473876D01*
X24667474Y-43468879D01*
X24675688Y-43465718D01*
X24683732Y-43469291D01*
G37*
%TD.AperFunction*%
%TA.AperFunction,NonConductor*%
G36*
X19097818Y-42138868D02*
G01*
X19099071Y-42140743D01*
X19176430Y-42285471D01*
X19188202Y-42307494D01*
X19316353Y-42463647D01*
X19415296Y-42544847D01*
X19419445Y-42552609D01*
X19419500Y-42553736D01*
X19419500Y-43087284D01*
X19417242Y-43176362D01*
X19428442Y-43238855D01*
X19428503Y-43239288D01*
X19434925Y-43302436D01*
X19446277Y-43338619D01*
X19446450Y-43339326D01*
X19453141Y-43376651D01*
X19476688Y-43435603D01*
X19476834Y-43436015D01*
X19487147Y-43468879D01*
X19495841Y-43496588D01*
X19507185Y-43517027D01*
X19514242Y-43529741D01*
X19514554Y-43530399D01*
X19528618Y-43565606D01*
X19528620Y-43565610D01*
X19528623Y-43565617D01*
X19528627Y-43565623D01*
X19563551Y-43618615D01*
X19563778Y-43618989D01*
X19584905Y-43657051D01*
X19594591Y-43674502D01*
X19604281Y-43685789D01*
X19619295Y-43703279D01*
X19619726Y-43703849D01*
X19640598Y-43735519D01*
X19663080Y-43758001D01*
X19685487Y-43780408D01*
X19685784Y-43780728D01*
X19699650Y-43796880D01*
X19727134Y-43828895D01*
X19746532Y-43843910D01*
X19757116Y-43852103D01*
X19757663Y-43852585D01*
X19988631Y-44083552D01*
X20663548Y-44758468D01*
X20724941Y-44823053D01*
X20748719Y-44839603D01*
X20777050Y-44859322D01*
X20777397Y-44859584D01*
X20826593Y-44899698D01*
X20847407Y-44910570D01*
X20860198Y-44917252D01*
X20860821Y-44917629D01*
X20890728Y-44938444D01*
X20891951Y-44939295D01*
X20950292Y-44964331D01*
X20950689Y-44964519D01*
X21006951Y-44993909D01*
X21006953Y-44993909D01*
X21006959Y-44993912D01*
X21031936Y-45001058D01*
X21043408Y-45004340D01*
X21044085Y-45004581D01*
X21078942Y-45019540D01*
X21141139Y-45032321D01*
X21141550Y-45032423D01*
X21176165Y-45042328D01*
X21183055Y-45047802D01*
X21184500Y-45053383D01*
X21184500Y-45529953D01*
X21188391Y-45564491D01*
X21185954Y-45572948D01*
X21178250Y-45577206D01*
X21169793Y-45574769D01*
X21168831Y-45573910D01*
X19038868Y-43443947D01*
X19035500Y-43435815D01*
X19035500Y-42590047D01*
X19035500Y-42590046D01*
X19020368Y-42455745D01*
X18960789Y-42285478D01*
X18960787Y-42285475D01*
X18960787Y-42285474D01*
X18960785Y-42285471D01*
X18929732Y-42236051D01*
X18928257Y-42227374D01*
X18933351Y-42220196D01*
X18934048Y-42219791D01*
X19068950Y-42147685D01*
X19081634Y-42137274D01*
X19090055Y-42134719D01*
X19097818Y-42138868D01*
G37*
%TD.AperFunction*%
%TA.AperFunction,NonConductor*%
G36*
X30206114Y-51230480D02*
G01*
X30230475Y-51245787D01*
X30230478Y-51245789D01*
X30400745Y-51305368D01*
X30535046Y-51320500D01*
X30895342Y-51320500D01*
X30903474Y-51323868D01*
X30906842Y-51332000D01*
X30903474Y-51340132D01*
X30902638Y-51340890D01*
X30783590Y-51438590D01*
X30652313Y-51598551D01*
X30554769Y-51781041D01*
X30554766Y-51781051D01*
X30494701Y-51979060D01*
X30494700Y-51979062D01*
X30494700Y-51979065D01*
X30479500Y-52133391D01*
X30479500Y-52133392D01*
X30479500Y-52133397D01*
X30479500Y-52481125D01*
X30476132Y-52489257D01*
X30473126Y-52491419D01*
X30463161Y-52496382D01*
X30459842Y-52498034D01*
X30459109Y-52498338D01*
X30433019Y-52507083D01*
X30433018Y-52507083D01*
X30360152Y-52547667D01*
X30359917Y-52547791D01*
X30285309Y-52584942D01*
X30285306Y-52584944D01*
X30263362Y-52601516D01*
X30262694Y-52601952D01*
X30238654Y-52615342D01*
X30238641Y-52615351D01*
X30174492Y-52668620D01*
X30174283Y-52668785D01*
X30151018Y-52686354D01*
X30142499Y-52688567D01*
X30134911Y-52684107D01*
X30132600Y-52677708D01*
X30132491Y-52675352D01*
X30130506Y-52632401D01*
X30130500Y-52632136D01*
X30130500Y-51267602D01*
X30133868Y-51259470D01*
X30138198Y-51256749D01*
X30169522Y-51245789D01*
X30193882Y-51230481D01*
X30202558Y-51229007D01*
X30206114Y-51230480D01*
G37*
%TD.AperFunction*%
%TA.AperFunction,NonConductor*%
G36*
X27952403Y-54810506D02*
G01*
X27966418Y-54811153D01*
X27992648Y-54812366D01*
X28000616Y-54816106D01*
X28003605Y-54824385D01*
X28000249Y-54831986D01*
X27296105Y-55536132D01*
X27287973Y-55539500D01*
X27270676Y-55539500D01*
X27262544Y-55536132D01*
X27259176Y-55528000D01*
X27260534Y-55522579D01*
X27305230Y-55438958D01*
X27305232Y-55438955D01*
X27365300Y-55240935D01*
X27380500Y-55086609D01*
X27380500Y-54822000D01*
X27383868Y-54813868D01*
X27392000Y-54810500D01*
X27952138Y-54810500D01*
X27952403Y-54810506D01*
G37*
%TD.AperFunction*%
%TA.AperFunction,NonConductor*%
G36*
X27280418Y-43888323D02*
G01*
X27283028Y-43895596D01*
X27289999Y-47439999D01*
X27290000Y-47440000D01*
X44638029Y-47479972D01*
X44646150Y-47483358D01*
X44649500Y-47491471D01*
X44649500Y-49693972D01*
X44646132Y-49702104D01*
X44638000Y-49705472D01*
X44629868Y-49702104D01*
X44503868Y-49576104D01*
X44500500Y-49567972D01*
X44500500Y-48535047D01*
X44500500Y-48535046D01*
X44485368Y-48400745D01*
X44425789Y-48230478D01*
X44425787Y-48230475D01*
X44425787Y-48230474D01*
X44425785Y-48230471D01*
X44329820Y-48077744D01*
X44329818Y-48077741D01*
X44329817Y-48077740D01*
X44329816Y-48077738D01*
X44202262Y-47950184D01*
X44202259Y-47950182D01*
X44202255Y-47950179D01*
X44049528Y-47854214D01*
X44049525Y-47854212D01*
X43926006Y-47810991D01*
X43879255Y-47794632D01*
X43744954Y-47779500D01*
X41875046Y-47779500D01*
X41740745Y-47794632D01*
X41740742Y-47794632D01*
X41740742Y-47794633D01*
X41570478Y-47854211D01*
X41546118Y-47869517D01*
X41537441Y-47870991D01*
X41533882Y-47869517D01*
X41509522Y-47854211D01*
X41339255Y-47794632D01*
X41204954Y-47779500D01*
X39335046Y-47779500D01*
X39200745Y-47794632D01*
X39200742Y-47794632D01*
X39200742Y-47794633D01*
X39030478Y-47854211D01*
X39006118Y-47869517D01*
X38997441Y-47870991D01*
X38993882Y-47869517D01*
X38969522Y-47854211D01*
X38799255Y-47794632D01*
X38664954Y-47779500D01*
X36795046Y-47779500D01*
X36660745Y-47794632D01*
X36660742Y-47794632D01*
X36660742Y-47794633D01*
X36490474Y-47854212D01*
X36490471Y-47854214D01*
X36337744Y-47950179D01*
X36337740Y-47950182D01*
X36337738Y-47950184D01*
X36210184Y-48077738D01*
X36210182Y-48077740D01*
X36210179Y-48077744D01*
X36114214Y-48230471D01*
X36114212Y-48230474D01*
X36114211Y-48230478D01*
X36054632Y-48400745D01*
X36039500Y-48535046D01*
X36039500Y-50624954D01*
X36054632Y-50759255D01*
X36054633Y-50759257D01*
X36114212Y-50929525D01*
X36114214Y-50929528D01*
X36210179Y-51082255D01*
X36210182Y-51082259D01*
X36210184Y-51082262D01*
X36262422Y-51134500D01*
X36302790Y-51174868D01*
X36306158Y-51183000D01*
X36302790Y-51191132D01*
X36294658Y-51194500D01*
X35528398Y-51194500D01*
X35459520Y-51201283D01*
X35374065Y-51209700D01*
X35374062Y-51209700D01*
X35374060Y-51209701D01*
X35326427Y-51224150D01*
X35317668Y-51223287D01*
X35312084Y-51216483D01*
X35312947Y-51207724D01*
X35316971Y-51203408D01*
X35362392Y-51174868D01*
X35402262Y-51149816D01*
X35529816Y-51022262D01*
X35625789Y-50869522D01*
X35685368Y-50699255D01*
X35700500Y-50564954D01*
X35700500Y-48475046D01*
X35685368Y-48340745D01*
X35625789Y-48170478D01*
X35625787Y-48170475D01*
X35625787Y-48170474D01*
X35625785Y-48170471D01*
X35529820Y-48017744D01*
X35529818Y-48017741D01*
X35529817Y-48017740D01*
X35529816Y-48017738D01*
X35402262Y-47890184D01*
X35402259Y-47890182D01*
X35402255Y-47890179D01*
X35249528Y-47794214D01*
X35249525Y-47794212D01*
X35207480Y-47779500D01*
X35079255Y-47734632D01*
X34944954Y-47719500D01*
X33075046Y-47719500D01*
X32940745Y-47734632D01*
X32940742Y-47734632D01*
X32940742Y-47734633D01*
X32770478Y-47794211D01*
X32746118Y-47809517D01*
X32737441Y-47810991D01*
X32733882Y-47809517D01*
X32709522Y-47794211D01*
X32539255Y-47734632D01*
X32404954Y-47719500D01*
X30535046Y-47719500D01*
X30400745Y-47734632D01*
X30400742Y-47734632D01*
X30400742Y-47734633D01*
X30230478Y-47794211D01*
X30206118Y-47809517D01*
X30197441Y-47810991D01*
X30193882Y-47809517D01*
X30169522Y-47794211D01*
X29999255Y-47734632D01*
X29864954Y-47719500D01*
X27995046Y-47719500D01*
X27860745Y-47734632D01*
X27860742Y-47734632D01*
X27860742Y-47734633D01*
X27690474Y-47794212D01*
X27690471Y-47794214D01*
X27537744Y-47890179D01*
X27537740Y-47890182D01*
X27537738Y-47890184D01*
X27410184Y-48017738D01*
X27410182Y-48017740D01*
X27410179Y-48017744D01*
X27314214Y-48170471D01*
X27314212Y-48170474D01*
X27293217Y-48230474D01*
X27254632Y-48340745D01*
X27239500Y-48475046D01*
X27239500Y-50564954D01*
X27254632Y-50699255D01*
X27305741Y-50845318D01*
X27314212Y-50869525D01*
X27314214Y-50869528D01*
X27410179Y-51022255D01*
X27410182Y-51022259D01*
X27410184Y-51022262D01*
X27537738Y-51149816D01*
X27537740Y-51149817D01*
X27537741Y-51149818D01*
X27537744Y-51149820D01*
X27690471Y-51245785D01*
X27690474Y-51245787D01*
X27690475Y-51245787D01*
X27690478Y-51245789D01*
X27721799Y-51256748D01*
X27728361Y-51262612D01*
X27729500Y-51267602D01*
X27729500Y-52157972D01*
X27726132Y-52166104D01*
X27486105Y-52406132D01*
X27477973Y-52409500D01*
X27391999Y-52409500D01*
X27383867Y-52406132D01*
X27380499Y-52398000D01*
X27380499Y-52133398D01*
X27380499Y-52133397D01*
X27380499Y-52133392D01*
X27365300Y-51979065D01*
X27305232Y-51781045D01*
X27207685Y-51598549D01*
X27076410Y-51438590D01*
X26916451Y-51307315D01*
X26916449Y-51307314D01*
X26916448Y-51307313D01*
X26733958Y-51209769D01*
X26733948Y-51209766D01*
X26733730Y-51209700D01*
X26536331Y-51149820D01*
X26535939Y-51149701D01*
X26535937Y-51149700D01*
X26535935Y-51149700D01*
X26381609Y-51134500D01*
X26381602Y-51134500D01*
X25378398Y-51134500D01*
X25309520Y-51141283D01*
X25224065Y-51149700D01*
X25224062Y-51149700D01*
X25224060Y-51149701D01*
X25026051Y-51209766D01*
X25026041Y-51209769D01*
X24843551Y-51307313D01*
X24683590Y-51438590D01*
X24552313Y-51598551D01*
X24454769Y-51781041D01*
X24454766Y-51781051D01*
X24394701Y-51979060D01*
X24394700Y-51979062D01*
X24394700Y-51979065D01*
X24379500Y-52133391D01*
X24379500Y-52133392D01*
X24379500Y-52133397D01*
X24379500Y-55086601D01*
X24379501Y-55086608D01*
X24394700Y-55240935D01*
X24394700Y-55240937D01*
X24394701Y-55240939D01*
X24454766Y-55438948D01*
X24454769Y-55438958D01*
X24499466Y-55522579D01*
X24500329Y-55531338D01*
X24494745Y-55538142D01*
X24489324Y-55539500D01*
X22943664Y-55539500D01*
X22842488Y-55535714D01*
X22741881Y-55547049D01*
X22640901Y-55554616D01*
X22608240Y-55562070D01*
X22607604Y-55562178D01*
X22598562Y-55563197D01*
X22574327Y-55565928D01*
X22574322Y-55565929D01*
X22574316Y-55565930D01*
X22478995Y-55591472D01*
X22476536Y-55592131D01*
X22377805Y-55614666D01*
X22377802Y-55614667D01*
X22377799Y-55614668D01*
X22346622Y-55626903D01*
X22346009Y-55627105D01*
X22313668Y-55635771D01*
X22220857Y-55676263D01*
X22126603Y-55713256D01*
X22097601Y-55729999D01*
X22097026Y-55730289D01*
X22066321Y-55743686D01*
X21980575Y-55797564D01*
X21892899Y-55848183D01*
X21866716Y-55869063D01*
X21866190Y-55869436D01*
X21837829Y-55887258D01*
X21761076Y-55953309D01*
X21681920Y-56016433D01*
X21613036Y-56090672D01*
X20670660Y-57033047D01*
X20596433Y-57101920D01*
X20570671Y-57134224D01*
X20562967Y-57138482D01*
X20554510Y-57136045D01*
X20550676Y-57130394D01*
X20515232Y-57013546D01*
X20417685Y-56831050D01*
X20286410Y-56671090D01*
X20133893Y-56545923D01*
X20129745Y-56538161D01*
X20131048Y-56531613D01*
X20175229Y-56448959D01*
X20175232Y-56448954D01*
X20176715Y-56444061D01*
X20181389Y-56437800D01*
X20198649Y-56426425D01*
X20198973Y-56426229D01*
X20254502Y-56395409D01*
X20283282Y-56370700D01*
X20283846Y-56370274D01*
X20315519Y-56349402D01*
X20360409Y-56304510D01*
X20360721Y-56304220D01*
X20408895Y-56262866D01*
X20432109Y-56232874D01*
X20432585Y-56232335D01*
X21988468Y-54676451D01*
X22053053Y-54615059D01*
X22089330Y-54562936D01*
X22089567Y-54562621D01*
X22129698Y-54513407D01*
X22141049Y-54491675D01*
X22147799Y-54486027D01*
X22151242Y-54485500D01*
X23379952Y-54485500D01*
X23379954Y-54485500D01*
X23514255Y-54470368D01*
X23684522Y-54410789D01*
X23837262Y-54314816D01*
X23964816Y-54187262D01*
X24060789Y-54034522D01*
X24120368Y-53864255D01*
X24135500Y-53729954D01*
X24135500Y-50790046D01*
X24120368Y-50655745D01*
X24060789Y-50485478D01*
X24060787Y-50485475D01*
X24060787Y-50485474D01*
X24060785Y-50485471D01*
X23964820Y-50332744D01*
X23964818Y-50332741D01*
X23964817Y-50332740D01*
X23964816Y-50332738D01*
X23837262Y-50205184D01*
X23837259Y-50205182D01*
X23837255Y-50205179D01*
X23684528Y-50109214D01*
X23684525Y-50109212D01*
X23660318Y-50100741D01*
X23514255Y-50049632D01*
X23379954Y-50034500D01*
X21940046Y-50034500D01*
X21805745Y-50049632D01*
X21805742Y-50049632D01*
X21805742Y-50049633D01*
X21635474Y-50109212D01*
X21635471Y-50109214D01*
X21482744Y-50205179D01*
X21482740Y-50205182D01*
X21482738Y-50205184D01*
X21355184Y-50332738D01*
X21355182Y-50332740D01*
X21355179Y-50332744D01*
X21259214Y-50485471D01*
X21259212Y-50485474D01*
X21259211Y-50485478D01*
X21199632Y-50655745D01*
X21187969Y-50759257D01*
X21184500Y-50790047D01*
X21184500Y-52315815D01*
X21181132Y-52323947D01*
X20591532Y-52913547D01*
X20526948Y-52974939D01*
X20490676Y-53027050D01*
X20490413Y-53027399D01*
X20450300Y-53076595D01*
X20432742Y-53110206D01*
X20432365Y-53110828D01*
X20410708Y-53141945D01*
X20410703Y-53141954D01*
X20385667Y-53200292D01*
X20385479Y-53200687D01*
X20356090Y-53256952D01*
X20345659Y-53293404D01*
X20345415Y-53294090D01*
X20330461Y-53328939D01*
X20317678Y-53391132D01*
X20317573Y-53391556D01*
X20300112Y-53452579D01*
X20297232Y-53490396D01*
X20297131Y-53491117D01*
X20289500Y-53528260D01*
X20289500Y-53540815D01*
X20286132Y-53548947D01*
X19682552Y-54152526D01*
X19674420Y-54155894D01*
X19668999Y-54154536D01*
X19603957Y-54119769D01*
X19603947Y-54119766D01*
X19577152Y-54111638D01*
X19531392Y-54097756D01*
X19405938Y-54059701D01*
X19405936Y-54059700D01*
X19405934Y-54059700D01*
X19251608Y-54044500D01*
X19251601Y-54044500D01*
X18973505Y-54044500D01*
X18965373Y-54041132D01*
X18962005Y-54033000D01*
X18962649Y-54029205D01*
X19020368Y-53864255D01*
X19035500Y-53729954D01*
X19035500Y-50790046D01*
X19020368Y-50655745D01*
X18960789Y-50485478D01*
X18960787Y-50485475D01*
X18960787Y-50485474D01*
X18960785Y-50485471D01*
X18864820Y-50332744D01*
X18864818Y-50332741D01*
X18864817Y-50332740D01*
X18864816Y-50332738D01*
X18737262Y-50205184D01*
X18737259Y-50205182D01*
X18737255Y-50205179D01*
X18584528Y-50109214D01*
X18584525Y-50109212D01*
X18560318Y-50100742D01*
X18414255Y-50049632D01*
X18279954Y-50034500D01*
X16840046Y-50034500D01*
X16705745Y-50049632D01*
X16705742Y-50049632D01*
X16705742Y-50049633D01*
X16535474Y-50109212D01*
X16535471Y-50109214D01*
X16382744Y-50205179D01*
X16382740Y-50205182D01*
X16382738Y-50205184D01*
X16255184Y-50332738D01*
X16255182Y-50332740D01*
X16255179Y-50332744D01*
X16159214Y-50485471D01*
X16159212Y-50485474D01*
X16159211Y-50485478D01*
X16099632Y-50655745D01*
X16084500Y-50790046D01*
X16084500Y-53729954D01*
X16099632Y-53864255D01*
X16099633Y-53864257D01*
X16159212Y-54034525D01*
X16159214Y-54034528D01*
X16204153Y-54106047D01*
X16205628Y-54114724D01*
X16204609Y-54117489D01*
X16192745Y-54140203D01*
X16192367Y-54140826D01*
X16170708Y-54171945D01*
X16170703Y-54171954D01*
X16145667Y-54230292D01*
X16145479Y-54230687D01*
X16116090Y-54286952D01*
X16113209Y-54297021D01*
X16109449Y-54302746D01*
X16053594Y-54348586D01*
X16053592Y-54348588D01*
X16053590Y-54348590D01*
X16002548Y-54410785D01*
X15922313Y-54508552D01*
X15824769Y-54691042D01*
X15824766Y-54691052D01*
X15764701Y-54889061D01*
X15764700Y-54889063D01*
X15764700Y-54889066D01*
X15763198Y-54904318D01*
X15749499Y-55043398D01*
X15749499Y-56096601D01*
X15754601Y-56148403D01*
X15764700Y-56250934D01*
X15764700Y-56250936D01*
X15764701Y-56250938D01*
X15816996Y-56423335D01*
X15816133Y-56432094D01*
X15811412Y-56436815D01*
X15693552Y-56499813D01*
X15533590Y-56631090D01*
X15402313Y-56791052D01*
X15304769Y-56973542D01*
X15304766Y-56973552D01*
X15249392Y-57156094D01*
X15243808Y-57162898D01*
X15235049Y-57163761D01*
X15228245Y-57158177D01*
X15226888Y-57152748D01*
X15241809Y-44264476D01*
X15245186Y-44256352D01*
X15253321Y-44252993D01*
X15261440Y-44256361D01*
X15763548Y-44758468D01*
X15824941Y-44823053D01*
X15848719Y-44839603D01*
X15877050Y-44859322D01*
X15877397Y-44859584D01*
X15926593Y-44899698D01*
X15947407Y-44910570D01*
X15960198Y-44917252D01*
X15960821Y-44917629D01*
X15990728Y-44938444D01*
X15991951Y-44939295D01*
X16050292Y-44964331D01*
X16050686Y-44964519D01*
X16061338Y-44970082D01*
X16078325Y-44978955D01*
X16083972Y-44985704D01*
X16084500Y-44989147D01*
X16084499Y-45529952D01*
X16089549Y-45574769D01*
X16099632Y-45664255D01*
X16099633Y-45664257D01*
X16159212Y-45834525D01*
X16159214Y-45834528D01*
X16255179Y-45987255D01*
X16255182Y-45987259D01*
X16255184Y-45987262D01*
X16382738Y-46114816D01*
X16382740Y-46114817D01*
X16382741Y-46114818D01*
X16382744Y-46114820D01*
X16535471Y-46210785D01*
X16535474Y-46210787D01*
X16535475Y-46210787D01*
X16535478Y-46210789D01*
X16705745Y-46270368D01*
X16840046Y-46285500D01*
X16840048Y-46285500D01*
X18279952Y-46285500D01*
X18279954Y-46285500D01*
X18414255Y-46270368D01*
X18584522Y-46210789D01*
X18737262Y-46114816D01*
X18800446Y-46051630D01*
X18808578Y-46048263D01*
X18816709Y-46051631D01*
X20133566Y-47368487D01*
X20194941Y-47433053D01*
X20218431Y-47449402D01*
X20247043Y-47469317D01*
X20247390Y-47469579D01*
X20296592Y-47509698D01*
X20330215Y-47527261D01*
X20330822Y-47527628D01*
X20361951Y-47549295D01*
X20390106Y-47561377D01*
X20420290Y-47574330D01*
X20420687Y-47574518D01*
X20476951Y-47603909D01*
X20513411Y-47614340D01*
X20514080Y-47614578D01*
X20548942Y-47629540D01*
X20611149Y-47642322D01*
X20611553Y-47642422D01*
X20672582Y-47659886D01*
X20672578Y-47659886D01*
X20704832Y-47662341D01*
X20710389Y-47662765D01*
X20711111Y-47662866D01*
X20748259Y-47670500D01*
X20811738Y-47670500D01*
X20812174Y-47670517D01*
X20834484Y-47672215D01*
X20875476Y-47675337D01*
X20913094Y-47670546D01*
X20913823Y-47670500D01*
X24137284Y-47670500D01*
X24226362Y-47672757D01*
X24226362Y-47672756D01*
X24226363Y-47672757D01*
X24247141Y-47669032D01*
X24288857Y-47661556D01*
X24289281Y-47661496D01*
X24352438Y-47655074D01*
X24388623Y-47643720D01*
X24389329Y-47643548D01*
X24417110Y-47638568D01*
X24426653Y-47636858D01*
X24426655Y-47636856D01*
X24426659Y-47636856D01*
X24436914Y-47632758D01*
X24485632Y-47613298D01*
X24485998Y-47613168D01*
X24546588Y-47594159D01*
X24579755Y-47575748D01*
X24580399Y-47575444D01*
X24584904Y-47573644D01*
X24615617Y-47561377D01*
X24668632Y-47526436D01*
X24668974Y-47526228D01*
X24724502Y-47495409D01*
X24753282Y-47470700D01*
X24753846Y-47470274D01*
X24785519Y-47449402D01*
X24830409Y-47404510D01*
X24830721Y-47404220D01*
X24878895Y-47362866D01*
X24902108Y-47332875D01*
X24902584Y-47332336D01*
X26818487Y-45416433D01*
X26818487Y-45416432D01*
X26883053Y-45355059D01*
X26919322Y-45302948D01*
X26919572Y-45302617D01*
X26959698Y-45253407D01*
X26977259Y-45219786D01*
X26977629Y-45219176D01*
X26999295Y-45188049D01*
X27024337Y-45129693D01*
X27024516Y-45129317D01*
X27053907Y-45073052D01*
X27053909Y-45073049D01*
X27064343Y-45036581D01*
X27064577Y-45035922D01*
X27079540Y-45001058D01*
X27092322Y-44938852D01*
X27092419Y-44938461D01*
X27109887Y-44877418D01*
X27112766Y-44839600D01*
X27112867Y-44838881D01*
X27120500Y-44801739D01*
X27120500Y-44738264D01*
X27120517Y-44737828D01*
X27122011Y-44718199D01*
X27125337Y-44674523D01*
X27120546Y-44636902D01*
X27120500Y-44636175D01*
X27120500Y-44001292D01*
X27123868Y-43993160D01*
X27126575Y-43991152D01*
X27156450Y-43975185D01*
X27264236Y-43886727D01*
X27272655Y-43884174D01*
X27280418Y-43888323D01*
G37*
%TD.AperFunction*%
%TA.AperFunction,NonConductor*%
G36*
X30641589Y-55602436D02*
G01*
X30643599Y-55605146D01*
X30652315Y-55621451D01*
X30783590Y-55781410D01*
X30943549Y-55912685D01*
X31126045Y-56010232D01*
X31324065Y-56070300D01*
X31478391Y-56085500D01*
X32481608Y-56085499D01*
X32635935Y-56070300D01*
X32794662Y-56022151D01*
X32803421Y-56023014D01*
X32809005Y-56029818D01*
X32809500Y-56033156D01*
X32809500Y-56057972D01*
X32806132Y-56066104D01*
X30606105Y-58266132D01*
X30597973Y-58269500D01*
X30368631Y-58269500D01*
X30108820Y-58308661D01*
X29857762Y-58386103D01*
X29857752Y-58386107D01*
X29776989Y-58424999D01*
X29768202Y-58425493D01*
X29761639Y-58419627D01*
X29760500Y-58414638D01*
X29760500Y-57873674D01*
X29760500Y-57873673D01*
X29764286Y-57772488D01*
X29752950Y-57671881D01*
X29745383Y-57570897D01*
X29737929Y-57538240D01*
X29737822Y-57537616D01*
X29734072Y-57504327D01*
X29722927Y-57462736D01*
X29707868Y-57406536D01*
X29700039Y-57372236D01*
X29685334Y-57307805D01*
X29673090Y-57276608D01*
X29672898Y-57276025D01*
X29664227Y-57243665D01*
X29664226Y-57243664D01*
X29664226Y-57243661D01*
X29623736Y-57150857D01*
X29586745Y-57056607D01*
X29586744Y-57056604D01*
X29586743Y-57056602D01*
X29569995Y-57027594D01*
X29569709Y-57027025D01*
X29567033Y-57020892D01*
X29556314Y-56996323D01*
X29502435Y-56910575D01*
X29451816Y-56822899D01*
X29437392Y-56804812D01*
X29434955Y-56796354D01*
X29438250Y-56789511D01*
X30625326Y-55602435D01*
X30633457Y-55599068D01*
X30641589Y-55602436D01*
G37*
%TD.AperFunction*%
%TA.AperFunction,NonConductor*%
G36*
X40657200Y-55346825D02*
G01*
X40660073Y-55351619D01*
X40704766Y-55498948D01*
X40704769Y-55498958D01*
X40773266Y-55627105D01*
X40802315Y-55681451D01*
X40933590Y-55841410D01*
X41093549Y-55972685D01*
X41093551Y-55972686D01*
X41186092Y-56022151D01*
X41276045Y-56070232D01*
X41474065Y-56130300D01*
X41628391Y-56145500D01*
X42631608Y-56145499D01*
X42706874Y-56138085D01*
X42715294Y-56140640D01*
X42719444Y-56148403D01*
X42719499Y-56149530D01*
X42719500Y-57457972D01*
X42716132Y-57466104D01*
X41976105Y-58206132D01*
X41967973Y-58209500D01*
X41738631Y-58209500D01*
X41478820Y-58248661D01*
X41227762Y-58326103D01*
X41227757Y-58326104D01*
X41057995Y-58407858D01*
X40991043Y-58440101D01*
X40991040Y-58440102D01*
X40991040Y-58440103D01*
X40773953Y-58588110D01*
X40607821Y-58742257D01*
X40599569Y-58745319D01*
X40592178Y-58742257D01*
X40552676Y-58705605D01*
X40534178Y-58688441D01*
X40530508Y-58680441D01*
X40530500Y-58680011D01*
X40530500Y-55462026D01*
X40533867Y-55453895D01*
X40640937Y-55346824D01*
X40649068Y-55343457D01*
X40657200Y-55346825D01*
G37*
%TD.AperFunction*%
%TA.AperFunction,NonConductor*%
G36*
X15245405Y-58115416D02*
G01*
X15248269Y-58120200D01*
X15304766Y-58306447D01*
X15304769Y-58306457D01*
X15379884Y-58446985D01*
X15402315Y-58488950D01*
X15448481Y-58545205D01*
X15451036Y-58553626D01*
X15448481Y-58559794D01*
X15402314Y-58616049D01*
X15304769Y-58798542D01*
X15304766Y-58798552D01*
X15247272Y-58988086D01*
X15241688Y-58994890D01*
X15232929Y-58995753D01*
X15226125Y-58990169D01*
X15224767Y-58984735D01*
X15224790Y-58965047D01*
X15225764Y-58123524D01*
X15229142Y-58115397D01*
X15237277Y-58112038D01*
X15245405Y-58115416D01*
G37*
%TD.AperFunction*%
%TA.AperFunction,NonConductor*%
G36*
X20118142Y-60662664D02*
G01*
X20119500Y-60668085D01*
X20119500Y-61086815D01*
X20116132Y-61094947D01*
X20108000Y-61098315D01*
X20099868Y-61094947D01*
X20093868Y-61088947D01*
X20090500Y-61080815D01*
X20090500Y-60671292D01*
X20093868Y-60663160D01*
X20096575Y-60661152D01*
X20102580Y-60657942D01*
X20111338Y-60657080D01*
X20118142Y-60662664D01*
G37*
%TD.AperFunction*%
%TA.AperFunction,NonConductor*%
G36*
X17893003Y-60513734D02*
G01*
X17893154Y-60513551D01*
X17893587Y-60513906D01*
X17893590Y-60513910D01*
X18053550Y-60645185D01*
X18083422Y-60661151D01*
X18089005Y-60667953D01*
X18089500Y-60671292D01*
X18089500Y-61487284D01*
X18087242Y-61576362D01*
X18098442Y-61638855D01*
X18098503Y-61639288D01*
X18104925Y-61702436D01*
X18116277Y-61738619D01*
X18116450Y-61739326D01*
X18123141Y-61776651D01*
X18146688Y-61835603D01*
X18146834Y-61836015D01*
X18160075Y-61878213D01*
X18165841Y-61896588D01*
X18165842Y-61896589D01*
X18184242Y-61929741D01*
X18184554Y-61930399D01*
X18198618Y-61965606D01*
X18198620Y-61965610D01*
X18198623Y-61965617D01*
X18198627Y-61965623D01*
X18233551Y-62018615D01*
X18233778Y-62018989D01*
X18264591Y-62074502D01*
X18277706Y-62089778D01*
X18289295Y-62103279D01*
X18289726Y-62103849D01*
X18310598Y-62135519D01*
X18322654Y-62147575D01*
X18355487Y-62180409D01*
X18355784Y-62180729D01*
X18369704Y-62196943D01*
X18397134Y-62228895D01*
X18426199Y-62251393D01*
X18427115Y-62252102D01*
X18427662Y-62252584D01*
X20116132Y-63941053D01*
X20119500Y-63949185D01*
X20119500Y-65136325D01*
X20115714Y-65237511D01*
X20127049Y-65338118D01*
X20133969Y-65430466D01*
X20134617Y-65439103D01*
X20140670Y-65465623D01*
X20142070Y-65471757D01*
X20142178Y-65472393D01*
X20145927Y-65505673D01*
X20145929Y-65505680D01*
X20172082Y-65603279D01*
X20172131Y-65603463D01*
X20194666Y-65702195D01*
X20194668Y-65702200D01*
X20206903Y-65733376D01*
X20207105Y-65733989D01*
X20215773Y-65766336D01*
X20215773Y-65766338D01*
X20255269Y-65856864D01*
X20255434Y-65865664D01*
X20249328Y-65872003D01*
X20240528Y-65872168D01*
X20236597Y-65869595D01*
X20223866Y-65856864D01*
X20114915Y-65747913D01*
X19903011Y-65589284D01*
X19773591Y-65518615D01*
X19670702Y-65462433D01*
X19670699Y-65462431D01*
X19670689Y-65462426D01*
X19422678Y-65369923D01*
X19422674Y-65369922D01*
X19422667Y-65369920D01*
X19164032Y-65313658D01*
X19164027Y-65313657D01*
X19164026Y-65313657D01*
X18900000Y-65294773D01*
X18635974Y-65313657D01*
X18635970Y-65313657D01*
X18635967Y-65313658D01*
X18635960Y-65313659D01*
X18512835Y-65340443D01*
X18504174Y-65338880D01*
X18502259Y-65337338D01*
X17753868Y-64588947D01*
X17750500Y-64580815D01*
X17750500Y-60620602D01*
X17753868Y-60612470D01*
X17756573Y-60610463D01*
X17766450Y-60605185D01*
X17878356Y-60513344D01*
X17886779Y-60510790D01*
X17893003Y-60513734D01*
G37*
%TD.AperFunction*%
%TA.AperFunction,NonConductor*%
G36*
X39006114Y-51290480D02*
G01*
X39030475Y-51305787D01*
X39030478Y-51305789D01*
X39200745Y-51365368D01*
X39335046Y-51380500D01*
X41045342Y-51380500D01*
X41053474Y-51383868D01*
X41056842Y-51392000D01*
X41053474Y-51400132D01*
X41052638Y-51400890D01*
X40933590Y-51498590D01*
X40802313Y-51658551D01*
X40704769Y-51841041D01*
X40704766Y-51841051D01*
X40644701Y-52039060D01*
X40644700Y-52039062D01*
X40644700Y-52039065D01*
X40629500Y-52193391D01*
X40629500Y-52193397D01*
X40629500Y-52456612D01*
X40626132Y-52464744D01*
X40618000Y-52468112D01*
X40617469Y-52468100D01*
X40567012Y-52465768D01*
X40564319Y-52465644D01*
X40564318Y-52465644D01*
X40481756Y-52477160D01*
X40481496Y-52477190D01*
X40461311Y-52479060D01*
X40398460Y-52484885D01*
X40371993Y-52492415D01*
X40371213Y-52492580D01*
X40343966Y-52496382D01*
X40343959Y-52496384D01*
X40264928Y-52522872D01*
X40264674Y-52522951D01*
X40184474Y-52545770D01*
X40184473Y-52545770D01*
X40184472Y-52545771D01*
X40168096Y-52553924D01*
X40159839Y-52558036D01*
X40159103Y-52558341D01*
X40133019Y-52567084D01*
X40133018Y-52567084D01*
X40060165Y-52607660D01*
X40059930Y-52607784D01*
X39985309Y-52644942D01*
X39985306Y-52644944D01*
X39963359Y-52661518D01*
X39962692Y-52661953D01*
X39938653Y-52675343D01*
X39938640Y-52675352D01*
X39874493Y-52728619D01*
X39874284Y-52728784D01*
X39807771Y-52779012D01*
X39807766Y-52779017D01*
X39751590Y-52840636D01*
X39751407Y-52840828D01*
X38500828Y-54091407D01*
X38500636Y-54091590D01*
X38439017Y-54147766D01*
X38439012Y-54147771D01*
X38388780Y-54214290D01*
X38388615Y-54214499D01*
X38335347Y-54278647D01*
X38335344Y-54278651D01*
X38321958Y-54302684D01*
X38321523Y-54303352D01*
X38304941Y-54325311D01*
X38267788Y-54399923D01*
X38267664Y-54400158D01*
X38227083Y-54473018D01*
X38227083Y-54473019D01*
X38218338Y-54499109D01*
X38218033Y-54499845D01*
X38211281Y-54513407D01*
X38205770Y-54524475D01*
X38182951Y-54604672D01*
X38182872Y-54604926D01*
X38156384Y-54683959D01*
X38156382Y-54683966D01*
X38152580Y-54711213D01*
X38152415Y-54711993D01*
X38144885Y-54738460D01*
X38144885Y-54738464D01*
X38138210Y-54810500D01*
X38137191Y-54821492D01*
X38137160Y-54821756D01*
X38125644Y-54904318D01*
X38129494Y-54987597D01*
X38129500Y-54987862D01*
X38129500Y-58286952D01*
X38126132Y-58295084D01*
X38118000Y-58298452D01*
X38111882Y-58296689D01*
X38092028Y-58284214D01*
X38092025Y-58284212D01*
X38040355Y-58266132D01*
X37921755Y-58224632D01*
X37787454Y-58209500D01*
X35792546Y-58209500D01*
X35658245Y-58224632D01*
X35658242Y-58224632D01*
X35658242Y-58224633D01*
X35487974Y-58284212D01*
X35487971Y-58284214D01*
X35335244Y-58380179D01*
X35335240Y-58380182D01*
X35335238Y-58380184D01*
X35207684Y-58507738D01*
X35207682Y-58507740D01*
X35207679Y-58507744D01*
X35111714Y-58660471D01*
X35111712Y-58660474D01*
X35072605Y-58772236D01*
X35052132Y-58830745D01*
X35039312Y-58944526D01*
X35037000Y-58965047D01*
X35037000Y-59597719D01*
X35036712Y-59600278D01*
X35004616Y-59740903D01*
X34990189Y-59933434D01*
X34989500Y-59942624D01*
X34989500Y-62856325D01*
X34985714Y-62957512D01*
X34997049Y-63058118D01*
X35004617Y-63159103D01*
X35012070Y-63191757D01*
X35012178Y-63192393D01*
X35015927Y-63225673D01*
X35015929Y-63225680D01*
X35042130Y-63323463D01*
X35042131Y-63323463D01*
X35064666Y-63422195D01*
X35064668Y-63422200D01*
X35076903Y-63453376D01*
X35077105Y-63453989D01*
X35085773Y-63486336D01*
X35085773Y-63486338D01*
X35126263Y-63579142D01*
X35163254Y-63673392D01*
X35163255Y-63673395D01*
X35179999Y-63702397D01*
X35180289Y-63702972D01*
X35193686Y-63733678D01*
X35247564Y-63819424D01*
X35298183Y-63907100D01*
X35319066Y-63933286D01*
X35319429Y-63933797D01*
X35329099Y-63949185D01*
X35337256Y-63962168D01*
X35403315Y-64038931D01*
X35466433Y-64118079D01*
X35540659Y-64186951D01*
X36776042Y-65422334D01*
X36779410Y-65430466D01*
X36776042Y-65438598D01*
X36767910Y-65441966D01*
X36763891Y-65441241D01*
X36695673Y-65415797D01*
X36572678Y-65369923D01*
X36572674Y-65369922D01*
X36572667Y-65369920D01*
X36314032Y-65313658D01*
X36314027Y-65313657D01*
X36314026Y-65313657D01*
X36050000Y-65294773D01*
X35785974Y-65313657D01*
X35785967Y-65313658D01*
X35527332Y-65369920D01*
X35527325Y-65369922D01*
X35279315Y-65462424D01*
X35279297Y-65462433D01*
X35046997Y-65589279D01*
X35046985Y-65589287D01*
X34835087Y-65747911D01*
X34647911Y-65935087D01*
X34489287Y-66146985D01*
X34489282Y-66146991D01*
X34469104Y-66183943D01*
X34467143Y-66186563D01*
X32777664Y-67876042D01*
X32769532Y-67879410D01*
X32761400Y-67876042D01*
X32758032Y-67867910D01*
X32758756Y-67863895D01*
X32830077Y-67672678D01*
X32886343Y-67414026D01*
X32905227Y-67150000D01*
X32886343Y-66885974D01*
X32830077Y-66627322D01*
X32737574Y-66379311D01*
X32610716Y-66146989D01*
X32452087Y-65935085D01*
X32264915Y-65747913D01*
X32053011Y-65589284D01*
X31923591Y-65518615D01*
X31820702Y-65462433D01*
X31820699Y-65462431D01*
X31820689Y-65462426D01*
X31572678Y-65369923D01*
X31572674Y-65369922D01*
X31572667Y-65369920D01*
X31314032Y-65313658D01*
X31314027Y-65313657D01*
X31314026Y-65313657D01*
X31050000Y-65294773D01*
X30785974Y-65313657D01*
X30785967Y-65313658D01*
X30622415Y-65349237D01*
X30619971Y-65349500D01*
X29520555Y-65349500D01*
X29512423Y-65346132D01*
X27223868Y-63057576D01*
X27220500Y-63049444D01*
X27220500Y-62856325D01*
X27220500Y-61730578D01*
X27223867Y-61722449D01*
X27231999Y-61719081D01*
X27236989Y-61720220D01*
X27300354Y-61750736D01*
X27300355Y-61750736D01*
X27300359Y-61750738D01*
X27558228Y-61830280D01*
X27825071Y-61870500D01*
X27825072Y-61870500D01*
X28094928Y-61870500D01*
X28094929Y-61870500D01*
X28361772Y-61830280D01*
X28619641Y-61750738D01*
X28862774Y-61633651D01*
X29085741Y-61481635D01*
X29231500Y-61346389D01*
X29239751Y-61343328D01*
X29247141Y-61346389D01*
X29330028Y-61423296D01*
X29403953Y-61491889D01*
X29403955Y-61491890D01*
X29403958Y-61491893D01*
X29621042Y-61639899D01*
X29808576Y-61730210D01*
X29857757Y-61753895D01*
X29857758Y-61753895D01*
X29857762Y-61753897D01*
X30074339Y-61820702D01*
X30108820Y-61831338D01*
X30108821Y-61831338D01*
X30108827Y-61831340D01*
X30368631Y-61870500D01*
X30631369Y-61870500D01*
X30891173Y-61831340D01*
X31142238Y-61753897D01*
X31378957Y-61639899D01*
X31596042Y-61491893D01*
X31788643Y-61313186D01*
X31952458Y-61107769D01*
X32083827Y-60880231D01*
X32179816Y-60635655D01*
X32238281Y-60379504D01*
X32253000Y-60183088D01*
X32252999Y-60019525D01*
X32256366Y-60011395D01*
X34839212Y-57428550D01*
X34839354Y-57428415D01*
X34900981Y-57372236D01*
X34951229Y-57305694D01*
X34951349Y-57305542D01*
X35004653Y-57241353D01*
X35018048Y-57217301D01*
X35018480Y-57216640D01*
X35019120Y-57215791D01*
X35035058Y-57194689D01*
X35072220Y-57120055D01*
X35072331Y-57119846D01*
X35073889Y-57117047D01*
X35112915Y-57046985D01*
X35121662Y-57020883D01*
X35121957Y-57020170D01*
X35134229Y-56995528D01*
X35157056Y-56915296D01*
X35157114Y-56915109D01*
X35183619Y-56836032D01*
X35187420Y-56808776D01*
X35187585Y-56807999D01*
X35190778Y-56796778D01*
X35195115Y-56781536D01*
X35202810Y-56698478D01*
X35202832Y-56698289D01*
X35214357Y-56615681D01*
X35210506Y-56532379D01*
X35210500Y-56532114D01*
X35210500Y-56096189D01*
X35213868Y-56088057D01*
X35222000Y-56084689D01*
X35225337Y-56085183D01*
X35374065Y-56130300D01*
X35528391Y-56145500D01*
X36531608Y-56145499D01*
X36685935Y-56130300D01*
X36883955Y-56070232D01*
X37066451Y-55972685D01*
X37226410Y-55841410D01*
X37357685Y-55681451D01*
X37455232Y-55498955D01*
X37515300Y-55300935D01*
X37530500Y-55146609D01*
X37530499Y-54502025D01*
X37533866Y-54493895D01*
X38559212Y-53468550D01*
X38559354Y-53468415D01*
X38620981Y-53412236D01*
X38671229Y-53345694D01*
X38671349Y-53345542D01*
X38724653Y-53281353D01*
X38738048Y-53257301D01*
X38738480Y-53256640D01*
X38739120Y-53255791D01*
X38755058Y-53234689D01*
X38792220Y-53160055D01*
X38792331Y-53159846D01*
X38802297Y-53141954D01*
X38832915Y-53086985D01*
X38841662Y-53060883D01*
X38841957Y-53060170D01*
X38854229Y-53035528D01*
X38877056Y-52955296D01*
X38877114Y-52955109D01*
X38903619Y-52876032D01*
X38907420Y-52848776D01*
X38907585Y-52847999D01*
X38915115Y-52821536D01*
X38922810Y-52738478D01*
X38922832Y-52738289D01*
X38934357Y-52655681D01*
X38930506Y-52572379D01*
X38930500Y-52572114D01*
X38930500Y-51327602D01*
X38933868Y-51319470D01*
X38938198Y-51316749D01*
X38969522Y-51305789D01*
X38993882Y-51290481D01*
X39002558Y-51289007D01*
X39006114Y-51290480D01*
G37*
%TD.AperFunction*%
%TA.AperFunction,NonConductor*%
G36*
X25700031Y-66626696D02*
G01*
X25701946Y-66628238D01*
X27473035Y-68399326D01*
X27501661Y-68430178D01*
X27504723Y-68438430D01*
X27501053Y-68446430D01*
X27493231Y-68449500D01*
X25245266Y-68449500D01*
X25237134Y-68446132D01*
X25233766Y-68438000D01*
X25237134Y-68429868D01*
X25237134Y-68429867D01*
X25302087Y-68364915D01*
X25460716Y-68153011D01*
X25587574Y-67920689D01*
X25680077Y-67672678D01*
X25736343Y-67414026D01*
X25755227Y-67150000D01*
X25736343Y-66885974D01*
X25682576Y-66638814D01*
X25684140Y-66630153D01*
X25691370Y-66625133D01*
X25700031Y-66626696D01*
G37*
%TD.AperFunction*%
%TA.AperFunction,NonConductor*%
G36*
X15243300Y-59933477D02*
G01*
X15246164Y-59938261D01*
X15304766Y-60131447D01*
X15304769Y-60131457D01*
X15402313Y-60313947D01*
X15402315Y-60313950D01*
X15533590Y-60473910D01*
X15693550Y-60605185D01*
X15743422Y-60631842D01*
X15749005Y-60638645D01*
X15749500Y-60641983D01*
X15749500Y-64987284D01*
X15747242Y-65076362D01*
X15758442Y-65138855D01*
X15758503Y-65139288D01*
X15764925Y-65202436D01*
X15776277Y-65238619D01*
X15776450Y-65239326D01*
X15783141Y-65276651D01*
X15806688Y-65335603D01*
X15806834Y-65336015D01*
X15820075Y-65378213D01*
X15825841Y-65396588D01*
X15825842Y-65396589D01*
X15844242Y-65429741D01*
X15844554Y-65430399D01*
X15858618Y-65465606D01*
X15858620Y-65465610D01*
X15858623Y-65465617D01*
X15858627Y-65465623D01*
X15893551Y-65518615D01*
X15893778Y-65518989D01*
X15924591Y-65574502D01*
X15937277Y-65589279D01*
X15949295Y-65603279D01*
X15949726Y-65603849D01*
X15970598Y-65635519D01*
X15993041Y-65657962D01*
X16015487Y-65680409D01*
X16015784Y-65680729D01*
X16029704Y-65696943D01*
X16057134Y-65728895D01*
X16081703Y-65747913D01*
X16087116Y-65752103D01*
X16087663Y-65752585D01*
X17087338Y-66752259D01*
X17090706Y-66760391D01*
X17090443Y-66762835D01*
X17063659Y-66885960D01*
X17063658Y-66885967D01*
X17044773Y-67150000D01*
X17063657Y-67414025D01*
X17063658Y-67414032D01*
X17119920Y-67672667D01*
X17119922Y-67672674D01*
X17119923Y-67672678D01*
X17212426Y-67920689D01*
X17339284Y-68153011D01*
X17497913Y-68364915D01*
X17685085Y-68552087D01*
X17896989Y-68710716D01*
X17933939Y-68730892D01*
X17933941Y-68730893D01*
X17936562Y-68732854D01*
X20703048Y-71499340D01*
X20771920Y-71573566D01*
X20851068Y-71636684D01*
X20927828Y-71702741D01*
X20956196Y-71720566D01*
X20956712Y-71720932D01*
X20959818Y-71723409D01*
X20964076Y-71731112D01*
X20961639Y-71739570D01*
X20953936Y-71743828D01*
X20952640Y-71743900D01*
X15221505Y-71740007D01*
X15213376Y-71736633D01*
X15210013Y-71728499D01*
X15210013Y-71728494D01*
X15210022Y-71720932D01*
X15223659Y-59941584D01*
X15227037Y-59933458D01*
X15235172Y-59930099D01*
X15243300Y-59933477D01*
G37*
%TD.AperFunction*%
%TA.AperFunction,NonConductor*%
G36*
X44646132Y-58947894D02*
G01*
X44649500Y-58956026D01*
X44649500Y-71738000D01*
X44646132Y-71746132D01*
X44638000Y-71749500D01*
X33990330Y-71749500D01*
X33982198Y-71746132D01*
X33978830Y-71738000D01*
X33982198Y-71729868D01*
X33983159Y-71729010D01*
X33985242Y-71727347D01*
X33993307Y-71720916D01*
X33993793Y-71720572D01*
X34022172Y-71702741D01*
X34098931Y-71636684D01*
X34178085Y-71573561D01*
X34246951Y-71499340D01*
X37013439Y-68732851D01*
X37016048Y-68730898D01*
X37053011Y-68710716D01*
X37264915Y-68552087D01*
X37452087Y-68364915D01*
X37610716Y-68153011D01*
X37737574Y-67920689D01*
X37830077Y-67672678D01*
X37886343Y-67414026D01*
X37905227Y-67150000D01*
X37886343Y-66885974D01*
X37830077Y-66627322D01*
X37758757Y-66436105D01*
X37759071Y-66427311D01*
X37765513Y-66421313D01*
X37774309Y-66421627D01*
X37777664Y-66423956D01*
X39467144Y-68113436D01*
X39469105Y-68116057D01*
X39489284Y-68153011D01*
X39647913Y-68364915D01*
X39835085Y-68552087D01*
X40046989Y-68710716D01*
X40279311Y-68837574D01*
X40527322Y-68930077D01*
X40785974Y-68986343D01*
X41050000Y-69005227D01*
X41314026Y-68986343D01*
X41572678Y-68930077D01*
X41820689Y-68837574D01*
X42053011Y-68710716D01*
X42264915Y-68552087D01*
X42452087Y-68364915D01*
X42610716Y-68153011D01*
X42737574Y-67920689D01*
X42830077Y-67672678D01*
X42886343Y-67414026D01*
X42905227Y-67150000D01*
X42886343Y-66885974D01*
X42830077Y-66627322D01*
X42737574Y-66379311D01*
X42610716Y-66146989D01*
X42452087Y-65935085D01*
X42264915Y-65747913D01*
X42053011Y-65589284D01*
X42053002Y-65589279D01*
X42016057Y-65569105D01*
X42013436Y-65567144D01*
X38593868Y-62147575D01*
X38590500Y-62139443D01*
X38590500Y-61665360D01*
X38593868Y-61657228D01*
X38602000Y-61653860D01*
X38606990Y-61654999D01*
X38687757Y-61693895D01*
X38687758Y-61693895D01*
X38687762Y-61693897D01*
X38882275Y-61753896D01*
X38938820Y-61771338D01*
X38938821Y-61771338D01*
X38938827Y-61771340D01*
X39198631Y-61810500D01*
X39461369Y-61810500D01*
X39721173Y-61771340D01*
X39972238Y-61693897D01*
X40208957Y-61579899D01*
X40426042Y-61431893D01*
X40592179Y-61277740D01*
X40600430Y-61274679D01*
X40607820Y-61277740D01*
X40696714Y-61360221D01*
X40773953Y-61431889D01*
X40773955Y-61431890D01*
X40773958Y-61431893D01*
X40991042Y-61579899D01*
X41151618Y-61657228D01*
X41227757Y-61693895D01*
X41227758Y-61693895D01*
X41227762Y-61693897D01*
X41422275Y-61753896D01*
X41478820Y-61771338D01*
X41478821Y-61771338D01*
X41478827Y-61771340D01*
X41738631Y-61810500D01*
X42001369Y-61810500D01*
X42261173Y-61771340D01*
X42512238Y-61693897D01*
X42748957Y-61579899D01*
X42966042Y-61431893D01*
X43158643Y-61253186D01*
X43322458Y-61047769D01*
X43453827Y-60820231D01*
X43549816Y-60575655D01*
X43608281Y-60319504D01*
X43623000Y-60123088D01*
X43623000Y-59959527D01*
X43626368Y-59951395D01*
X43980044Y-59597719D01*
X44629869Y-58947893D01*
X44638000Y-58944526D01*
X44646132Y-58947894D01*
G37*
%TD.AperFunction*%
%TA.AperFunction,Conductor*%
%TO.N,GND*%
G36*
X44626632Y-15003868D02*
G01*
X44630000Y-15012000D01*
X44630000Y-46662924D01*
X44626632Y-46671056D01*
X44618500Y-46674424D01*
X44618474Y-46674424D01*
X28440822Y-46637148D01*
X28432698Y-46633761D01*
X28429348Y-46625693D01*
X28416412Y-43162043D01*
X28419751Y-43153899D01*
X28427870Y-43150500D01*
X29844672Y-43150500D01*
X29844674Y-43150500D01*
X29917740Y-43135966D01*
X30000601Y-43080601D01*
X30055966Y-42997740D01*
X30070500Y-42924674D01*
X30070500Y-42924622D01*
X30330000Y-42924622D01*
X30344504Y-42997542D01*
X30344506Y-42997546D01*
X30399758Y-43080238D01*
X30399761Y-43080241D01*
X30482453Y-43135493D01*
X30482457Y-43135495D01*
X30555378Y-43150000D01*
X31344999Y-43150000D01*
X31345000Y-43149999D01*
X31594999Y-43149999D01*
X31595001Y-43150000D01*
X32384622Y-43150000D01*
X32457542Y-43135495D01*
X32457546Y-43135493D01*
X32540238Y-43080241D01*
X32540241Y-43080238D01*
X32595493Y-42997546D01*
X32595495Y-42997542D01*
X32609990Y-42924672D01*
X32869500Y-42924672D01*
X32883994Y-42997542D01*
X32884034Y-42997740D01*
X32884035Y-42997741D01*
X32939397Y-43080599D01*
X32939399Y-43080601D01*
X33022260Y-43135966D01*
X33095326Y-43150500D01*
X33095328Y-43150500D01*
X34924672Y-43150500D01*
X34924674Y-43150500D01*
X34997740Y-43135966D01*
X35080601Y-43080601D01*
X35135966Y-42997740D01*
X35138565Y-42984674D01*
X36589500Y-42984674D01*
X36592099Y-42997740D01*
X36603994Y-43057542D01*
X36604034Y-43057740D01*
X36604035Y-43057741D01*
X36659397Y-43140599D01*
X36659399Y-43140601D01*
X36742260Y-43195966D01*
X36815326Y-43210500D01*
X36815328Y-43210500D01*
X38644672Y-43210500D01*
X38644674Y-43210500D01*
X38717740Y-43195966D01*
X38800601Y-43140601D01*
X38855966Y-43057740D01*
X38870500Y-42984674D01*
X38870500Y-42984622D01*
X39130000Y-42984622D01*
X39144504Y-43057542D01*
X39144506Y-43057546D01*
X39199758Y-43140238D01*
X39199761Y-43140241D01*
X39282453Y-43195493D01*
X39282457Y-43195495D01*
X39355378Y-43210000D01*
X40144999Y-43210000D01*
X40145000Y-43209999D01*
X40395000Y-43209999D01*
X40395001Y-43210000D01*
X41184622Y-43210000D01*
X41257542Y-43195495D01*
X41257546Y-43195493D01*
X41340238Y-43140241D01*
X41340241Y-43140238D01*
X41395493Y-43057546D01*
X41395495Y-43057542D01*
X41409990Y-42984674D01*
X41669500Y-42984674D01*
X41672099Y-42997740D01*
X41683994Y-43057542D01*
X41684034Y-43057740D01*
X41684035Y-43057741D01*
X41739397Y-43140599D01*
X41739399Y-43140601D01*
X41822260Y-43195966D01*
X41895326Y-43210500D01*
X41895328Y-43210500D01*
X43724672Y-43210500D01*
X43724674Y-43210500D01*
X43797740Y-43195966D01*
X43880601Y-43140601D01*
X43935966Y-43057740D01*
X43950500Y-42984674D01*
X43950500Y-40935326D01*
X43935966Y-40862260D01*
X43880601Y-40779399D01*
X43880599Y-40779397D01*
X43797741Y-40724035D01*
X43797742Y-40724035D01*
X43797740Y-40724034D01*
X43797738Y-40724033D01*
X43797737Y-40724033D01*
X43760957Y-40716717D01*
X43724674Y-40709500D01*
X41895326Y-40709500D01*
X41866259Y-40715281D01*
X41822262Y-40724033D01*
X41822258Y-40724035D01*
X41739400Y-40779397D01*
X41739397Y-40779400D01*
X41684035Y-40862258D01*
X41684033Y-40862262D01*
X41673108Y-40917184D01*
X41669500Y-40935326D01*
X41669500Y-42984674D01*
X41409990Y-42984674D01*
X41410000Y-42984622D01*
X41410000Y-42085001D01*
X41409999Y-42085000D01*
X40395001Y-42085000D01*
X40395000Y-42085001D01*
X40395000Y-43209999D01*
X40145000Y-43209999D01*
X40145000Y-42085001D01*
X40144999Y-42085000D01*
X39130001Y-42085000D01*
X39130000Y-42085001D01*
X39130000Y-42984622D01*
X38870500Y-42984622D01*
X38870500Y-41834999D01*
X39130000Y-41834999D01*
X39130001Y-41835000D01*
X40144999Y-41835000D01*
X40145000Y-41834999D01*
X40395000Y-41834999D01*
X40395001Y-41835000D01*
X41409999Y-41835000D01*
X41410000Y-41834999D01*
X41410000Y-40935377D01*
X41395495Y-40862457D01*
X41395493Y-40862453D01*
X41340241Y-40779761D01*
X41340238Y-40779758D01*
X41257546Y-40724506D01*
X41257542Y-40724504D01*
X41184622Y-40710000D01*
X40395001Y-40710000D01*
X40395000Y-40710001D01*
X40395000Y-41834999D01*
X40145000Y-41834999D01*
X40145000Y-41834998D01*
X40145000Y-40710001D01*
X40144999Y-40710000D01*
X39355378Y-40710000D01*
X39282457Y-40724504D01*
X39282453Y-40724506D01*
X39199761Y-40779758D01*
X39199758Y-40779761D01*
X39144506Y-40862453D01*
X39144504Y-40862457D01*
X39130000Y-40935377D01*
X39130000Y-41834999D01*
X38870500Y-41834999D01*
X38870500Y-41061366D01*
X38873868Y-41053235D01*
X39323235Y-40603868D01*
X39331367Y-40600500D01*
X41354373Y-40600500D01*
X41355017Y-40600536D01*
X41359776Y-40601072D01*
X41397035Y-40605270D01*
X41408467Y-40603106D01*
X41455479Y-40594212D01*
X41488257Y-40589271D01*
X41514287Y-40585348D01*
X41515524Y-40584751D01*
X41520661Y-40582278D01*
X41523514Y-40581338D01*
X41530472Y-40580023D01*
X41583072Y-40552222D01*
X41636642Y-40526425D01*
X41641833Y-40521607D01*
X41644272Y-40519877D01*
X41650538Y-40516566D01*
X41692599Y-40474504D01*
X41736194Y-40434055D01*
X41739732Y-40427925D01*
X41741556Y-40425546D01*
X42470435Y-39696666D01*
X42470907Y-39696244D01*
X42503970Y-39669879D01*
X42537480Y-39620728D01*
X42552688Y-39600122D01*
X42567414Y-39580170D01*
X42574953Y-39575627D01*
X42576667Y-39575499D01*
X42667873Y-39575499D01*
X42687742Y-39573363D01*
X42727483Y-39569091D01*
X42862331Y-39518796D01*
X42977546Y-39432546D01*
X43063796Y-39317331D01*
X43114091Y-39182483D01*
X43120500Y-39122873D01*
X43120499Y-38502128D01*
X43114091Y-38442517D01*
X43063796Y-38307669D01*
X42977546Y-38192454D01*
X42862331Y-38106204D01*
X42782117Y-38076286D01*
X42727481Y-38055908D01*
X42667873Y-38049500D01*
X41672127Y-38049500D01*
X41612518Y-38055908D01*
X41612517Y-38055909D01*
X41477669Y-38106204D01*
X41477666Y-38106206D01*
X41362456Y-38192452D01*
X41362452Y-38192456D01*
X41276206Y-38307666D01*
X41276204Y-38307669D01*
X41225908Y-38442518D01*
X41219500Y-38502126D01*
X41219500Y-39122872D01*
X41225908Y-39182481D01*
X41225909Y-39182483D01*
X41276204Y-39317331D01*
X41362454Y-39432546D01*
X41380597Y-39446128D01*
X41407814Y-39466503D01*
X41412305Y-39474073D01*
X41410128Y-39482601D01*
X41409054Y-39483841D01*
X41196765Y-39696132D01*
X41188633Y-39699500D01*
X39165627Y-39699500D01*
X39164983Y-39699464D01*
X39135408Y-39696132D01*
X39122965Y-39694730D01*
X39122964Y-39694730D01*
X39064520Y-39705787D01*
X39005712Y-39714652D01*
X39005713Y-39714652D01*
X38999333Y-39717723D01*
X38996486Y-39718660D01*
X38989527Y-39719976D01*
X38954496Y-39738492D01*
X38936936Y-39747773D01*
X38909080Y-39761187D01*
X38883355Y-39773576D01*
X38878166Y-39778391D01*
X38875720Y-39780127D01*
X38869462Y-39783435D01*
X38827413Y-39825483D01*
X38783806Y-39865944D01*
X38783805Y-39865945D01*
X38780264Y-39872077D01*
X38778438Y-39874457D01*
X37946765Y-40706132D01*
X37938633Y-40709500D01*
X36815326Y-40709500D01*
X36786259Y-40715281D01*
X36742262Y-40724033D01*
X36742258Y-40724035D01*
X36659400Y-40779397D01*
X36659397Y-40779400D01*
X36604035Y-40862258D01*
X36604033Y-40862262D01*
X36593108Y-40917184D01*
X36589500Y-40935326D01*
X36589500Y-42984674D01*
X35138565Y-42984674D01*
X35150500Y-42924674D01*
X35150500Y-40875326D01*
X35135966Y-40802260D01*
X35090148Y-40733687D01*
X35080602Y-40719400D01*
X35080599Y-40719397D01*
X34997741Y-40664035D01*
X34997742Y-40664035D01*
X34997740Y-40664034D01*
X34997738Y-40664033D01*
X34997737Y-40664033D01*
X34960957Y-40656717D01*
X34924674Y-40649500D01*
X33095326Y-40649500D01*
X33066259Y-40655281D01*
X33022262Y-40664033D01*
X33022258Y-40664035D01*
X32939400Y-40719397D01*
X32939397Y-40719400D01*
X32884035Y-40802258D01*
X32884033Y-40802262D01*
X32869500Y-40875327D01*
X32869500Y-42924672D01*
X32609990Y-42924672D01*
X32610000Y-42924622D01*
X32610000Y-42025001D01*
X32609999Y-42025000D01*
X31595001Y-42025000D01*
X31594999Y-42025001D01*
X31594999Y-43149999D01*
X31345000Y-43149999D01*
X31345000Y-42025001D01*
X31344999Y-42025000D01*
X30330001Y-42025000D01*
X30330000Y-42025001D01*
X30330000Y-42924622D01*
X30070500Y-42924622D01*
X30070500Y-41774999D01*
X30330000Y-41774999D01*
X30330001Y-41775000D01*
X31344999Y-41775000D01*
X31345000Y-41774999D01*
X31345000Y-41774998D01*
X31594999Y-41774998D01*
X31595001Y-41775000D01*
X32609999Y-41775000D01*
X32610000Y-41774999D01*
X32610000Y-40875377D01*
X32595495Y-40802457D01*
X32595493Y-40802453D01*
X32540241Y-40719761D01*
X32540238Y-40719758D01*
X32457546Y-40664506D01*
X32457542Y-40664504D01*
X32384622Y-40650000D01*
X31595001Y-40650000D01*
X31594999Y-40650001D01*
X31594999Y-41774998D01*
X31345000Y-41774998D01*
X31345000Y-40650001D01*
X31344999Y-40650000D01*
X30555378Y-40650000D01*
X30482457Y-40664504D01*
X30482453Y-40664506D01*
X30399761Y-40719758D01*
X30399758Y-40719761D01*
X30344506Y-40802453D01*
X30344504Y-40802457D01*
X30330000Y-40875377D01*
X30330000Y-41774999D01*
X30070500Y-41774999D01*
X30070500Y-40875326D01*
X30055966Y-40802260D01*
X30010148Y-40733687D01*
X30000602Y-40719400D01*
X30000599Y-40719397D01*
X29917741Y-40664035D01*
X29917742Y-40664035D01*
X29917740Y-40664034D01*
X29917738Y-40664033D01*
X29917737Y-40664033D01*
X29880957Y-40656717D01*
X29844674Y-40649500D01*
X29844672Y-40649500D01*
X29795367Y-40649500D01*
X29787235Y-40646132D01*
X29783867Y-40638000D01*
X29787235Y-40629868D01*
X29993235Y-40423868D01*
X30001367Y-40420500D01*
X37696873Y-40420500D01*
X37697517Y-40420536D01*
X37702276Y-40421072D01*
X37739535Y-40425270D01*
X37750967Y-40423106D01*
X37797979Y-40414212D01*
X37829779Y-40409418D01*
X37856787Y-40405348D01*
X37858024Y-40404751D01*
X37863161Y-40402278D01*
X37866014Y-40401338D01*
X37872972Y-40400023D01*
X37925572Y-40372222D01*
X37979142Y-40346425D01*
X37984333Y-40341607D01*
X37986772Y-40339877D01*
X37993038Y-40336566D01*
X38035099Y-40294504D01*
X38078694Y-40254055D01*
X38082232Y-40247925D01*
X38084056Y-40245546D01*
X38740735Y-39588866D01*
X38748867Y-39585499D01*
X39367873Y-39585499D01*
X39387742Y-39583363D01*
X39427483Y-39579091D01*
X39562331Y-39528796D01*
X39677546Y-39442546D01*
X39763796Y-39327331D01*
X39814091Y-39192483D01*
X39820500Y-39132873D01*
X39820499Y-38512128D01*
X39814091Y-38452517D01*
X39763796Y-38317669D01*
X39677546Y-38202454D01*
X39562331Y-38116204D01*
X39468708Y-38081285D01*
X39427481Y-38065908D01*
X39367873Y-38059500D01*
X38372127Y-38059500D01*
X38312518Y-38065908D01*
X38312517Y-38065909D01*
X38177669Y-38116204D01*
X38177666Y-38116206D01*
X38062456Y-38202452D01*
X38062452Y-38202456D01*
X37976206Y-38317666D01*
X37976204Y-38317669D01*
X37925908Y-38452518D01*
X37919500Y-38512126D01*
X37919500Y-39131131D01*
X37916132Y-39139263D01*
X37539265Y-39516132D01*
X37531133Y-39519500D01*
X36642733Y-39519500D01*
X36634601Y-39516132D01*
X36631233Y-39508000D01*
X36634601Y-39499868D01*
X36635837Y-39498797D01*
X36657546Y-39482546D01*
X36743796Y-39367331D01*
X36794091Y-39232483D01*
X36800500Y-39172873D01*
X36800499Y-38552128D01*
X36794091Y-38492517D01*
X36743796Y-38357669D01*
X36657546Y-38242454D01*
X36542331Y-38156204D01*
X36435091Y-38116206D01*
X36407481Y-38105908D01*
X36347873Y-38099500D01*
X35352127Y-38099500D01*
X35292518Y-38105908D01*
X35292517Y-38105909D01*
X35157670Y-38156203D01*
X35157666Y-38156205D01*
X35117399Y-38186347D01*
X35108871Y-38188524D01*
X35102376Y-38185273D01*
X34803868Y-37886765D01*
X34800500Y-37878633D01*
X34800500Y-37015625D01*
X34800536Y-37014981D01*
X34801035Y-37010554D01*
X34805270Y-36972965D01*
X34798839Y-36938973D01*
X34794211Y-36914508D01*
X34788023Y-36873462D01*
X34785348Y-36855713D01*
X34782278Y-36849338D01*
X34781341Y-36846494D01*
X34780024Y-36839528D01*
X34752216Y-36786915D01*
X34726425Y-36733358D01*
X34726423Y-36733356D01*
X34726423Y-36733355D01*
X34721611Y-36728169D01*
X34719874Y-36725721D01*
X34716566Y-36719462D01*
X34674504Y-36677400D01*
X34634055Y-36633806D01*
X34634054Y-36633805D01*
X34627926Y-36630267D01*
X34625544Y-36628440D01*
X33956667Y-35959564D01*
X33956237Y-35959082D01*
X33929881Y-35926032D01*
X33929880Y-35926031D01*
X33907156Y-35910538D01*
X33880728Y-35892519D01*
X33878679Y-35891007D01*
X33832884Y-35857208D01*
X33832883Y-35857207D01*
X33829167Y-35855907D01*
X33826201Y-35854869D01*
X33823526Y-35853518D01*
X33817673Y-35849528D01*
X33817672Y-35849527D01*
X33760822Y-35831992D01*
X33704696Y-35812353D01*
X33697623Y-35812088D01*
X33694667Y-35811586D01*
X33687902Y-35809500D01*
X33687900Y-35809500D01*
X33628426Y-35809500D01*
X33568992Y-35807276D01*
X33568987Y-35807276D01*
X33563925Y-35808632D01*
X33562151Y-35809108D01*
X33559177Y-35809500D01*
X32911367Y-35809500D01*
X32903235Y-35806132D01*
X32553868Y-35456765D01*
X32550500Y-35448633D01*
X32550500Y-35324674D01*
X32999500Y-35324674D01*
X33014034Y-35397740D01*
X33014035Y-35397741D01*
X33069397Y-35480599D01*
X33069399Y-35480601D01*
X33152260Y-35535966D01*
X33225326Y-35550500D01*
X33225328Y-35550500D01*
X34974672Y-35550500D01*
X34974674Y-35550500D01*
X35047740Y-35535966D01*
X35130601Y-35480601D01*
X35185966Y-35397740D01*
X35200500Y-35324674D01*
X35200500Y-33575326D01*
X35185966Y-33502260D01*
X35130601Y-33419399D01*
X35130599Y-33419397D01*
X35061753Y-33373397D01*
X35047740Y-33364034D01*
X35047738Y-33364033D01*
X35047737Y-33364033D01*
X35010957Y-33356717D01*
X34974674Y-33349500D01*
X33225326Y-33349500D01*
X33196260Y-33355281D01*
X33152262Y-33364033D01*
X33152258Y-33364035D01*
X33069400Y-33419397D01*
X33069397Y-33419400D01*
X33014035Y-33502258D01*
X33014033Y-33502262D01*
X33012695Y-33508990D01*
X32999500Y-33575326D01*
X32999500Y-35324674D01*
X32550500Y-35324674D01*
X32550500Y-31605625D01*
X32550536Y-31604981D01*
X32550804Y-31602599D01*
X32555270Y-31562965D01*
X32549783Y-31533967D01*
X32544211Y-31504511D01*
X32536465Y-31453126D01*
X32535348Y-31445713D01*
X32532278Y-31439338D01*
X32531341Y-31436493D01*
X32530024Y-31429529D01*
X32502222Y-31376926D01*
X32476425Y-31323358D01*
X32476423Y-31323356D01*
X32476423Y-31323355D01*
X32471608Y-31318165D01*
X32469872Y-31315718D01*
X32467099Y-31310472D01*
X32466566Y-31309463D01*
X32424516Y-31267413D01*
X32384055Y-31223806D01*
X32384054Y-31223805D01*
X32377924Y-31220266D01*
X32375542Y-31218439D01*
X32133868Y-30976765D01*
X32130500Y-30968633D01*
X32130500Y-30474467D01*
X32133868Y-30466335D01*
X32142000Y-30462967D01*
X32150132Y-30466335D01*
X32153300Y-30472329D01*
X32155787Y-30485479D01*
X32164652Y-30544289D01*
X32167721Y-30550661D01*
X32168659Y-30553511D01*
X32169976Y-30560472D01*
X32197777Y-30613072D01*
X32223576Y-30666644D01*
X32228387Y-30671829D01*
X32230123Y-30674274D01*
X32233434Y-30680538D01*
X32275496Y-30722600D01*
X32315945Y-30766194D01*
X32322073Y-30769732D01*
X32324454Y-30771558D01*
X33063360Y-31510464D01*
X33066728Y-31518596D01*
X33066289Y-31521743D01*
X33013602Y-31706919D01*
X32994785Y-31909999D01*
X33013602Y-32113080D01*
X33069418Y-32309251D01*
X33160327Y-32491822D01*
X33160329Y-32491825D01*
X33283228Y-32654570D01*
X33283231Y-32654573D01*
X33283236Y-32654579D01*
X33433959Y-32791981D01*
X33607363Y-32899348D01*
X33607371Y-32899351D01*
X33607373Y-32899352D01*
X33797538Y-32973022D01*
X33797539Y-32973022D01*
X33797544Y-32973024D01*
X33998024Y-33010500D01*
X34201976Y-33010500D01*
X34402456Y-32973024D01*
X34592637Y-32899348D01*
X34766041Y-32791981D01*
X34916764Y-32654579D01*
X35039673Y-32491821D01*
X35101889Y-32366873D01*
X35108528Y-32361096D01*
X35112183Y-32360500D01*
X36185528Y-32360500D01*
X36193660Y-32363868D01*
X36196962Y-32370771D01*
X36200908Y-32407481D01*
X36200909Y-32407483D01*
X36251204Y-32542331D01*
X36337454Y-32657546D01*
X36452669Y-32743796D01*
X36587517Y-32794091D01*
X36647127Y-32800500D01*
X37267872Y-32800499D01*
X37327483Y-32794091D01*
X37462331Y-32743796D01*
X37577546Y-32657546D01*
X37663796Y-32542331D01*
X37714091Y-32407483D01*
X37720500Y-32347873D01*
X37720499Y-31352128D01*
X37714091Y-31292517D01*
X37663796Y-31157669D01*
X37577546Y-31042454D01*
X37462331Y-30956204D01*
X37366998Y-30920647D01*
X37327481Y-30905908D01*
X37267873Y-30899500D01*
X36647127Y-30899500D01*
X36587518Y-30905908D01*
X36587517Y-30905909D01*
X36452669Y-30956204D01*
X36452666Y-30956206D01*
X36337456Y-31042452D01*
X36337452Y-31042456D01*
X36251206Y-31157666D01*
X36251204Y-31157669D01*
X36200908Y-31292518D01*
X36194500Y-31352126D01*
X36194500Y-31448000D01*
X36191132Y-31456132D01*
X36183000Y-31459500D01*
X35112183Y-31459500D01*
X35104051Y-31456132D01*
X35101889Y-31453126D01*
X35091382Y-31432026D01*
X35039673Y-31328179D01*
X35039672Y-31328178D01*
X35039672Y-31328177D01*
X35039670Y-31328174D01*
X34916771Y-31165429D01*
X34916767Y-31165426D01*
X34916764Y-31165421D01*
X34766041Y-31028019D01*
X34766040Y-31028018D01*
X34650059Y-30956206D01*
X34592637Y-30920652D01*
X34592632Y-30920650D01*
X34592626Y-30920647D01*
X34402461Y-30846977D01*
X34201978Y-30809500D01*
X34201976Y-30809500D01*
X33998024Y-30809500D01*
X33998021Y-30809500D01*
X33797548Y-30846974D01*
X33715540Y-30878743D01*
X33706741Y-30878539D01*
X33703254Y-30876151D01*
X33053867Y-30226764D01*
X33050499Y-30218632D01*
X33050499Y-29965300D01*
X33050499Y-29780148D01*
X33053867Y-29772019D01*
X33061999Y-29768651D01*
X33070131Y-29772019D01*
X33072293Y-29775025D01*
X33160327Y-29951822D01*
X33160329Y-29951825D01*
X33283228Y-30114570D01*
X33283231Y-30114573D01*
X33283236Y-30114579D01*
X33433959Y-30251981D01*
X33607363Y-30359348D01*
X33607371Y-30359351D01*
X33607373Y-30359352D01*
X33797538Y-30433022D01*
X33797539Y-30433022D01*
X33797544Y-30433024D01*
X33998024Y-30470500D01*
X34201976Y-30470500D01*
X34402456Y-30433024D01*
X34592637Y-30359348D01*
X34766041Y-30251981D01*
X34916764Y-30114579D01*
X34978876Y-30032330D01*
X35039670Y-29951825D01*
X35039672Y-29951822D01*
X35039671Y-29951822D01*
X35039673Y-29951821D01*
X35101889Y-29826873D01*
X35108528Y-29821096D01*
X35112183Y-29820500D01*
X36225501Y-29820500D01*
X36233633Y-29823868D01*
X36237001Y-29832000D01*
X36237001Y-29837872D01*
X36243408Y-29897481D01*
X36243409Y-29897483D01*
X36293704Y-30032331D01*
X36379954Y-30147546D01*
X36495169Y-30233796D01*
X36630017Y-30284091D01*
X36689627Y-30290500D01*
X37310372Y-30290499D01*
X37369983Y-30284091D01*
X37504831Y-30233796D01*
X37620046Y-30147546D01*
X37706296Y-30032331D01*
X37756591Y-29897483D01*
X37763000Y-29837873D01*
X37762999Y-28842128D01*
X37756591Y-28782517D01*
X37706296Y-28647669D01*
X37620046Y-28532454D01*
X37504831Y-28446204D01*
X37371844Y-28396603D01*
X37369981Y-28395908D01*
X37310373Y-28389500D01*
X36689627Y-28389500D01*
X36630018Y-28395908D01*
X36630017Y-28395909D01*
X36495169Y-28446204D01*
X36495166Y-28446206D01*
X36379956Y-28532452D01*
X36379952Y-28532456D01*
X36293706Y-28647666D01*
X36293704Y-28647669D01*
X36243408Y-28782518D01*
X36237000Y-28842126D01*
X36237000Y-28908000D01*
X36233632Y-28916132D01*
X36225500Y-28919500D01*
X35112183Y-28919500D01*
X35104051Y-28916132D01*
X35101889Y-28913126D01*
X35091385Y-28892032D01*
X35039673Y-28788179D01*
X35039672Y-28788178D01*
X35039672Y-28788177D01*
X35039670Y-28788174D01*
X34916771Y-28625429D01*
X34916767Y-28625426D01*
X34916764Y-28625421D01*
X34766041Y-28488019D01*
X34766040Y-28488018D01*
X34626093Y-28401367D01*
X34592637Y-28380652D01*
X34592632Y-28380650D01*
X34592626Y-28380647D01*
X34402461Y-28306977D01*
X34402450Y-28306975D01*
X34372633Y-28301401D01*
X34201978Y-28269500D01*
X34201976Y-28269500D01*
X33998024Y-28269500D01*
X33998021Y-28269500D01*
X33797543Y-28306975D01*
X33716154Y-28338505D01*
X33707355Y-28338302D01*
X33701277Y-28331936D01*
X33700500Y-28327782D01*
X33700500Y-27965625D01*
X33700536Y-27964981D01*
X33702115Y-27950964D01*
X33705270Y-27922965D01*
X33695706Y-27872418D01*
X33697503Y-27863803D01*
X33704867Y-27858982D01*
X33711157Y-27859557D01*
X33797544Y-27893024D01*
X33998024Y-27930500D01*
X34201976Y-27930500D01*
X34402456Y-27893024D01*
X34592637Y-27819348D01*
X34766041Y-27711981D01*
X34916764Y-27574579D01*
X35039673Y-27411821D01*
X35101889Y-27286873D01*
X35108528Y-27281096D01*
X35112183Y-27280500D01*
X39098632Y-27280500D01*
X39106764Y-27283868D01*
X40216132Y-28393235D01*
X40219500Y-28401367D01*
X40219500Y-28926904D01*
X40216132Y-28935036D01*
X40208000Y-28938404D01*
X40203745Y-28937350D01*
X40203696Y-28937492D01*
X40202882Y-28937207D01*
X40196201Y-28934869D01*
X40193526Y-28933518D01*
X40187673Y-28929528D01*
X40187672Y-28929527D01*
X40130822Y-28911992D01*
X40074696Y-28892353D01*
X40067623Y-28892088D01*
X40064667Y-28891586D01*
X40057902Y-28889500D01*
X40057900Y-28889500D01*
X39998426Y-28889500D01*
X39938992Y-28887276D01*
X39938987Y-28887276D01*
X39933925Y-28888632D01*
X39932151Y-28889108D01*
X39929177Y-28889500D01*
X39599499Y-28889500D01*
X39591367Y-28886132D01*
X39587999Y-28878000D01*
X39587999Y-28842127D01*
X39581591Y-28782518D01*
X39581591Y-28782517D01*
X39531296Y-28647669D01*
X39445046Y-28532454D01*
X39329831Y-28446204D01*
X39196844Y-28396603D01*
X39194981Y-28395908D01*
X39135373Y-28389500D01*
X38514627Y-28389500D01*
X38455018Y-28395908D01*
X38455017Y-28395909D01*
X38320169Y-28446204D01*
X38320166Y-28446206D01*
X38204956Y-28532452D01*
X38204952Y-28532456D01*
X38118706Y-28647666D01*
X38118704Y-28647669D01*
X38068408Y-28782518D01*
X38062000Y-28842126D01*
X38062000Y-29837872D01*
X38068408Y-29897481D01*
X38068409Y-29897483D01*
X38118704Y-30032331D01*
X38204954Y-30147546D01*
X38320169Y-30233796D01*
X38455017Y-30284091D01*
X38514627Y-30290500D01*
X39135372Y-30290499D01*
X39194983Y-30284091D01*
X39329831Y-30233796D01*
X39445046Y-30147546D01*
X39531296Y-30032331D01*
X39581591Y-29897483D01*
X39588000Y-29837873D01*
X39588000Y-29802000D01*
X39591368Y-29793868D01*
X39599500Y-29790500D01*
X39798632Y-29790500D01*
X39806764Y-29793868D01*
X40216132Y-30203235D01*
X40219500Y-30211367D01*
X40219500Y-31248633D01*
X40216132Y-31256765D01*
X40076765Y-31396132D01*
X40068633Y-31399500D01*
X39556999Y-31399500D01*
X39548867Y-31396132D01*
X39545499Y-31388000D01*
X39545499Y-31352127D01*
X39539091Y-31292518D01*
X39539091Y-31292517D01*
X39488796Y-31157669D01*
X39402546Y-31042454D01*
X39287331Y-30956204D01*
X39191998Y-30920647D01*
X39152481Y-30905908D01*
X39092873Y-30899500D01*
X38472127Y-30899500D01*
X38412518Y-30905908D01*
X38412517Y-30905909D01*
X38277669Y-30956204D01*
X38277666Y-30956206D01*
X38162456Y-31042452D01*
X38162452Y-31042456D01*
X38076206Y-31157666D01*
X38076204Y-31157669D01*
X38025908Y-31292518D01*
X38019500Y-31352126D01*
X38019500Y-32347872D01*
X38025908Y-32407481D01*
X38025909Y-32407483D01*
X38076204Y-32542331D01*
X38162454Y-32657546D01*
X38277665Y-32743793D01*
X38277669Y-32743796D01*
X38277674Y-32743798D01*
X38283793Y-32746080D01*
X38290236Y-32752076D01*
X38290551Y-32760872D01*
X38287908Y-32764987D01*
X35549564Y-35503331D01*
X35549083Y-35503761D01*
X35516032Y-35530118D01*
X35516031Y-35530119D01*
X35482519Y-35579271D01*
X35447208Y-35627115D01*
X35447205Y-35627120D01*
X35444870Y-35633794D01*
X35443518Y-35636473D01*
X35439528Y-35642324D01*
X35421992Y-35699177D01*
X35402353Y-35755302D01*
X35402353Y-35755304D01*
X35402088Y-35762377D01*
X35401586Y-35765331D01*
X35399500Y-35772098D01*
X35399500Y-35772100D01*
X35399500Y-35831573D01*
X35397276Y-35891007D01*
X35397276Y-35891012D01*
X35399108Y-35897846D01*
X35399500Y-35900823D01*
X35399500Y-36263000D01*
X35396132Y-36271132D01*
X35388000Y-36274500D01*
X35352127Y-36274500D01*
X35292518Y-36280908D01*
X35292517Y-36280909D01*
X35157669Y-36331204D01*
X35157666Y-36331206D01*
X35042456Y-36417452D01*
X35042452Y-36417456D01*
X34956206Y-36532666D01*
X34956204Y-36532669D01*
X34905908Y-36667518D01*
X34899500Y-36727126D01*
X34899500Y-37347872D01*
X34905908Y-37407481D01*
X34905909Y-37407483D01*
X34956204Y-37542331D01*
X35042454Y-37657546D01*
X35157669Y-37743796D01*
X35292517Y-37794091D01*
X35352127Y-37800500D01*
X36347872Y-37800499D01*
X36407483Y-37794091D01*
X36542331Y-37743796D01*
X36657546Y-37657546D01*
X36743796Y-37542331D01*
X36794091Y-37407483D01*
X36800500Y-37347873D01*
X36800499Y-36727128D01*
X36800429Y-36726481D01*
X36794091Y-36667518D01*
X36794091Y-36667517D01*
X36743796Y-36532669D01*
X36657546Y-36417454D01*
X36542331Y-36331204D01*
X36435091Y-36291206D01*
X36407481Y-36280908D01*
X36347874Y-36274500D01*
X36347873Y-36274500D01*
X36312000Y-36274500D01*
X36303868Y-36271132D01*
X36300500Y-36263000D01*
X36300500Y-36031366D01*
X36303867Y-36023235D01*
X39082935Y-33244166D01*
X39083407Y-33243744D01*
X39116470Y-33217379D01*
X39149980Y-33168228D01*
X39185293Y-33120382D01*
X39187630Y-33113700D01*
X39188983Y-33111022D01*
X39192970Y-33105176D01*
X39192970Y-33105175D01*
X39192972Y-33105173D01*
X39210506Y-33048327D01*
X39230146Y-32992200D01*
X39230410Y-32985121D01*
X39230911Y-32982170D01*
X39233000Y-32975402D01*
X39233000Y-32915926D01*
X39235224Y-32856490D01*
X39233392Y-32849652D01*
X39233000Y-32846676D01*
X39233000Y-32772044D01*
X39236368Y-32763912D01*
X39240478Y-32761270D01*
X39287331Y-32743796D01*
X39402546Y-32657546D01*
X39488796Y-32542331D01*
X39539091Y-32407483D01*
X39545500Y-32347873D01*
X39545500Y-32312000D01*
X39548868Y-32303868D01*
X39557000Y-32300500D01*
X40234373Y-32300500D01*
X40235017Y-32300536D01*
X40239776Y-32301072D01*
X40277035Y-32305270D01*
X40288467Y-32303106D01*
X40335479Y-32294212D01*
X40367279Y-32289418D01*
X40394287Y-32285348D01*
X40395524Y-32284751D01*
X40400661Y-32282278D01*
X40403514Y-32281338D01*
X40410472Y-32280023D01*
X40463072Y-32252222D01*
X40516642Y-32226425D01*
X40521833Y-32221607D01*
X40524272Y-32219877D01*
X40530538Y-32216566D01*
X40572598Y-32174504D01*
X40616194Y-32134055D01*
X40619732Y-32127925D01*
X40621556Y-32125546D01*
X40889868Y-31857235D01*
X40898000Y-31853867D01*
X40906132Y-31857235D01*
X40909500Y-31865367D01*
X40909500Y-33368632D01*
X40906132Y-33376764D01*
X38813193Y-35469702D01*
X38805921Y-35473038D01*
X38768619Y-35475834D01*
X38642210Y-35525445D01*
X38642204Y-35525449D01*
X38536032Y-35610118D01*
X38536031Y-35610119D01*
X38459527Y-35722327D01*
X38419499Y-35852098D01*
X38419500Y-36041573D01*
X38417276Y-36101007D01*
X38417276Y-36101012D01*
X38419108Y-36107846D01*
X38419500Y-36110823D01*
X38419500Y-36223000D01*
X38416132Y-36231132D01*
X38408000Y-36234500D01*
X38372127Y-36234500D01*
X38312518Y-36240908D01*
X38312517Y-36240909D01*
X38177669Y-36291204D01*
X38177666Y-36291206D01*
X38062456Y-36377452D01*
X38062452Y-36377456D01*
X37976206Y-36492666D01*
X37976204Y-36492669D01*
X37925908Y-36627518D01*
X37919500Y-36687126D01*
X37919500Y-37307872D01*
X37925908Y-37367481D01*
X37925909Y-37367483D01*
X37976204Y-37502331D01*
X38062454Y-37617546D01*
X38177669Y-37703796D01*
X38312517Y-37754091D01*
X38372127Y-37760500D01*
X39367872Y-37760499D01*
X39427483Y-37754091D01*
X39562331Y-37703796D01*
X39677546Y-37617546D01*
X39763796Y-37502331D01*
X39814091Y-37367483D01*
X39820500Y-37307873D01*
X39820499Y-36687128D01*
X39814091Y-36627517D01*
X39763796Y-36492669D01*
X39677546Y-36377454D01*
X39562331Y-36291204D01*
X39473036Y-36257899D01*
X39427481Y-36240908D01*
X39367874Y-36234500D01*
X39367873Y-36234500D01*
X39350367Y-36234500D01*
X39342235Y-36231132D01*
X39338867Y-36223000D01*
X39342235Y-36214868D01*
X41660435Y-33896667D01*
X41660907Y-33896244D01*
X41693970Y-33869879D01*
X41727480Y-33820728D01*
X41762793Y-33772882D01*
X41765130Y-33766200D01*
X41766483Y-33763522D01*
X41770470Y-33757676D01*
X41770470Y-33757675D01*
X41770472Y-33757673D01*
X41788007Y-33700822D01*
X41807646Y-33644699D01*
X41807910Y-33637621D01*
X41808411Y-33634670D01*
X41810500Y-33627902D01*
X41810499Y-33568441D01*
X41812725Y-33508990D01*
X41812077Y-33506573D01*
X41810891Y-33502147D01*
X41810499Y-33499170D01*
X41810499Y-30427035D01*
X41810499Y-27305607D01*
X41810534Y-27304997D01*
X41815270Y-27262965D01*
X41811030Y-27240561D01*
X41804212Y-27204520D01*
X41798992Y-27169897D01*
X41795348Y-27145713D01*
X41792278Y-27139339D01*
X41791338Y-27136484D01*
X41790023Y-27129528D01*
X41768781Y-27089339D01*
X41762226Y-27076936D01*
X41736425Y-27023358D01*
X41731607Y-27018166D01*
X41729871Y-27015719D01*
X41726566Y-27009464D01*
X41726565Y-27009462D01*
X41684516Y-26967413D01*
X41644055Y-26923806D01*
X41644054Y-26923805D01*
X41637924Y-26920266D01*
X41635542Y-26918439D01*
X39503796Y-24786693D01*
X39500557Y-24780277D01*
X39495348Y-24745713D01*
X39492278Y-24739339D01*
X39491338Y-24736484D01*
X39490023Y-24729528D01*
X39482319Y-24714952D01*
X39462226Y-24676936D01*
X39436425Y-24623358D01*
X39431607Y-24618166D01*
X39429871Y-24615719D01*
X39426566Y-24609464D01*
X39426565Y-24609462D01*
X39384516Y-24567413D01*
X39344055Y-24523806D01*
X39344054Y-24523805D01*
X39337924Y-24520266D01*
X39335542Y-24518439D01*
X37156667Y-22339564D01*
X37156237Y-22339082D01*
X37129881Y-22306032D01*
X37129880Y-22306031D01*
X37097646Y-22284054D01*
X37080728Y-22272519D01*
X37072074Y-22266132D01*
X37032884Y-22237208D01*
X37032883Y-22237207D01*
X37029167Y-22235907D01*
X37026201Y-22234869D01*
X37023526Y-22233518D01*
X37017673Y-22229528D01*
X37017672Y-22229527D01*
X36960822Y-22211992D01*
X36937890Y-22203968D01*
X36904699Y-22192354D01*
X36904698Y-22192353D01*
X36904696Y-22192353D01*
X36897623Y-22192088D01*
X36894667Y-22191586D01*
X36887902Y-22189500D01*
X36887900Y-22189500D01*
X36828426Y-22189500D01*
X36768992Y-22187276D01*
X36768987Y-22187276D01*
X36763925Y-22188632D01*
X36762151Y-22189108D01*
X36759177Y-22189500D01*
X31645627Y-22189500D01*
X31644983Y-22189464D01*
X31619658Y-22186610D01*
X31602965Y-22184730D01*
X31602964Y-22184730D01*
X31544519Y-22195788D01*
X31539979Y-22196472D01*
X31531437Y-22194353D01*
X31526894Y-22186813D01*
X31529013Y-22178271D01*
X31530128Y-22176974D01*
X32330435Y-21376666D01*
X32330907Y-21376244D01*
X32363970Y-21349879D01*
X32397480Y-21300728D01*
X32432793Y-21252882D01*
X32435130Y-21246200D01*
X32436483Y-21243522D01*
X32440470Y-21237676D01*
X32440470Y-21237675D01*
X32440472Y-21237673D01*
X32458007Y-21180822D01*
X32477646Y-21124699D01*
X32477910Y-21117621D01*
X32478411Y-21114670D01*
X32480500Y-21107902D01*
X32480500Y-21048441D01*
X32482725Y-20988990D01*
X32480892Y-20982148D01*
X32480500Y-20979172D01*
X32480500Y-20343549D01*
X32483868Y-20335417D01*
X32487846Y-20332826D01*
X32513056Y-20323059D01*
X32522637Y-20319348D01*
X32696041Y-20211981D01*
X32846764Y-20074579D01*
X32860748Y-20056062D01*
X32969670Y-19911825D01*
X32969672Y-19911822D01*
X32969671Y-19911822D01*
X32969673Y-19911821D01*
X33060582Y-19729250D01*
X33116397Y-19533083D01*
X33135215Y-19330000D01*
X33116397Y-19126917D01*
X33060582Y-18930750D01*
X32969673Y-18748179D01*
X32969672Y-18748178D01*
X32969672Y-18748177D01*
X32969670Y-18748174D01*
X32846771Y-18585429D01*
X32846767Y-18585426D01*
X32846764Y-18585421D01*
X32703843Y-18455132D01*
X32696040Y-18448018D01*
X32609339Y-18394335D01*
X32522637Y-18340652D01*
X32522632Y-18340650D01*
X32522626Y-18340647D01*
X32332461Y-18266977D01*
X32131978Y-18229500D01*
X32131976Y-18229500D01*
X31928024Y-18229500D01*
X31928021Y-18229500D01*
X31727538Y-18266977D01*
X31537373Y-18340647D01*
X31537361Y-18340653D01*
X31363959Y-18448018D01*
X31275659Y-18528514D01*
X31213236Y-18585421D01*
X31213234Y-18585423D01*
X31213228Y-18585429D01*
X31090329Y-18748174D01*
X31090327Y-18748177D01*
X30999418Y-18930748D01*
X30943602Y-19126919D01*
X30924785Y-19329999D01*
X30943602Y-19533080D01*
X30999418Y-19729251D01*
X31090327Y-19911822D01*
X31090329Y-19911825D01*
X31213228Y-20074570D01*
X31213231Y-20074573D01*
X31213236Y-20074579D01*
X31363959Y-20211981D01*
X31537363Y-20319348D01*
X31537371Y-20319351D01*
X31537373Y-20319352D01*
X31572154Y-20332826D01*
X31578520Y-20338904D01*
X31579500Y-20343549D01*
X31579500Y-20848632D01*
X31576132Y-20856764D01*
X30026765Y-22406132D01*
X30018633Y-22409500D01*
X28838345Y-22409500D01*
X28830213Y-22406132D01*
X28826845Y-22398000D01*
X28830213Y-22389868D01*
X28833355Y-22387639D01*
X28856642Y-22376425D01*
X28861833Y-22371607D01*
X28864272Y-22369877D01*
X28870538Y-22366566D01*
X28912599Y-22324504D01*
X28956194Y-22284055D01*
X28959732Y-22277925D01*
X28961556Y-22275546D01*
X29790435Y-21446666D01*
X29790907Y-21446244D01*
X29823970Y-21419879D01*
X29857480Y-21370728D01*
X29892793Y-21322882D01*
X29895130Y-21316200D01*
X29896483Y-21313522D01*
X29900470Y-21307676D01*
X29900470Y-21307675D01*
X29900472Y-21307673D01*
X29918007Y-21250822D01*
X29937646Y-21194699D01*
X29937910Y-21187622D01*
X29938411Y-21184671D01*
X29940500Y-21177902D01*
X29940500Y-21118426D01*
X29942724Y-21058990D01*
X29940892Y-21052152D01*
X29940500Y-21049176D01*
X29940500Y-20343549D01*
X29943868Y-20335417D01*
X29947846Y-20332826D01*
X29973056Y-20323059D01*
X29982637Y-20319348D01*
X30156041Y-20211981D01*
X30306764Y-20074579D01*
X30320748Y-20056062D01*
X30429670Y-19911825D01*
X30429672Y-19911822D01*
X30429671Y-19911822D01*
X30429673Y-19911821D01*
X30520582Y-19729250D01*
X30576397Y-19533083D01*
X30595215Y-19330000D01*
X30576397Y-19126917D01*
X30520582Y-18930750D01*
X30429673Y-18748179D01*
X30429672Y-18748178D01*
X30429672Y-18748177D01*
X30429670Y-18748174D01*
X30306771Y-18585429D01*
X30306767Y-18585426D01*
X30306764Y-18585421D01*
X30163843Y-18455132D01*
X30156040Y-18448018D01*
X30069339Y-18394335D01*
X29982637Y-18340652D01*
X29982632Y-18340650D01*
X29982626Y-18340647D01*
X29792461Y-18266977D01*
X29591978Y-18229500D01*
X29591976Y-18229500D01*
X29388024Y-18229500D01*
X29388021Y-18229500D01*
X29187538Y-18266977D01*
X28997373Y-18340647D01*
X28997361Y-18340653D01*
X28823959Y-18448018D01*
X28735659Y-18528514D01*
X28673236Y-18585421D01*
X28673234Y-18585423D01*
X28673228Y-18585429D01*
X28550329Y-18748174D01*
X28550327Y-18748177D01*
X28459418Y-18930748D01*
X28403602Y-19126919D01*
X28384785Y-19329999D01*
X28403602Y-19533080D01*
X28459418Y-19729251D01*
X28550327Y-19911822D01*
X28550329Y-19911825D01*
X28673228Y-20074570D01*
X28673231Y-20074573D01*
X28673236Y-20074579D01*
X28823959Y-20211981D01*
X28997363Y-20319348D01*
X28997371Y-20319351D01*
X28997373Y-20319352D01*
X29032154Y-20332826D01*
X29038520Y-20338904D01*
X29039500Y-20343549D01*
X29039500Y-20918632D01*
X29036132Y-20926764D01*
X28416765Y-21546132D01*
X28408633Y-21549500D01*
X27765627Y-21549500D01*
X27764983Y-21549464D01*
X27735408Y-21546132D01*
X27722965Y-21544730D01*
X27722964Y-21544730D01*
X27664520Y-21555787D01*
X27605712Y-21564652D01*
X27605713Y-21564652D01*
X27599333Y-21567723D01*
X27596486Y-21568660D01*
X27589527Y-21569976D01*
X27550449Y-21590631D01*
X27536936Y-21597773D01*
X27517930Y-21606926D01*
X27483355Y-21623576D01*
X27478166Y-21628391D01*
X27475720Y-21630127D01*
X27469462Y-21633435D01*
X27427413Y-21675483D01*
X27383806Y-21715944D01*
X27383805Y-21715945D01*
X27380264Y-21722077D01*
X27378438Y-21724457D01*
X26840132Y-22262764D01*
X26832000Y-22266132D01*
X26823868Y-22262764D01*
X26820500Y-22254632D01*
X26820500Y-21835625D01*
X26820536Y-21834981D01*
X26820768Y-21832919D01*
X26825270Y-21792965D01*
X26820317Y-21766791D01*
X26814211Y-21734511D01*
X26806903Y-21686030D01*
X26805348Y-21675713D01*
X26802278Y-21669338D01*
X26801341Y-21666493D01*
X26800024Y-21659529D01*
X26772222Y-21606926D01*
X26746425Y-21553358D01*
X26746423Y-21553356D01*
X26746423Y-21553355D01*
X26741608Y-21548165D01*
X26739872Y-21545718D01*
X26739350Y-21544730D01*
X26736566Y-21539463D01*
X26694516Y-21497413D01*
X26654055Y-21453806D01*
X26654054Y-21453805D01*
X26647924Y-21450266D01*
X26645542Y-21448439D01*
X25253165Y-20056062D01*
X25249797Y-20047930D01*
X25252118Y-20041003D01*
X25349673Y-19911821D01*
X25440582Y-19729250D01*
X25496397Y-19533083D01*
X25503632Y-19455000D01*
X25856870Y-19455000D01*
X25864096Y-19532986D01*
X25864096Y-19532988D01*
X25919886Y-19729069D01*
X26010754Y-19911557D01*
X26010756Y-19911560D01*
X26133599Y-20074231D01*
X26284265Y-20211583D01*
X26457577Y-20318893D01*
X26457597Y-20318903D01*
X26647680Y-20392541D01*
X26824999Y-20425686D01*
X26824999Y-19817169D01*
X26914237Y-19830000D01*
X26985763Y-19830000D01*
X27074999Y-19817169D01*
X27074999Y-20425686D01*
X27252319Y-20392541D01*
X27442402Y-20318903D01*
X27442422Y-20318893D01*
X27615734Y-20211583D01*
X27766400Y-20074231D01*
X27889243Y-19911560D01*
X27889245Y-19911557D01*
X27980113Y-19729069D01*
X28035903Y-19532988D01*
X28035903Y-19532986D01*
X28043130Y-19455000D01*
X27434405Y-19455000D01*
X27450000Y-19401889D01*
X27450000Y-19258111D01*
X27434405Y-19205000D01*
X28043129Y-19205000D01*
X28035903Y-19127013D01*
X28035903Y-19127011D01*
X27980113Y-18930930D01*
X27889245Y-18748442D01*
X27889243Y-18748439D01*
X27766400Y-18585768D01*
X27615734Y-18448416D01*
X27442422Y-18341106D01*
X27442402Y-18341096D01*
X27252324Y-18267460D01*
X27075000Y-18234311D01*
X27074999Y-18234312D01*
X27074999Y-18842830D01*
X26985763Y-18830000D01*
X26914237Y-18830000D01*
X26824999Y-18842830D01*
X26825000Y-18234312D01*
X26824999Y-18234311D01*
X26647675Y-18267460D01*
X26457597Y-18341096D01*
X26457577Y-18341106D01*
X26284265Y-18448416D01*
X26133599Y-18585768D01*
X26010756Y-18748439D01*
X26010754Y-18748442D01*
X25919886Y-18930930D01*
X25864096Y-19127011D01*
X25864096Y-19127013D01*
X25856870Y-19205000D01*
X26465595Y-19205000D01*
X26450000Y-19258111D01*
X26450000Y-19401889D01*
X26465595Y-19455000D01*
X25856870Y-19455000D01*
X25503632Y-19455000D01*
X25515215Y-19330000D01*
X25496397Y-19126917D01*
X25440582Y-18930750D01*
X25349673Y-18748179D01*
X25349672Y-18748178D01*
X25349672Y-18748177D01*
X25349670Y-18748174D01*
X25226771Y-18585429D01*
X25226767Y-18585426D01*
X25226764Y-18585421D01*
X25083843Y-18455132D01*
X25076040Y-18448018D01*
X24989339Y-18394335D01*
X24902637Y-18340652D01*
X24902632Y-18340650D01*
X24902626Y-18340647D01*
X24712461Y-18266977D01*
X24511978Y-18229500D01*
X24511976Y-18229500D01*
X24308024Y-18229500D01*
X24308021Y-18229500D01*
X24107538Y-18266977D01*
X23917373Y-18340647D01*
X23917361Y-18340653D01*
X23743959Y-18448018D01*
X23655659Y-18528514D01*
X23593236Y-18585421D01*
X23593234Y-18585423D01*
X23593228Y-18585429D01*
X23470329Y-18748174D01*
X23470327Y-18748177D01*
X23379418Y-18930748D01*
X23323602Y-19126919D01*
X23304785Y-19330000D01*
X23323602Y-19533080D01*
X23379418Y-19729251D01*
X23470327Y-19911822D01*
X23470329Y-19911825D01*
X23593228Y-20074570D01*
X23593231Y-20074573D01*
X23593236Y-20074579D01*
X23743959Y-20211981D01*
X23917363Y-20319348D01*
X23917371Y-20319351D01*
X23917373Y-20319352D01*
X24107538Y-20393022D01*
X24107539Y-20393022D01*
X24107544Y-20393024D01*
X24308024Y-20430500D01*
X24348632Y-20430500D01*
X24356764Y-20433868D01*
X25916132Y-21993235D01*
X25919500Y-22001367D01*
X25919500Y-22924633D01*
X25916132Y-22932765D01*
X25908000Y-22936133D01*
X25899868Y-22932765D01*
X24536667Y-21569564D01*
X24536237Y-21569082D01*
X24535900Y-21568660D01*
X24532704Y-21564652D01*
X24509881Y-21536032D01*
X24509880Y-21536031D01*
X24460728Y-21502519D01*
X24412884Y-21467208D01*
X24412883Y-21467207D01*
X24409167Y-21465907D01*
X24406201Y-21464869D01*
X24403526Y-21463518D01*
X24397673Y-21459528D01*
X24397672Y-21459527D01*
X24340822Y-21441992D01*
X24284696Y-21422353D01*
X24277623Y-21422088D01*
X24274667Y-21421586D01*
X24267902Y-21419500D01*
X24267900Y-21419500D01*
X24208426Y-21419500D01*
X24148992Y-21417276D01*
X24148987Y-21417276D01*
X24143925Y-21418632D01*
X24142151Y-21419108D01*
X24139177Y-21419500D01*
X23641367Y-21419500D01*
X23633235Y-21416132D01*
X22667235Y-20450132D01*
X22663867Y-20442000D01*
X22667235Y-20433868D01*
X22675367Y-20430500D01*
X22744672Y-20430500D01*
X22744674Y-20430500D01*
X22817740Y-20415966D01*
X22900601Y-20360601D01*
X22955966Y-20277740D01*
X22970500Y-20204674D01*
X22970500Y-18455326D01*
X22955966Y-18382260D01*
X22900601Y-18299399D01*
X22900599Y-18299397D01*
X22817741Y-18244035D01*
X22817742Y-18244035D01*
X22817740Y-18244034D01*
X22817738Y-18244033D01*
X22817737Y-18244033D01*
X22780957Y-18236717D01*
X22744674Y-18229500D01*
X20995326Y-18229500D01*
X20971140Y-18234311D01*
X20922262Y-18244033D01*
X20922258Y-18244035D01*
X20839400Y-18299397D01*
X20839397Y-18299400D01*
X20784035Y-18382258D01*
X20784033Y-18382262D01*
X20773108Y-18437184D01*
X20769500Y-18455326D01*
X20769500Y-20204674D01*
X20784034Y-20277740D01*
X20784035Y-20277741D01*
X20839397Y-20360599D01*
X20839399Y-20360601D01*
X20922260Y-20415966D01*
X20995326Y-20430500D01*
X21428562Y-20430500D01*
X21436694Y-20433868D01*
X21439861Y-20439860D01*
X21439977Y-20440472D01*
X21467777Y-20493072D01*
X21493576Y-20546644D01*
X21498387Y-20551829D01*
X21500124Y-20554276D01*
X21503435Y-20560539D01*
X21545496Y-20602600D01*
X21584175Y-20644287D01*
X21585945Y-20646194D01*
X21592073Y-20649732D01*
X21594454Y-20651558D01*
X23113335Y-22170439D01*
X23113765Y-22170921D01*
X23140118Y-22203967D01*
X23140119Y-22203968D01*
X23140121Y-22203970D01*
X23189265Y-22237476D01*
X23237117Y-22272792D01*
X23243676Y-22275087D01*
X23243793Y-22275128D01*
X23246473Y-22276481D01*
X23252327Y-22280472D01*
X23309179Y-22298008D01*
X23365300Y-22317646D01*
X23372376Y-22317910D01*
X23375331Y-22318412D01*
X23382098Y-22320500D01*
X23382099Y-22320500D01*
X23441573Y-22320500D01*
X23501010Y-22322724D01*
X23507848Y-22320891D01*
X23510823Y-22320500D01*
X24008632Y-22320500D01*
X24016764Y-22323868D01*
X25316132Y-23623235D01*
X25319500Y-23631367D01*
X25319500Y-27998632D01*
X25316132Y-28006764D01*
X25116765Y-28206132D01*
X25108633Y-28209500D01*
X24983565Y-28209500D01*
X24975433Y-28206132D01*
X24974003Y-28204389D01*
X24940602Y-28154400D01*
X24940599Y-28154397D01*
X24857741Y-28099035D01*
X24857742Y-28099035D01*
X24857740Y-28099034D01*
X24857738Y-28099033D01*
X24857737Y-28099033D01*
X24820957Y-28091717D01*
X24784674Y-28084500D01*
X23235326Y-28084500D01*
X23206260Y-28090281D01*
X23162262Y-28099033D01*
X23162258Y-28099035D01*
X23079400Y-28154397D01*
X23079397Y-28154400D01*
X23024035Y-28237258D01*
X23024033Y-28237262D01*
X23020531Y-28254870D01*
X23009500Y-28310326D01*
X23009500Y-29009674D01*
X23012932Y-29026926D01*
X23023394Y-29079526D01*
X23024034Y-29082740D01*
X23032456Y-29095345D01*
X23079397Y-29165599D01*
X23079400Y-29165602D01*
X23107019Y-29184056D01*
X23162260Y-29220966D01*
X23235326Y-29235500D01*
X23235328Y-29235500D01*
X24784672Y-29235500D01*
X24784674Y-29235500D01*
X24857740Y-29220966D01*
X24940601Y-29165601D01*
X24974002Y-29115611D01*
X24981321Y-29110721D01*
X24983565Y-29110500D01*
X25274373Y-29110500D01*
X25275017Y-29110536D01*
X25279776Y-29111072D01*
X25317035Y-29115270D01*
X25328467Y-29113106D01*
X25375479Y-29104212D01*
X25407279Y-29099418D01*
X25434287Y-29095348D01*
X25435524Y-29094751D01*
X25440661Y-29092278D01*
X25443514Y-29091338D01*
X25450472Y-29090023D01*
X25503072Y-29062222D01*
X25556642Y-29036425D01*
X25561833Y-29031607D01*
X25564272Y-29029877D01*
X25570538Y-29026566D01*
X25612600Y-28984503D01*
X25656194Y-28944055D01*
X25659732Y-28937925D01*
X25661556Y-28935546D01*
X25899869Y-28697234D01*
X25908000Y-28693867D01*
X25916132Y-28697235D01*
X25919500Y-28705367D01*
X25919500Y-31828633D01*
X25916132Y-31836765D01*
X25736765Y-32016132D01*
X25728633Y-32019500D01*
X24983565Y-32019500D01*
X24975433Y-32016132D01*
X24974003Y-32014389D01*
X24940602Y-31964400D01*
X24940599Y-31964397D01*
X24881394Y-31924839D01*
X24857740Y-31909034D01*
X24857738Y-31909033D01*
X24857737Y-31909033D01*
X24820957Y-31901717D01*
X24784674Y-31894500D01*
X23235326Y-31894500D01*
X23206260Y-31900281D01*
X23162262Y-31909033D01*
X23162255Y-31909036D01*
X23136462Y-31926269D01*
X23127830Y-31927986D01*
X23121942Y-31924839D01*
X22746777Y-31549674D01*
X23009500Y-31549674D01*
X23012144Y-31562964D01*
X23021593Y-31610472D01*
X23024034Y-31622740D01*
X23039704Y-31646192D01*
X23079397Y-31705599D01*
X23079400Y-31705602D01*
X23107019Y-31724056D01*
X23162260Y-31760966D01*
X23235326Y-31775500D01*
X23235328Y-31775500D01*
X24784672Y-31775500D01*
X24784674Y-31775500D01*
X24857740Y-31760966D01*
X24940601Y-31705601D01*
X24995966Y-31622740D01*
X25010500Y-31549674D01*
X25010500Y-30850326D01*
X24995966Y-30777260D01*
X24947929Y-30705366D01*
X24940602Y-30694400D01*
X24940599Y-30694397D01*
X24857741Y-30639035D01*
X24857742Y-30639035D01*
X24857740Y-30639034D01*
X24857738Y-30639033D01*
X24857737Y-30639033D01*
X24820957Y-30631717D01*
X24784674Y-30624500D01*
X23235326Y-30624500D01*
X23206260Y-30630281D01*
X23162262Y-30639033D01*
X23162258Y-30639035D01*
X23079400Y-30694397D01*
X23079397Y-30694400D01*
X23024035Y-30777258D01*
X23024033Y-30777262D01*
X23017621Y-30809500D01*
X23009500Y-30850326D01*
X23009500Y-31549674D01*
X22746777Y-31549674D01*
X22713297Y-31516194D01*
X22303868Y-31106764D01*
X22300500Y-31098632D01*
X22300500Y-30279674D01*
X23009500Y-30279674D01*
X23013042Y-30297480D01*
X23021593Y-30340472D01*
X23024034Y-30352740D01*
X23028452Y-30359352D01*
X23079397Y-30435599D01*
X23079399Y-30435601D01*
X23162260Y-30490966D01*
X23235326Y-30505500D01*
X23235328Y-30505500D01*
X24784672Y-30505500D01*
X24784674Y-30505500D01*
X24857740Y-30490966D01*
X24940601Y-30435601D01*
X24995966Y-30352740D01*
X25010500Y-30279674D01*
X25010500Y-29580326D01*
X24995966Y-29507260D01*
X24941149Y-29425219D01*
X24940602Y-29424400D01*
X24940599Y-29424397D01*
X24885360Y-29387488D01*
X24857740Y-29369034D01*
X24857738Y-29369033D01*
X24857737Y-29369033D01*
X24820957Y-29361717D01*
X24784674Y-29354500D01*
X23235326Y-29354500D01*
X23206260Y-29360281D01*
X23162262Y-29369033D01*
X23162258Y-29369035D01*
X23079400Y-29424397D01*
X23079397Y-29424400D01*
X23024035Y-29507258D01*
X23024033Y-29507262D01*
X23013108Y-29562184D01*
X23009500Y-29580326D01*
X23009500Y-30279674D01*
X22300500Y-30279674D01*
X22300500Y-29255625D01*
X22300536Y-29254981D01*
X22300768Y-29252919D01*
X22305270Y-29212965D01*
X22296558Y-29166919D01*
X22294211Y-29154511D01*
X22288347Y-29115611D01*
X22285348Y-29095713D01*
X22282278Y-29089338D01*
X22281341Y-29086493D01*
X22280024Y-29079529D01*
X22252222Y-29026926D01*
X22226425Y-28973358D01*
X22226423Y-28973356D01*
X22226423Y-28973355D01*
X22221608Y-28968165D01*
X22219872Y-28965718D01*
X22216566Y-28959463D01*
X22174516Y-28917413D01*
X22134055Y-28873806D01*
X22134054Y-28873805D01*
X22127924Y-28870266D01*
X22125542Y-28868439D01*
X20996775Y-27739672D01*
X23009500Y-27739672D01*
X23023965Y-27812396D01*
X23024034Y-27812740D01*
X23028452Y-27819352D01*
X23079397Y-27895599D01*
X23079399Y-27895601D01*
X23162260Y-27950966D01*
X23235326Y-27965500D01*
X23235328Y-27965500D01*
X24784672Y-27965500D01*
X24784674Y-27965500D01*
X24857740Y-27950966D01*
X24940601Y-27895601D01*
X24995966Y-27812740D01*
X25010500Y-27739674D01*
X25010500Y-27040326D01*
X24995966Y-26967260D01*
X24940601Y-26884399D01*
X24940599Y-26884397D01*
X24885360Y-26847488D01*
X24857740Y-26829034D01*
X24857738Y-26829033D01*
X24857737Y-26829033D01*
X24820957Y-26821717D01*
X24784674Y-26814500D01*
X23235326Y-26814500D01*
X23206260Y-26820281D01*
X23162262Y-26829033D01*
X23162258Y-26829035D01*
X23079400Y-26884397D01*
X23079397Y-26884400D01*
X23024035Y-26967258D01*
X23024033Y-26967262D01*
X23009500Y-27040327D01*
X23009500Y-27739672D01*
X20996775Y-27739672D01*
X20486638Y-27229535D01*
X20483270Y-27221403D01*
X20483708Y-27218261D01*
X20536397Y-27033083D01*
X20555215Y-26830000D01*
X20536397Y-26626917D01*
X20491657Y-26469674D01*
X23009500Y-26469674D01*
X23024034Y-26542740D01*
X23024035Y-26542741D01*
X23079397Y-26625599D01*
X23079400Y-26625602D01*
X23107019Y-26644056D01*
X23162260Y-26680966D01*
X23235326Y-26695500D01*
X23235328Y-26695500D01*
X24784672Y-26695500D01*
X24784674Y-26695500D01*
X24857740Y-26680966D01*
X24940601Y-26625601D01*
X24995966Y-26542740D01*
X25010500Y-26469674D01*
X25010500Y-25770326D01*
X24995966Y-25697260D01*
X24940601Y-25614399D01*
X24940599Y-25614397D01*
X24857741Y-25559035D01*
X24857742Y-25559035D01*
X24857740Y-25559034D01*
X24857738Y-25559033D01*
X24857737Y-25559033D01*
X24820957Y-25551717D01*
X24784674Y-25544500D01*
X23235326Y-25544500D01*
X23206260Y-25550281D01*
X23162262Y-25559033D01*
X23162258Y-25559035D01*
X23079400Y-25614397D01*
X23079397Y-25614400D01*
X23024035Y-25697258D01*
X23024033Y-25697262D01*
X23020531Y-25714870D01*
X23009500Y-25770326D01*
X23009500Y-26469674D01*
X20491657Y-26469674D01*
X20480582Y-26430750D01*
X20389673Y-26248179D01*
X20389672Y-26248178D01*
X20389672Y-26248177D01*
X20389670Y-26248174D01*
X20266771Y-26085429D01*
X20266767Y-26085426D01*
X20266764Y-26085421D01*
X20116041Y-25948019D01*
X20116040Y-25948018D01*
X19985835Y-25867399D01*
X19942637Y-25840652D01*
X19942632Y-25840650D01*
X19942626Y-25840647D01*
X19752461Y-25766977D01*
X19551978Y-25729500D01*
X19551976Y-25729500D01*
X19348024Y-25729500D01*
X19348021Y-25729500D01*
X19147538Y-25766977D01*
X18957373Y-25840647D01*
X18957361Y-25840653D01*
X18783959Y-25948018D01*
X18752248Y-25976927D01*
X18633236Y-26085421D01*
X18633234Y-26085423D01*
X18633228Y-26085429D01*
X18510329Y-26248174D01*
X18510327Y-26248177D01*
X18419418Y-26430748D01*
X18363602Y-26626919D01*
X18344785Y-26830000D01*
X18363602Y-27033080D01*
X18419418Y-27229251D01*
X18510327Y-27411822D01*
X18510329Y-27411825D01*
X18633228Y-27574570D01*
X18633231Y-27574573D01*
X18633236Y-27574579D01*
X18783959Y-27711981D01*
X18957363Y-27819348D01*
X18957371Y-27819351D01*
X18957373Y-27819352D01*
X19147538Y-27893022D01*
X19147539Y-27893022D01*
X19147544Y-27893024D01*
X19348024Y-27930500D01*
X19551976Y-27930500D01*
X19752456Y-27893024D01*
X19834457Y-27861256D01*
X19843256Y-27861459D01*
X19846743Y-27863847D01*
X21396132Y-29413235D01*
X21399500Y-29421367D01*
X21399500Y-31264373D01*
X21399464Y-31265017D01*
X21394730Y-31307035D01*
X21405787Y-31365479D01*
X21414652Y-31424289D01*
X21417721Y-31430661D01*
X21418659Y-31433511D01*
X21419976Y-31440472D01*
X21436956Y-31472598D01*
X21447777Y-31493072D01*
X21467472Y-31533970D01*
X21473576Y-31546644D01*
X21478387Y-31551829D01*
X21480123Y-31554274D01*
X21483434Y-31560538D01*
X21525495Y-31602599D01*
X21565945Y-31646194D01*
X21572073Y-31649732D01*
X21574454Y-31651558D01*
X22693331Y-32770434D01*
X22693761Y-32770916D01*
X22720118Y-32803967D01*
X22720119Y-32803968D01*
X22720121Y-32803970D01*
X22769271Y-32837480D01*
X22817118Y-32872793D01*
X22823795Y-32875129D01*
X22826475Y-32876482D01*
X22832327Y-32880472D01*
X22889177Y-32898007D01*
X22945301Y-32917646D01*
X22952374Y-32917910D01*
X22955330Y-32918412D01*
X22962098Y-32920500D01*
X22962099Y-32920500D01*
X23021574Y-32920500D01*
X23037252Y-32921086D01*
X23045251Y-32924756D01*
X23046383Y-32926189D01*
X23079397Y-32975599D01*
X23079400Y-32975602D01*
X23093653Y-32985125D01*
X23162260Y-33030966D01*
X23235326Y-33045500D01*
X23235328Y-33045500D01*
X24784672Y-33045500D01*
X24784674Y-33045500D01*
X24857740Y-33030966D01*
X24940601Y-32975601D01*
X24974002Y-32925611D01*
X24981321Y-32920721D01*
X24983565Y-32920500D01*
X25894373Y-32920500D01*
X25895017Y-32920536D01*
X25899776Y-32921072D01*
X25937035Y-32925270D01*
X25948467Y-32923106D01*
X25995479Y-32914212D01*
X26027279Y-32909418D01*
X26054287Y-32905348D01*
X26055524Y-32904751D01*
X26060661Y-32902278D01*
X26063514Y-32901338D01*
X26070472Y-32900023D01*
X26123072Y-32872222D01*
X26176642Y-32846425D01*
X26181833Y-32841607D01*
X26184272Y-32839877D01*
X26190538Y-32836566D01*
X26207482Y-32819622D01*
X28410000Y-32819622D01*
X28424504Y-32892542D01*
X28424506Y-32892546D01*
X28479758Y-32975238D01*
X28479761Y-32975241D01*
X28562453Y-33030493D01*
X28562457Y-33030495D01*
X28635378Y-33045000D01*
X29284999Y-33045000D01*
X29285000Y-33044999D01*
X29285000Y-32595000D01*
X29535000Y-32595000D01*
X29535000Y-33044999D01*
X29535001Y-33045000D01*
X30184622Y-33045000D01*
X30257542Y-33030495D01*
X30257546Y-33030493D01*
X30340238Y-32975241D01*
X30340241Y-32975238D01*
X30395493Y-32892546D01*
X30395495Y-32892542D01*
X30410000Y-32819622D01*
X30410000Y-32595001D01*
X30409999Y-32595000D01*
X29535000Y-32595000D01*
X29285000Y-32595000D01*
X28410001Y-32595000D01*
X28410000Y-32595001D01*
X28410000Y-32819622D01*
X26207482Y-32819622D01*
X26232599Y-32794504D01*
X26276194Y-32754055D01*
X26277188Y-32752334D01*
X26279732Y-32747926D01*
X26281556Y-32745546D01*
X26670435Y-32356666D01*
X26670907Y-32356244D01*
X26685009Y-32344999D01*
X28410000Y-32344999D01*
X28410001Y-32345000D01*
X29284999Y-32345000D01*
X29285000Y-32344999D01*
X29285000Y-31895000D01*
X29535000Y-31895000D01*
X29535000Y-32344999D01*
X29535001Y-32345000D01*
X30409999Y-32345000D01*
X30410000Y-32344999D01*
X30410000Y-32120377D01*
X30395495Y-32047457D01*
X30395493Y-32047453D01*
X30340241Y-31964761D01*
X30340238Y-31964758D01*
X30257546Y-31909506D01*
X30257542Y-31909504D01*
X30184622Y-31895000D01*
X29535000Y-31895000D01*
X29285000Y-31895000D01*
X28635378Y-31895000D01*
X28562457Y-31909504D01*
X28562453Y-31909506D01*
X28479761Y-31964758D01*
X28479758Y-31964761D01*
X28424506Y-32047453D01*
X28424504Y-32047457D01*
X28410000Y-32120377D01*
X28410000Y-32344999D01*
X26685009Y-32344999D01*
X26703970Y-32329879D01*
X26737480Y-32280728D01*
X26772793Y-32232882D01*
X26775130Y-32226200D01*
X26776483Y-32223522D01*
X26777787Y-32221611D01*
X26780472Y-32217673D01*
X26798007Y-32160822D01*
X26817646Y-32104699D01*
X26817910Y-32097622D01*
X26818411Y-32094671D01*
X26820500Y-32087902D01*
X26820499Y-32028426D01*
X26822724Y-31968990D01*
X26820889Y-31962142D01*
X26820499Y-31959183D01*
X26820499Y-30705365D01*
X26823867Y-30697234D01*
X26831999Y-30693866D01*
X26840129Y-30697233D01*
X27241529Y-31098632D01*
X27643331Y-31500434D01*
X27643761Y-31500916D01*
X27670118Y-31533967D01*
X27670119Y-31533968D01*
X27670121Y-31533970D01*
X27719271Y-31567480D01*
X27767118Y-31602793D01*
X27773372Y-31604981D01*
X27773795Y-31605129D01*
X27776475Y-31606482D01*
X27782327Y-31610472D01*
X27839177Y-31628007D01*
X27895301Y-31647646D01*
X27902375Y-31647910D01*
X27905331Y-31648412D01*
X27912098Y-31650500D01*
X27912099Y-31650500D01*
X27971559Y-31650500D01*
X28031010Y-31652725D01*
X28037851Y-31650891D01*
X28040827Y-31650500D01*
X28436435Y-31650500D01*
X28444567Y-31653868D01*
X28445997Y-31655611D01*
X28479397Y-31705599D01*
X28479400Y-31705602D01*
X28507019Y-31724056D01*
X28562260Y-31760966D01*
X28635326Y-31775500D01*
X28635328Y-31775500D01*
X30184672Y-31775500D01*
X30184674Y-31775500D01*
X30257740Y-31760966D01*
X30340601Y-31705601D01*
X30395966Y-31622740D01*
X30410500Y-31549674D01*
X30410500Y-30850326D01*
X30395966Y-30777260D01*
X30347929Y-30705366D01*
X30340602Y-30694400D01*
X30340599Y-30694397D01*
X30257741Y-30639035D01*
X30257742Y-30639035D01*
X30257740Y-30639034D01*
X30257738Y-30639033D01*
X30257737Y-30639033D01*
X30220957Y-30631717D01*
X30184674Y-30624500D01*
X28635326Y-30624500D01*
X28606260Y-30630281D01*
X28562262Y-30639033D01*
X28562258Y-30639035D01*
X28479400Y-30694397D01*
X28479397Y-30694400D01*
X28445997Y-30744389D01*
X28438679Y-30749279D01*
X28436435Y-30749500D01*
X28171367Y-30749500D01*
X28163235Y-30746132D01*
X27423868Y-30006765D01*
X27420500Y-29998633D01*
X27420500Y-29685367D01*
X27423868Y-29677235D01*
X27432000Y-29673867D01*
X27440132Y-29677235D01*
X27993331Y-30230434D01*
X27993761Y-30230916D01*
X28020118Y-30263967D01*
X28020119Y-30263968D01*
X28020121Y-30263970D01*
X28069271Y-30297480D01*
X28117118Y-30332793D01*
X28123795Y-30335129D01*
X28126475Y-30336482D01*
X28132327Y-30340472D01*
X28189172Y-30358006D01*
X28245300Y-30377646D01*
X28252376Y-30377910D01*
X28255331Y-30378412D01*
X28262098Y-30380500D01*
X28262099Y-30380500D01*
X28321573Y-30380500D01*
X28381010Y-30382724D01*
X28387848Y-30380891D01*
X28390823Y-30380500D01*
X28436435Y-30380500D01*
X28444567Y-30383868D01*
X28445997Y-30385611D01*
X28479397Y-30435599D01*
X28479399Y-30435601D01*
X28562260Y-30490966D01*
X28635326Y-30505500D01*
X28635328Y-30505500D01*
X30184672Y-30505500D01*
X30184674Y-30505500D01*
X30257740Y-30490966D01*
X30340601Y-30435601D01*
X30395966Y-30352740D01*
X30410500Y-30279674D01*
X30410500Y-29580326D01*
X30395966Y-29507260D01*
X30341149Y-29425219D01*
X30340602Y-29424400D01*
X30340599Y-29424397D01*
X30285360Y-29387488D01*
X30257740Y-29369034D01*
X30257738Y-29369033D01*
X30257737Y-29369033D01*
X30220957Y-29361717D01*
X30184674Y-29354500D01*
X28635326Y-29354500D01*
X28606260Y-29360281D01*
X28562262Y-29369033D01*
X28562258Y-29369035D01*
X28479398Y-29424398D01*
X28478601Y-29425197D01*
X28478153Y-29424749D01*
X28472573Y-29428390D01*
X28463960Y-29426578D01*
X28462322Y-29425219D01*
X28023868Y-28986765D01*
X28020500Y-28978633D01*
X28020500Y-24181367D01*
X28023868Y-24173235D01*
X28883235Y-23313868D01*
X28891367Y-23310500D01*
X30184373Y-23310500D01*
X30185017Y-23310536D01*
X30189776Y-23311072D01*
X30227035Y-23315270D01*
X30285479Y-23304211D01*
X30290019Y-23303526D01*
X30298560Y-23305643D01*
X30303104Y-23313181D01*
X30300987Y-23321724D01*
X30299865Y-23323029D01*
X29351765Y-24271132D01*
X29343633Y-24274500D01*
X28635326Y-24274500D01*
X28606260Y-24280281D01*
X28562262Y-24289033D01*
X28562258Y-24289035D01*
X28479400Y-24344397D01*
X28479397Y-24344400D01*
X28424035Y-24427258D01*
X28424033Y-24427262D01*
X28413108Y-24482184D01*
X28409500Y-24500326D01*
X28409500Y-25199674D01*
X28424034Y-25272740D01*
X28424035Y-25272741D01*
X28479397Y-25355599D01*
X28479399Y-25355601D01*
X28562260Y-25410966D01*
X28635326Y-25425500D01*
X28635328Y-25425500D01*
X30184672Y-25425500D01*
X30184674Y-25425500D01*
X30257740Y-25410966D01*
X30340601Y-25355601D01*
X30395966Y-25272740D01*
X30410500Y-25199674D01*
X30410500Y-24500326D01*
X30409422Y-24494908D01*
X30411139Y-24486276D01*
X30412564Y-24484538D01*
X30482102Y-24415000D01*
X33006870Y-24415000D01*
X33014096Y-24492986D01*
X33014096Y-24492988D01*
X33069886Y-24689069D01*
X33160754Y-24871557D01*
X33160756Y-24871560D01*
X33283599Y-25034231D01*
X33434265Y-25171583D01*
X33607577Y-25278893D01*
X33607597Y-25278903D01*
X33797680Y-25352541D01*
X33975000Y-25385686D01*
X33975000Y-24777169D01*
X34064237Y-24790000D01*
X34135763Y-24790000D01*
X34225000Y-24777169D01*
X34225000Y-25385686D01*
X34402319Y-25352541D01*
X34592402Y-25278903D01*
X34592422Y-25278893D01*
X34765734Y-25171583D01*
X34916400Y-25034231D01*
X35039243Y-24871560D01*
X35039245Y-24871557D01*
X35130113Y-24689069D01*
X35185903Y-24492988D01*
X35185903Y-24492986D01*
X35193130Y-24415000D01*
X34584405Y-24415000D01*
X34600000Y-24361889D01*
X34600000Y-24218111D01*
X34584405Y-24165000D01*
X35193129Y-24165000D01*
X35185903Y-24087013D01*
X35185903Y-24087011D01*
X35130113Y-23890930D01*
X35039245Y-23708442D01*
X35039243Y-23708439D01*
X34916400Y-23545768D01*
X34765734Y-23408416D01*
X34592422Y-23301106D01*
X34592402Y-23301096D01*
X34402324Y-23227460D01*
X34225000Y-23194311D01*
X34225000Y-23802830D01*
X34135763Y-23790000D01*
X34064237Y-23790000D01*
X33975000Y-23802830D01*
X33975000Y-23194312D01*
X33974999Y-23194311D01*
X33797675Y-23227460D01*
X33607597Y-23301096D01*
X33607577Y-23301106D01*
X33434265Y-23408416D01*
X33283599Y-23545768D01*
X33160756Y-23708439D01*
X33160754Y-23708442D01*
X33069886Y-23890930D01*
X33014096Y-24087011D01*
X33014096Y-24087013D01*
X33006870Y-24165000D01*
X33615595Y-24165000D01*
X33600000Y-24218111D01*
X33600000Y-24361889D01*
X33615595Y-24415000D01*
X33006870Y-24415000D01*
X30482102Y-24415000D01*
X31803235Y-23093868D01*
X31811367Y-23090500D01*
X36628632Y-23090500D01*
X36636764Y-23093868D01*
X38616202Y-25073306D01*
X38619442Y-25079724D01*
X38624652Y-25114289D01*
X38627721Y-25120661D01*
X38628659Y-25123511D01*
X38629976Y-25130472D01*
X38657777Y-25183072D01*
X38683576Y-25236644D01*
X38688387Y-25241829D01*
X38690123Y-25244274D01*
X38693434Y-25250538D01*
X38735495Y-25292599D01*
X38775945Y-25336194D01*
X38782073Y-25339732D01*
X38784454Y-25341558D01*
X40906132Y-27463235D01*
X40909500Y-27471367D01*
X40909500Y-27784632D01*
X40906132Y-27792764D01*
X40898000Y-27796132D01*
X40889868Y-27792764D01*
X39626667Y-26529564D01*
X39626237Y-26529082D01*
X39599881Y-26496032D01*
X39599880Y-26496031D01*
X39550728Y-26462519D01*
X39502884Y-26427208D01*
X39502883Y-26427207D01*
X39499167Y-26425907D01*
X39496201Y-26424869D01*
X39493526Y-26423518D01*
X39487673Y-26419528D01*
X39487672Y-26419527D01*
X39430822Y-26401992D01*
X39374696Y-26382353D01*
X39367623Y-26382088D01*
X39364667Y-26381586D01*
X39357902Y-26379500D01*
X39357900Y-26379500D01*
X39298426Y-26379500D01*
X39238992Y-26377276D01*
X39238987Y-26377276D01*
X39233925Y-26378632D01*
X39232151Y-26379108D01*
X39229177Y-26379500D01*
X35112183Y-26379500D01*
X35104051Y-26376132D01*
X35101889Y-26373126D01*
X35039672Y-26248177D01*
X35039670Y-26248174D01*
X34916771Y-26085429D01*
X34916767Y-26085426D01*
X34916764Y-26085421D01*
X34766041Y-25948019D01*
X34766040Y-25948018D01*
X34635835Y-25867399D01*
X34592637Y-25840652D01*
X34592632Y-25840650D01*
X34592626Y-25840647D01*
X34402461Y-25766977D01*
X34201978Y-25729500D01*
X34201976Y-25729500D01*
X33998024Y-25729500D01*
X33998021Y-25729500D01*
X33797538Y-25766977D01*
X33607373Y-25840647D01*
X33607361Y-25840653D01*
X33433959Y-25948018D01*
X33402248Y-25976927D01*
X33283236Y-26085421D01*
X33283234Y-26085423D01*
X33283228Y-26085429D01*
X33160329Y-26248174D01*
X33160327Y-26248177D01*
X33069418Y-26430748D01*
X33013602Y-26626919D01*
X32994785Y-26829999D01*
X33013602Y-27033082D01*
X33014774Y-27037200D01*
X33013759Y-27045943D01*
X33006859Y-27051407D01*
X32998116Y-27050392D01*
X32995581Y-27048478D01*
X31766667Y-25819564D01*
X31766237Y-25819082D01*
X31739881Y-25786032D01*
X31739880Y-25786031D01*
X31690728Y-25752519D01*
X31642884Y-25717208D01*
X31642883Y-25717207D01*
X31639167Y-25715907D01*
X31636201Y-25714869D01*
X31633526Y-25713518D01*
X31627673Y-25709528D01*
X31627672Y-25709527D01*
X31570822Y-25691992D01*
X31514696Y-25672353D01*
X31507623Y-25672088D01*
X31504667Y-25671586D01*
X31497902Y-25669500D01*
X31497900Y-25669500D01*
X31438426Y-25669500D01*
X31378992Y-25667276D01*
X31378987Y-25667276D01*
X31373925Y-25668632D01*
X31372151Y-25669108D01*
X31369177Y-25669500D01*
X30383565Y-25669500D01*
X30375433Y-25666132D01*
X30374003Y-25664389D01*
X30340602Y-25614400D01*
X30340599Y-25614397D01*
X30257741Y-25559035D01*
X30257742Y-25559035D01*
X30257740Y-25559034D01*
X30257738Y-25559033D01*
X30257737Y-25559033D01*
X30220957Y-25551717D01*
X30184674Y-25544500D01*
X28635326Y-25544500D01*
X28606260Y-25550281D01*
X28562262Y-25559033D01*
X28562258Y-25559035D01*
X28479400Y-25614397D01*
X28479397Y-25614400D01*
X28424035Y-25697258D01*
X28424033Y-25697262D01*
X28420531Y-25714870D01*
X28409500Y-25770326D01*
X28409500Y-26469674D01*
X28424034Y-26542740D01*
X28424035Y-26542741D01*
X28479397Y-26625599D01*
X28479400Y-26625602D01*
X28507019Y-26644056D01*
X28562260Y-26680966D01*
X28635326Y-26695500D01*
X28635328Y-26695500D01*
X30184672Y-26695500D01*
X30184674Y-26695500D01*
X30257740Y-26680966D01*
X30340601Y-26625601D01*
X30374002Y-26575611D01*
X30381321Y-26570721D01*
X30383565Y-26570500D01*
X31238632Y-26570500D01*
X31246764Y-26573868D01*
X32796132Y-28123235D01*
X32799500Y-28131367D01*
X32799500Y-28444633D01*
X32796132Y-28452765D01*
X32788000Y-28456133D01*
X32779868Y-28452765D01*
X31416667Y-27089564D01*
X31416237Y-27089082D01*
X31389881Y-27056032D01*
X31389880Y-27056031D01*
X31381609Y-27050392D01*
X31340728Y-27022519D01*
X31323039Y-27009464D01*
X31292884Y-26987208D01*
X31292883Y-26987207D01*
X31289167Y-26985907D01*
X31286201Y-26984869D01*
X31283526Y-26983518D01*
X31277673Y-26979528D01*
X31277672Y-26979527D01*
X31220822Y-26961992D01*
X31164696Y-26942353D01*
X31157623Y-26942088D01*
X31154667Y-26941586D01*
X31147902Y-26939500D01*
X31147900Y-26939500D01*
X31088426Y-26939500D01*
X31028992Y-26937276D01*
X31028987Y-26937276D01*
X31023925Y-26938632D01*
X31022151Y-26939108D01*
X31019177Y-26939500D01*
X30383565Y-26939500D01*
X30375433Y-26936132D01*
X30374003Y-26934389D01*
X30340602Y-26884400D01*
X30340599Y-26884397D01*
X30285360Y-26847489D01*
X30257740Y-26829034D01*
X30257738Y-26829033D01*
X30257737Y-26829033D01*
X30220957Y-26821717D01*
X30184674Y-26814500D01*
X28635326Y-26814500D01*
X28606260Y-26820281D01*
X28562262Y-26829033D01*
X28562258Y-26829035D01*
X28479400Y-26884397D01*
X28479397Y-26884400D01*
X28424035Y-26967258D01*
X28424033Y-26967262D01*
X28409500Y-27040327D01*
X28409500Y-27739672D01*
X28423965Y-27812396D01*
X28424034Y-27812740D01*
X28428452Y-27819352D01*
X28479397Y-27895599D01*
X28479399Y-27895601D01*
X28562260Y-27950966D01*
X28635326Y-27965500D01*
X28635328Y-27965500D01*
X30184672Y-27965500D01*
X30184674Y-27965500D01*
X30257740Y-27950966D01*
X30340601Y-27895601D01*
X30374002Y-27845611D01*
X30381321Y-27840721D01*
X30383565Y-27840500D01*
X30888632Y-27840500D01*
X30896764Y-27843868D01*
X32146131Y-29093235D01*
X32149499Y-29101367D01*
X32149500Y-29875535D01*
X32146132Y-29883667D01*
X32138000Y-29887035D01*
X32129868Y-29883667D01*
X32126701Y-29877673D01*
X32124212Y-29864520D01*
X32117666Y-29821096D01*
X32115348Y-29805713D01*
X32112278Y-29799339D01*
X32111338Y-29796484D01*
X32110843Y-29793868D01*
X32110023Y-29789528D01*
X32082226Y-29736936D01*
X32056425Y-29683358D01*
X32051607Y-29678166D01*
X32049871Y-29675719D01*
X32048892Y-29673867D01*
X32046565Y-29669462D01*
X32004516Y-29627413D01*
X31964055Y-29583806D01*
X31964054Y-29583805D01*
X31957924Y-29580266D01*
X31955542Y-29578439D01*
X30736667Y-28359564D01*
X30736237Y-28359082D01*
X30709881Y-28326032D01*
X30709880Y-28326031D01*
X30660728Y-28292519D01*
X30612884Y-28257208D01*
X30612883Y-28257207D01*
X30609167Y-28255907D01*
X30606201Y-28254869D01*
X30603526Y-28253518D01*
X30597673Y-28249528D01*
X30597672Y-28249527D01*
X30540822Y-28231992D01*
X30484696Y-28212353D01*
X30477623Y-28212088D01*
X30474667Y-28211586D01*
X30467902Y-28209500D01*
X30467900Y-28209500D01*
X30408426Y-28209500D01*
X30382490Y-28208528D01*
X30374490Y-28204857D01*
X30373359Y-28203425D01*
X30340602Y-28154400D01*
X30340599Y-28154397D01*
X30257741Y-28099035D01*
X30257742Y-28099035D01*
X30257740Y-28099034D01*
X30257738Y-28099033D01*
X30257737Y-28099033D01*
X30220957Y-28091717D01*
X30184674Y-28084500D01*
X28635326Y-28084500D01*
X28606260Y-28090281D01*
X28562262Y-28099033D01*
X28562258Y-28099035D01*
X28479400Y-28154397D01*
X28479397Y-28154400D01*
X28424035Y-28237258D01*
X28424033Y-28237262D01*
X28420531Y-28254870D01*
X28409500Y-28310326D01*
X28409500Y-29009674D01*
X28412932Y-29026926D01*
X28423394Y-29079526D01*
X28424034Y-29082740D01*
X28432456Y-29095345D01*
X28479397Y-29165599D01*
X28479400Y-29165602D01*
X28507019Y-29184056D01*
X28562260Y-29220966D01*
X28635326Y-29235500D01*
X28635328Y-29235500D01*
X30184672Y-29235500D01*
X30184674Y-29235500D01*
X30257740Y-29220966D01*
X30289531Y-29199723D01*
X30298161Y-29198007D01*
X30304050Y-29201154D01*
X31226132Y-30123235D01*
X31229500Y-30131367D01*
X31229500Y-31134373D01*
X31229464Y-31135017D01*
X31224730Y-31177035D01*
X31235787Y-31235479D01*
X31244652Y-31294289D01*
X31247721Y-31300661D01*
X31248659Y-31303511D01*
X31249976Y-31310472D01*
X31277777Y-31363072D01*
X31303576Y-31416644D01*
X31308387Y-31421829D01*
X31310124Y-31424276D01*
X31313435Y-31430539D01*
X31355495Y-31472598D01*
X31395062Y-31515243D01*
X31395945Y-31516194D01*
X31402073Y-31519732D01*
X31404454Y-31521558D01*
X31646132Y-31763235D01*
X31649500Y-31771367D01*
X31649500Y-35614373D01*
X31649464Y-35615017D01*
X31644730Y-35657035D01*
X31655787Y-35715479D01*
X31664652Y-35774289D01*
X31667721Y-35780661D01*
X31668659Y-35783511D01*
X31669976Y-35790472D01*
X31697777Y-35843072D01*
X31723576Y-35896644D01*
X31728387Y-35901829D01*
X31730123Y-35904274D01*
X31733434Y-35910538D01*
X31775496Y-35952600D01*
X31815945Y-35996194D01*
X31822073Y-35999732D01*
X31824454Y-36001558D01*
X32383335Y-36560439D01*
X32383765Y-36560921D01*
X32410118Y-36593967D01*
X32410119Y-36593968D01*
X32410121Y-36593970D01*
X32459265Y-36627476D01*
X32507117Y-36662792D01*
X32513676Y-36665087D01*
X32513793Y-36665128D01*
X32516473Y-36666481D01*
X32522327Y-36670472D01*
X32579179Y-36688008D01*
X32635300Y-36707646D01*
X32642376Y-36707910D01*
X32645331Y-36708412D01*
X32652098Y-36710500D01*
X32652099Y-36710500D01*
X32711573Y-36710500D01*
X32771010Y-36712724D01*
X32777848Y-36710891D01*
X32780823Y-36710500D01*
X33428632Y-36710500D01*
X33436764Y-36713868D01*
X33580094Y-36857198D01*
X33583462Y-36865330D01*
X33580094Y-36873462D01*
X33571962Y-36876830D01*
X33565573Y-36874892D01*
X33542546Y-36859506D01*
X33542542Y-36859504D01*
X33469622Y-36845000D01*
X32745001Y-36845000D01*
X32745000Y-36845001D01*
X32745000Y-37294999D01*
X32745001Y-37295000D01*
X33694999Y-37295000D01*
X33695000Y-37294999D01*
X33695000Y-37070377D01*
X33680495Y-36997457D01*
X33680493Y-36997453D01*
X33665106Y-36974425D01*
X33663389Y-36965793D01*
X33668279Y-36958474D01*
X33676911Y-36956757D01*
X33682800Y-36959904D01*
X33896132Y-37173235D01*
X33899500Y-37181367D01*
X33899500Y-37948631D01*
X33896132Y-37956763D01*
X33652690Y-38200204D01*
X33644558Y-38203572D01*
X33636426Y-38200204D01*
X33634996Y-38198460D01*
X33625604Y-38184402D01*
X33625599Y-38184397D01*
X33542741Y-38129035D01*
X33542742Y-38129035D01*
X33542740Y-38129034D01*
X33542738Y-38129033D01*
X33542737Y-38129033D01*
X33505957Y-38121717D01*
X33469674Y-38114500D01*
X31770326Y-38114500D01*
X31741260Y-38120281D01*
X31697262Y-38129033D01*
X31697258Y-38129035D01*
X31614400Y-38184397D01*
X31614397Y-38184400D01*
X31559035Y-38267258D01*
X31559033Y-38267262D01*
X31544499Y-38340327D01*
X31544499Y-39039672D01*
X31559033Y-39112737D01*
X31559034Y-39112740D01*
X31565407Y-39122278D01*
X31614397Y-39195599D01*
X31614400Y-39195602D01*
X31642019Y-39214056D01*
X31697260Y-39250966D01*
X31770326Y-39265500D01*
X31770328Y-39265500D01*
X33469672Y-39265500D01*
X33469674Y-39265500D01*
X33542740Y-39250966D01*
X33625601Y-39195601D01*
X33659002Y-39145611D01*
X33666321Y-39140721D01*
X33668565Y-39140500D01*
X33774373Y-39140500D01*
X33775017Y-39140536D01*
X33779776Y-39141072D01*
X33817035Y-39145270D01*
X33828467Y-39143106D01*
X33875479Y-39134212D01*
X33907279Y-39129418D01*
X33934287Y-39125348D01*
X33935524Y-39124751D01*
X33940661Y-39122278D01*
X33943514Y-39121338D01*
X33950472Y-39120023D01*
X34003072Y-39092222D01*
X34056642Y-39066425D01*
X34061833Y-39061607D01*
X34064272Y-39059877D01*
X34070538Y-39056566D01*
X34112599Y-39014504D01*
X34156194Y-38974055D01*
X34159732Y-38967925D01*
X34161556Y-38965546D01*
X34376867Y-38750234D01*
X34384999Y-38746867D01*
X34393131Y-38750235D01*
X34805831Y-39162934D01*
X34806261Y-39163416D01*
X34832618Y-39196467D01*
X34832619Y-39196468D01*
X34832621Y-39196470D01*
X34875200Y-39225500D01*
X34881771Y-39229980D01*
X34911037Y-39251579D01*
X34914983Y-39256813D01*
X34956203Y-39367329D01*
X34956203Y-39367330D01*
X34956204Y-39367331D01*
X35042454Y-39482546D01*
X35064159Y-39498794D01*
X35068650Y-39506363D01*
X35066473Y-39514892D01*
X35058904Y-39519383D01*
X35057267Y-39519500D01*
X29835627Y-39519500D01*
X29834983Y-39519464D01*
X29805408Y-39516132D01*
X29792965Y-39514730D01*
X29792964Y-39514730D01*
X29734520Y-39525787D01*
X29675713Y-39534652D01*
X29669333Y-39537723D01*
X29666486Y-39538660D01*
X29659527Y-39539976D01*
X29606927Y-39567777D01*
X29553357Y-39593575D01*
X29548168Y-39598388D01*
X29545725Y-39600122D01*
X29539460Y-39603435D01*
X29497400Y-39645495D01*
X29453806Y-39685944D01*
X29453805Y-39685945D01*
X29450265Y-39692075D01*
X29448439Y-39694455D01*
X28629564Y-40513331D01*
X28629083Y-40513761D01*
X28596032Y-40540118D01*
X28596031Y-40540119D01*
X28562519Y-40589271D01*
X28527208Y-40637115D01*
X28527206Y-40637118D01*
X28526898Y-40638000D01*
X28525569Y-40641798D01*
X28519705Y-40648361D01*
X28514715Y-40649500D01*
X28418486Y-40649500D01*
X28410354Y-40646132D01*
X28406986Y-40638043D01*
X28406983Y-40637115D01*
X28396274Y-37769622D01*
X31545000Y-37769622D01*
X31559504Y-37842542D01*
X31559506Y-37842546D01*
X31614758Y-37925238D01*
X31614761Y-37925241D01*
X31697453Y-37980493D01*
X31697457Y-37980495D01*
X31770378Y-37995000D01*
X32494999Y-37995000D01*
X32495000Y-37994999D01*
X32745000Y-37994999D01*
X32745001Y-37995000D01*
X33469622Y-37995000D01*
X33542542Y-37980495D01*
X33542546Y-37980493D01*
X33625238Y-37925241D01*
X33625241Y-37925238D01*
X33680493Y-37842546D01*
X33680495Y-37842542D01*
X33695000Y-37769622D01*
X33695000Y-37545001D01*
X33694999Y-37545000D01*
X32745001Y-37545000D01*
X32745000Y-37545001D01*
X32745000Y-37994999D01*
X32495000Y-37994999D01*
X32495000Y-37545001D01*
X32494999Y-37545000D01*
X31545001Y-37545000D01*
X31545000Y-37545001D01*
X31545000Y-37769622D01*
X28396274Y-37769622D01*
X28394501Y-37294999D01*
X31545000Y-37294999D01*
X31545001Y-37295000D01*
X32494999Y-37295000D01*
X32495000Y-37294999D01*
X32495000Y-36845001D01*
X32494999Y-36845000D01*
X31770378Y-36845000D01*
X31697457Y-36859504D01*
X31697453Y-36859506D01*
X31614761Y-36914758D01*
X31614758Y-36914761D01*
X31559506Y-36997453D01*
X31559504Y-36997457D01*
X31545000Y-37070377D01*
X31545000Y-37294999D01*
X28394501Y-37294999D01*
X28390000Y-36090000D01*
X28181800Y-36088736D01*
X15221430Y-36010069D01*
X15213319Y-36006651D01*
X15210000Y-35998569D01*
X15210000Y-35324674D01*
X18349500Y-35324674D01*
X18364034Y-35397740D01*
X18364035Y-35397741D01*
X18419397Y-35480599D01*
X18419399Y-35480601D01*
X18502260Y-35535966D01*
X18575326Y-35550500D01*
X18575328Y-35550500D01*
X20324672Y-35550500D01*
X20324674Y-35550500D01*
X20397740Y-35535966D01*
X20480601Y-35480601D01*
X20535966Y-35397740D01*
X20550500Y-35324674D01*
X20550500Y-33575326D01*
X20535966Y-33502260D01*
X20480601Y-33419399D01*
X20480599Y-33419397D01*
X20411753Y-33373397D01*
X20397740Y-33364034D01*
X20397738Y-33364033D01*
X20397737Y-33364033D01*
X20360957Y-33356717D01*
X20324674Y-33349500D01*
X18575326Y-33349500D01*
X18546259Y-33355281D01*
X18502262Y-33364033D01*
X18502258Y-33364035D01*
X18419400Y-33419397D01*
X18419397Y-33419400D01*
X18364035Y-33502258D01*
X18364033Y-33502262D01*
X18362695Y-33508990D01*
X18349500Y-33575326D01*
X18349500Y-35324674D01*
X15210000Y-35324674D01*
X15210000Y-31910000D01*
X18344785Y-31910000D01*
X18363602Y-32113080D01*
X18419418Y-32309251D01*
X18510327Y-32491822D01*
X18510329Y-32491825D01*
X18633228Y-32654570D01*
X18633231Y-32654573D01*
X18633236Y-32654579D01*
X18783959Y-32791981D01*
X18957363Y-32899348D01*
X18957371Y-32899351D01*
X18957373Y-32899352D01*
X19147538Y-32973022D01*
X19147539Y-32973022D01*
X19147544Y-32973024D01*
X19348024Y-33010500D01*
X19551976Y-33010500D01*
X19752456Y-32973024D01*
X19942637Y-32899348D01*
X20116041Y-32791981D01*
X20266764Y-32654579D01*
X20389673Y-32491821D01*
X20480582Y-32309250D01*
X20536397Y-32113083D01*
X20555215Y-31910000D01*
X20536397Y-31706917D01*
X20480582Y-31510750D01*
X20389673Y-31328179D01*
X20389672Y-31328178D01*
X20389672Y-31328177D01*
X20389670Y-31328174D01*
X20266771Y-31165429D01*
X20266767Y-31165426D01*
X20266764Y-31165421D01*
X20116041Y-31028019D01*
X20116040Y-31028018D01*
X20000059Y-30956206D01*
X19942637Y-30920652D01*
X19942632Y-30920650D01*
X19942626Y-30920647D01*
X19752461Y-30846977D01*
X19551978Y-30809500D01*
X19551976Y-30809500D01*
X19348024Y-30809500D01*
X19348021Y-30809500D01*
X19147538Y-30846977D01*
X18957373Y-30920647D01*
X18957361Y-30920653D01*
X18783959Y-31028018D01*
X18706500Y-31098632D01*
X18633236Y-31165421D01*
X18633234Y-31165423D01*
X18633228Y-31165429D01*
X18510329Y-31328174D01*
X18510327Y-31328177D01*
X18419418Y-31510748D01*
X18363602Y-31706919D01*
X18344785Y-31910000D01*
X15210000Y-31910000D01*
X15210000Y-29370000D01*
X18344785Y-29370000D01*
X18363602Y-29573080D01*
X18419418Y-29769251D01*
X18510327Y-29951822D01*
X18510329Y-29951825D01*
X18633228Y-30114570D01*
X18633231Y-30114573D01*
X18633236Y-30114579D01*
X18783959Y-30251981D01*
X18957363Y-30359348D01*
X18957371Y-30359351D01*
X18957373Y-30359352D01*
X19147538Y-30433022D01*
X19147539Y-30433022D01*
X19147544Y-30433024D01*
X19348024Y-30470500D01*
X19551976Y-30470500D01*
X19752456Y-30433024D01*
X19942637Y-30359348D01*
X20116041Y-30251981D01*
X20266764Y-30114579D01*
X20328876Y-30032330D01*
X20389670Y-29951825D01*
X20389672Y-29951822D01*
X20389671Y-29951822D01*
X20389673Y-29951821D01*
X20480582Y-29769250D01*
X20536397Y-29573083D01*
X20555215Y-29370000D01*
X20536397Y-29166917D01*
X20480582Y-28970750D01*
X20389673Y-28788179D01*
X20389672Y-28788178D01*
X20389672Y-28788177D01*
X20389670Y-28788174D01*
X20266771Y-28625429D01*
X20266767Y-28625426D01*
X20266764Y-28625421D01*
X20116041Y-28488019D01*
X20116040Y-28488018D01*
X19976093Y-28401367D01*
X19942637Y-28380652D01*
X19942632Y-28380650D01*
X19942626Y-28380647D01*
X19752461Y-28306977D01*
X19752450Y-28306975D01*
X19722633Y-28301401D01*
X19551978Y-28269500D01*
X19551976Y-28269500D01*
X19348024Y-28269500D01*
X19348021Y-28269500D01*
X19147538Y-28306977D01*
X18957373Y-28380647D01*
X18957361Y-28380653D01*
X18783959Y-28488018D01*
X18695659Y-28568514D01*
X18633236Y-28625421D01*
X18633234Y-28625423D01*
X18633228Y-28625429D01*
X18510329Y-28788174D01*
X18510327Y-28788177D01*
X18419418Y-28970748D01*
X18363602Y-29166919D01*
X18344785Y-29370000D01*
X15210000Y-29370000D01*
X15210000Y-24415000D01*
X18356870Y-24415000D01*
X18364096Y-24492986D01*
X18364096Y-24492988D01*
X18419886Y-24689069D01*
X18510754Y-24871557D01*
X18510756Y-24871560D01*
X18633599Y-25034231D01*
X18784265Y-25171583D01*
X18957577Y-25278893D01*
X18957597Y-25278903D01*
X19147680Y-25352541D01*
X19325000Y-25385686D01*
X19325000Y-24777169D01*
X19414237Y-24790000D01*
X19485763Y-24790000D01*
X19575000Y-24777169D01*
X19575000Y-25385686D01*
X19752319Y-25352541D01*
X19942402Y-25278903D01*
X19942422Y-25278893D01*
X20115734Y-25171583D01*
X20266400Y-25034231D01*
X20389243Y-24871560D01*
X20389245Y-24871557D01*
X20480113Y-24689069D01*
X20535903Y-24492988D01*
X20535903Y-24492986D01*
X20543130Y-24415000D01*
X19934405Y-24415000D01*
X19950000Y-24361889D01*
X19950000Y-24218111D01*
X19934405Y-24165000D01*
X20543129Y-24165000D01*
X20535903Y-24087013D01*
X20535903Y-24087011D01*
X20480113Y-23890930D01*
X20389245Y-23708442D01*
X20389243Y-23708439D01*
X20266400Y-23545768D01*
X20115734Y-23408416D01*
X19942422Y-23301106D01*
X19942402Y-23301096D01*
X19752324Y-23227460D01*
X19575000Y-23194311D01*
X19574999Y-23194312D01*
X19574999Y-23802830D01*
X19485763Y-23790000D01*
X19414237Y-23790000D01*
X19325000Y-23802830D01*
X19325000Y-23194312D01*
X19324999Y-23194311D01*
X19147675Y-23227460D01*
X18957597Y-23301096D01*
X18957577Y-23301106D01*
X18784265Y-23408416D01*
X18633599Y-23545768D01*
X18510756Y-23708439D01*
X18510754Y-23708442D01*
X18419886Y-23890930D01*
X18364096Y-24087011D01*
X18364096Y-24087013D01*
X18356870Y-24165000D01*
X18965595Y-24165000D01*
X18950000Y-24218111D01*
X18950000Y-24361889D01*
X18965595Y-24415000D01*
X18356870Y-24415000D01*
X15210000Y-24415000D01*
X15210000Y-20527035D01*
X17804730Y-20527035D01*
X17815787Y-20585479D01*
X17824652Y-20644289D01*
X17827721Y-20650661D01*
X17828659Y-20653511D01*
X17829976Y-20660472D01*
X17857777Y-20713072D01*
X17883576Y-20766644D01*
X17888387Y-20771829D01*
X17890123Y-20774274D01*
X17893434Y-20780538D01*
X17935496Y-20822600D01*
X17975945Y-20866194D01*
X17982073Y-20869732D01*
X17984454Y-20871558D01*
X19433335Y-22320439D01*
X19433765Y-22320921D01*
X19460118Y-22353967D01*
X19460119Y-22353968D01*
X19460121Y-22353970D01*
X19509265Y-22387476D01*
X19557117Y-22422792D01*
X19563676Y-22425087D01*
X19563793Y-22425128D01*
X19566473Y-22426481D01*
X19572327Y-22430472D01*
X19629179Y-22448008D01*
X19685300Y-22467646D01*
X19692376Y-22467910D01*
X19695331Y-22468412D01*
X19702098Y-22470500D01*
X19702099Y-22470500D01*
X19761573Y-22470500D01*
X19821010Y-22472724D01*
X19827848Y-22470891D01*
X19830823Y-22470500D01*
X21708632Y-22470500D01*
X21716764Y-22473868D01*
X23497765Y-24254868D01*
X23501133Y-24263000D01*
X23497765Y-24271132D01*
X23489633Y-24274500D01*
X23235326Y-24274500D01*
X23206260Y-24280281D01*
X23162262Y-24289033D01*
X23162258Y-24289035D01*
X23079400Y-24344397D01*
X23079397Y-24344400D01*
X23024035Y-24427258D01*
X23024033Y-24427262D01*
X23013108Y-24482184D01*
X23009500Y-24500326D01*
X23009500Y-25199674D01*
X23024034Y-25272740D01*
X23024035Y-25272741D01*
X23079397Y-25355599D01*
X23079399Y-25355601D01*
X23162260Y-25410966D01*
X23235326Y-25425500D01*
X23235328Y-25425500D01*
X24784672Y-25425500D01*
X24784674Y-25425500D01*
X24857740Y-25410966D01*
X24940601Y-25355601D01*
X24995966Y-25272740D01*
X25010500Y-25199674D01*
X25010500Y-24500326D01*
X24995966Y-24427260D01*
X24940601Y-24344399D01*
X24940599Y-24344397D01*
X24857741Y-24289035D01*
X24857742Y-24289035D01*
X24857740Y-24289034D01*
X24857738Y-24289033D01*
X24857737Y-24289033D01*
X24820957Y-24281717D01*
X24784674Y-24274500D01*
X24784672Y-24274500D01*
X24472000Y-24274500D01*
X24463868Y-24271132D01*
X24460500Y-24263000D01*
X24460500Y-24155625D01*
X24460536Y-24154981D01*
X24460768Y-24152919D01*
X24465270Y-24112965D01*
X24459062Y-24080156D01*
X24454211Y-24054511D01*
X24448992Y-24019893D01*
X24445348Y-23995713D01*
X24442278Y-23989338D01*
X24441341Y-23986493D01*
X24440024Y-23979529D01*
X24412222Y-23926926D01*
X24386425Y-23873358D01*
X24386423Y-23873356D01*
X24386423Y-23873355D01*
X24381608Y-23868165D01*
X24379872Y-23865718D01*
X24379518Y-23865048D01*
X24376566Y-23859463D01*
X24334516Y-23817413D01*
X24294055Y-23773806D01*
X24294054Y-23773805D01*
X24287924Y-23770266D01*
X24285542Y-23768439D01*
X22236667Y-21719564D01*
X22236237Y-21719082D01*
X22209881Y-21686032D01*
X22209880Y-21686031D01*
X22194409Y-21675483D01*
X22160728Y-21652519D01*
X22121512Y-21623576D01*
X22112884Y-21617208D01*
X22112883Y-21617207D01*
X22109167Y-21615907D01*
X22106201Y-21614869D01*
X22103526Y-21613518D01*
X22097673Y-21609528D01*
X22097672Y-21609527D01*
X22040822Y-21591992D01*
X21984696Y-21572353D01*
X21977623Y-21572088D01*
X21974667Y-21571586D01*
X21967902Y-21569500D01*
X21967900Y-21569500D01*
X21908426Y-21569500D01*
X21848992Y-21567276D01*
X21848987Y-21567276D01*
X21843925Y-21568632D01*
X21842151Y-21569108D01*
X21839177Y-21569500D01*
X19961367Y-21569500D01*
X19953235Y-21566132D01*
X18713868Y-20326765D01*
X18710500Y-20318633D01*
X18710500Y-18001367D01*
X18713868Y-17993235D01*
X19663235Y-17043868D01*
X19671367Y-17040500D01*
X34048632Y-17040500D01*
X34056764Y-17043868D01*
X43376132Y-26363235D01*
X43379500Y-26371367D01*
X43379500Y-35998632D01*
X43376132Y-36006764D01*
X43003154Y-36379741D01*
X42995022Y-36383109D01*
X42986890Y-36379741D01*
X42985816Y-36378501D01*
X42977547Y-36367456D01*
X42977546Y-36367454D01*
X42862331Y-36281204D01*
X42782117Y-36251286D01*
X42727481Y-36230908D01*
X42667873Y-36224500D01*
X41672127Y-36224500D01*
X41612518Y-36230908D01*
X41612517Y-36230909D01*
X41477669Y-36281204D01*
X41477666Y-36281206D01*
X41362456Y-36367452D01*
X41362452Y-36367456D01*
X41276206Y-36482666D01*
X41276204Y-36482669D01*
X41225908Y-36617518D01*
X41219500Y-36677126D01*
X41219500Y-37297872D01*
X41225908Y-37357481D01*
X41225909Y-37357483D01*
X41276204Y-37492331D01*
X41362454Y-37607546D01*
X41477669Y-37693796D01*
X41612517Y-37744091D01*
X41672127Y-37750500D01*
X42667872Y-37750499D01*
X42727483Y-37744091D01*
X42862331Y-37693796D01*
X42977546Y-37607546D01*
X43063796Y-37492331D01*
X43082501Y-37442177D01*
X43088498Y-37435736D01*
X43091133Y-37434898D01*
X43103532Y-37432552D01*
X43107980Y-37431711D01*
X43116842Y-37430375D01*
X43166787Y-37422848D01*
X43168024Y-37422251D01*
X43173161Y-37419778D01*
X43176014Y-37418838D01*
X43182972Y-37417523D01*
X43235572Y-37389722D01*
X43289142Y-37363925D01*
X43294333Y-37359107D01*
X43296772Y-37357377D01*
X43303038Y-37354066D01*
X43345099Y-37312004D01*
X43388694Y-37271555D01*
X43392232Y-37265425D01*
X43394056Y-37263046D01*
X44130435Y-36526666D01*
X44130907Y-36526244D01*
X44163970Y-36499879D01*
X44197480Y-36450728D01*
X44232793Y-36402882D01*
X44235130Y-36396200D01*
X44236483Y-36393522D01*
X44238876Y-36390014D01*
X44240472Y-36387673D01*
X44258006Y-36330827D01*
X44277646Y-36274700D01*
X44277910Y-36267621D01*
X44278411Y-36264670D01*
X44280500Y-36257902D01*
X44280500Y-36198426D01*
X44282724Y-36138990D01*
X44280892Y-36132152D01*
X44280500Y-36129176D01*
X44280500Y-26205625D01*
X44280536Y-26204981D01*
X44280768Y-26202919D01*
X44285270Y-26162965D01*
X44280318Y-26136795D01*
X44274212Y-26104520D01*
X44268992Y-26069897D01*
X44265348Y-26045713D01*
X44262278Y-26039339D01*
X44261338Y-26036484D01*
X44260023Y-26029529D01*
X44260023Y-26029528D01*
X44232222Y-25976927D01*
X44206425Y-25923358D01*
X44206423Y-25923356D01*
X44206423Y-25923355D01*
X44201611Y-25918169D01*
X44199874Y-25915721D01*
X44196566Y-25909462D01*
X44154503Y-25867399D01*
X44114055Y-25823806D01*
X44114054Y-25823805D01*
X44107926Y-25820267D01*
X44105544Y-25818440D01*
X34576667Y-16289564D01*
X34576237Y-16289082D01*
X34549881Y-16256032D01*
X34549880Y-16256031D01*
X34500728Y-16222519D01*
X34452884Y-16187208D01*
X34452883Y-16187207D01*
X34449167Y-16185907D01*
X34446201Y-16184869D01*
X34443526Y-16183518D01*
X34437673Y-16179528D01*
X34437672Y-16179527D01*
X34380822Y-16161992D01*
X34324696Y-16142353D01*
X34317623Y-16142088D01*
X34314667Y-16141586D01*
X34307902Y-16139500D01*
X34307900Y-16139500D01*
X34248426Y-16139500D01*
X34188992Y-16137276D01*
X34188987Y-16137276D01*
X34183925Y-16138632D01*
X34182151Y-16139108D01*
X34179177Y-16139500D01*
X19505627Y-16139500D01*
X19504983Y-16139464D01*
X19479658Y-16136610D01*
X19462965Y-16134730D01*
X19462964Y-16134730D01*
X19404511Y-16145788D01*
X19345713Y-16154652D01*
X19345712Y-16154652D01*
X19339334Y-16157722D01*
X19336488Y-16158658D01*
X19329528Y-16159976D01*
X19325714Y-16161992D01*
X19276926Y-16187777D01*
X19250141Y-16200676D01*
X19223357Y-16213575D01*
X19218168Y-16218389D01*
X19215724Y-16220123D01*
X19209463Y-16223433D01*
X19167413Y-16265483D01*
X19123806Y-16305944D01*
X19123805Y-16305945D01*
X19120264Y-16312077D01*
X19118438Y-16314457D01*
X17959564Y-17473331D01*
X17959083Y-17473761D01*
X17926032Y-17500118D01*
X17926031Y-17500119D01*
X17892519Y-17549271D01*
X17857208Y-17597115D01*
X17857205Y-17597120D01*
X17854870Y-17603794D01*
X17853518Y-17606473D01*
X17849528Y-17612324D01*
X17831992Y-17669177D01*
X17812353Y-17725302D01*
X17812353Y-17725304D01*
X17812088Y-17732377D01*
X17811586Y-17735331D01*
X17809500Y-17742098D01*
X17809500Y-17742100D01*
X17809500Y-17801573D01*
X17807276Y-17861007D01*
X17807276Y-17861012D01*
X17809108Y-17867846D01*
X17809500Y-17870823D01*
X17809500Y-20484373D01*
X17809464Y-20485017D01*
X17804730Y-20527035D01*
X15210000Y-20527035D01*
X15210000Y-15021496D01*
X15213368Y-15013364D01*
X15221495Y-15009996D01*
X43159000Y-15000500D01*
X44618500Y-15000500D01*
X44626632Y-15003868D01*
G37*
%TD.AperFunction*%
%TD*%
M02*
