%TF.GenerationSoftware,KiCad,Pcbnew,7.0.6-1.fc38*%
%TF.CreationDate,2023-08-19T18:40:52-03:00*%
%TF.ProjectId,CeilingFanControl,4365696c-696e-4674-9661-6e436f6e7472,rev?*%
%TF.SameCoordinates,Original*%
%TF.FileFunction,Legend,Top*%
%TF.FilePolarity,Positive*%
%FSLAX46Y46*%
G04 Gerber Fmt 4.6, Leading zero omitted, Abs format (unit mm)*
G04 Created by KiCad (PCBNEW 7.0.6-1.fc38) date 2023-08-19 18:40:52*
%MOMM*%
%LPD*%
G01*
G04 APERTURE LIST*
%ADD10C,0.150000*%
%ADD11C,0.120000*%
%ADD12C,0.100000*%
G04 APERTURE END LIST*
D10*
X34966666Y-18754819D02*
X34966666Y-19469104D01*
X34966666Y-19469104D02*
X34919047Y-19611961D01*
X34919047Y-19611961D02*
X34823809Y-19707200D01*
X34823809Y-19707200D02*
X34680952Y-19754819D01*
X34680952Y-19754819D02*
X34585714Y-19754819D01*
X35395238Y-18850057D02*
X35442857Y-18802438D01*
X35442857Y-18802438D02*
X35538095Y-18754819D01*
X35538095Y-18754819D02*
X35776190Y-18754819D01*
X35776190Y-18754819D02*
X35871428Y-18802438D01*
X35871428Y-18802438D02*
X35919047Y-18850057D01*
X35919047Y-18850057D02*
X35966666Y-18945295D01*
X35966666Y-18945295D02*
X35966666Y-19040533D01*
X35966666Y-19040533D02*
X35919047Y-19183390D01*
X35919047Y-19183390D02*
X35347619Y-19754819D01*
X35347619Y-19754819D02*
X35966666Y-19754819D01*
X15966666Y-61724819D02*
X15966666Y-62439104D01*
X15966666Y-62439104D02*
X15919047Y-62581961D01*
X15919047Y-62581961D02*
X15823809Y-62677200D01*
X15823809Y-62677200D02*
X15680952Y-62724819D01*
X15680952Y-62724819D02*
X15585714Y-62724819D01*
X16966666Y-62724819D02*
X16395238Y-62724819D01*
X16680952Y-62724819D02*
X16680952Y-61724819D01*
X16680952Y-61724819D02*
X16585714Y-61867676D01*
X16585714Y-61867676D02*
X16490476Y-61962914D01*
X16490476Y-61962914D02*
X16395238Y-62010533D01*
X16276666Y-36584819D02*
X16276666Y-37299104D01*
X16276666Y-37299104D02*
X16229047Y-37441961D01*
X16229047Y-37441961D02*
X16133809Y-37537200D01*
X16133809Y-37537200D02*
X15990952Y-37584819D01*
X15990952Y-37584819D02*
X15895714Y-37584819D01*
X16657619Y-36584819D02*
X17276666Y-36584819D01*
X17276666Y-36584819D02*
X16943333Y-36965771D01*
X16943333Y-36965771D02*
X17086190Y-36965771D01*
X17086190Y-36965771D02*
X17181428Y-37013390D01*
X17181428Y-37013390D02*
X17229047Y-37061009D01*
X17229047Y-37061009D02*
X17276666Y-37156247D01*
X17276666Y-37156247D02*
X17276666Y-37394342D01*
X17276666Y-37394342D02*
X17229047Y-37489580D01*
X17229047Y-37489580D02*
X17181428Y-37537200D01*
X17181428Y-37537200D02*
X17086190Y-37584819D01*
X17086190Y-37584819D02*
X16800476Y-37584819D01*
X16800476Y-37584819D02*
X16705238Y-37537200D01*
X16705238Y-37537200D02*
X16657619Y-37489580D01*
X39234761Y-56290057D02*
X39139523Y-56242438D01*
X39139523Y-56242438D02*
X39044285Y-56147200D01*
X39044285Y-56147200D02*
X38901428Y-56004342D01*
X38901428Y-56004342D02*
X38806190Y-55956723D01*
X38806190Y-55956723D02*
X38710952Y-55956723D01*
X38758571Y-56194819D02*
X38663333Y-56147200D01*
X38663333Y-56147200D02*
X38568095Y-56051961D01*
X38568095Y-56051961D02*
X38520476Y-55861485D01*
X38520476Y-55861485D02*
X38520476Y-55528152D01*
X38520476Y-55528152D02*
X38568095Y-55337676D01*
X38568095Y-55337676D02*
X38663333Y-55242438D01*
X38663333Y-55242438D02*
X38758571Y-55194819D01*
X38758571Y-55194819D02*
X38949047Y-55194819D01*
X38949047Y-55194819D02*
X39044285Y-55242438D01*
X39044285Y-55242438D02*
X39139523Y-55337676D01*
X39139523Y-55337676D02*
X39187142Y-55528152D01*
X39187142Y-55528152D02*
X39187142Y-55861485D01*
X39187142Y-55861485D02*
X39139523Y-56051961D01*
X39139523Y-56051961D02*
X39044285Y-56147200D01*
X39044285Y-56147200D02*
X38949047Y-56194819D01*
X38949047Y-56194819D02*
X38758571Y-56194819D01*
X39520476Y-55194819D02*
X40139523Y-55194819D01*
X40139523Y-55194819D02*
X39806190Y-55575771D01*
X39806190Y-55575771D02*
X39949047Y-55575771D01*
X39949047Y-55575771D02*
X40044285Y-55623390D01*
X40044285Y-55623390D02*
X40091904Y-55671009D01*
X40091904Y-55671009D02*
X40139523Y-55766247D01*
X40139523Y-55766247D02*
X40139523Y-56004342D01*
X40139523Y-56004342D02*
X40091904Y-56099580D01*
X40091904Y-56099580D02*
X40044285Y-56147200D01*
X40044285Y-56147200D02*
X39949047Y-56194819D01*
X39949047Y-56194819D02*
X39663333Y-56194819D01*
X39663333Y-56194819D02*
X39568095Y-56147200D01*
X39568095Y-56147200D02*
X39520476Y-56099580D01*
X38146666Y-36674819D02*
X38146666Y-37389104D01*
X38146666Y-37389104D02*
X38099047Y-37531961D01*
X38099047Y-37531961D02*
X38003809Y-37627200D01*
X38003809Y-37627200D02*
X37860952Y-37674819D01*
X37860952Y-37674819D02*
X37765714Y-37674819D01*
X39099047Y-36674819D02*
X38622857Y-36674819D01*
X38622857Y-36674819D02*
X38575238Y-37151009D01*
X38575238Y-37151009D02*
X38622857Y-37103390D01*
X38622857Y-37103390D02*
X38718095Y-37055771D01*
X38718095Y-37055771D02*
X38956190Y-37055771D01*
X38956190Y-37055771D02*
X39051428Y-37103390D01*
X39051428Y-37103390D02*
X39099047Y-37151009D01*
X39099047Y-37151009D02*
X39146666Y-37246247D01*
X39146666Y-37246247D02*
X39146666Y-37484342D01*
X39146666Y-37484342D02*
X39099047Y-37579580D01*
X39099047Y-37579580D02*
X39051428Y-37627200D01*
X39051428Y-37627200D02*
X38956190Y-37674819D01*
X38956190Y-37674819D02*
X38718095Y-37674819D01*
X38718095Y-37674819D02*
X38622857Y-37627200D01*
X38622857Y-37627200D02*
X38575238Y-37579580D01*
X27426666Y-61974819D02*
X27426666Y-62689104D01*
X27426666Y-62689104D02*
X27379047Y-62831961D01*
X27379047Y-62831961D02*
X27283809Y-62927200D01*
X27283809Y-62927200D02*
X27140952Y-62974819D01*
X27140952Y-62974819D02*
X27045714Y-62974819D01*
X28331428Y-62308152D02*
X28331428Y-62974819D01*
X28093333Y-61927200D02*
X27855238Y-62641485D01*
X27855238Y-62641485D02*
X28474285Y-62641485D01*
X27864761Y-56350057D02*
X27769523Y-56302438D01*
X27769523Y-56302438D02*
X27674285Y-56207200D01*
X27674285Y-56207200D02*
X27531428Y-56064342D01*
X27531428Y-56064342D02*
X27436190Y-56016723D01*
X27436190Y-56016723D02*
X27340952Y-56016723D01*
X27388571Y-56254819D02*
X27293333Y-56207200D01*
X27293333Y-56207200D02*
X27198095Y-56111961D01*
X27198095Y-56111961D02*
X27150476Y-55921485D01*
X27150476Y-55921485D02*
X27150476Y-55588152D01*
X27150476Y-55588152D02*
X27198095Y-55397676D01*
X27198095Y-55397676D02*
X27293333Y-55302438D01*
X27293333Y-55302438D02*
X27388571Y-55254819D01*
X27388571Y-55254819D02*
X27579047Y-55254819D01*
X27579047Y-55254819D02*
X27674285Y-55302438D01*
X27674285Y-55302438D02*
X27769523Y-55397676D01*
X27769523Y-55397676D02*
X27817142Y-55588152D01*
X27817142Y-55588152D02*
X27817142Y-55921485D01*
X27817142Y-55921485D02*
X27769523Y-56111961D01*
X27769523Y-56111961D02*
X27674285Y-56207200D01*
X27674285Y-56207200D02*
X27579047Y-56254819D01*
X27579047Y-56254819D02*
X27388571Y-56254819D01*
X28198095Y-55350057D02*
X28245714Y-55302438D01*
X28245714Y-55302438D02*
X28340952Y-55254819D01*
X28340952Y-55254819D02*
X28579047Y-55254819D01*
X28579047Y-55254819D02*
X28674285Y-55302438D01*
X28674285Y-55302438D02*
X28721904Y-55350057D01*
X28721904Y-55350057D02*
X28769523Y-55445295D01*
X28769523Y-55445295D02*
X28769523Y-55540533D01*
X28769523Y-55540533D02*
X28721904Y-55683390D01*
X28721904Y-55683390D02*
X28150476Y-56254819D01*
X28150476Y-56254819D02*
X28769523Y-56254819D01*
D11*
%TO.C,J2*%
X20540000Y-20660000D02*
X20540000Y-19330000D01*
X21870000Y-20660000D02*
X20540000Y-20660000D01*
X23140000Y-20660000D02*
X33360000Y-20660000D01*
X23140000Y-20660000D02*
X23140000Y-18000000D01*
X33360000Y-20660000D02*
X33360000Y-18000000D01*
X23140000Y-18000000D02*
X33360000Y-18000000D01*
D12*
%TO.C,J1*%
X16400000Y-63150000D02*
X26400000Y-63150000D01*
X16400000Y-70650000D02*
X16400000Y-63150000D01*
X26400000Y-63150000D02*
X26400000Y-70650000D01*
X26400000Y-70650000D02*
X16400000Y-70650000D01*
D11*
%TO.C,J3*%
X20720000Y-35720000D02*
X19450000Y-35720000D01*
X20720000Y-34450000D02*
X20720000Y-35720000D01*
X18407071Y-32290000D02*
X18010000Y-32290000D01*
X18407071Y-31530000D02*
X18010000Y-31530000D01*
X18407071Y-29750000D02*
X18010000Y-29750000D01*
X18407071Y-28990000D02*
X18010000Y-28990000D01*
X18407071Y-27210000D02*
X18010000Y-27210000D01*
X18407071Y-26450000D02*
X18010000Y-26450000D01*
X18407071Y-24670000D02*
X18010000Y-24670000D01*
X18407071Y-23910000D02*
X18010000Y-23910000D01*
X18340000Y-34830000D02*
X18010000Y-34830000D01*
X18340000Y-34070000D02*
X18010000Y-34070000D01*
X18010000Y-35780000D02*
X18010000Y-22960000D01*
X18010000Y-33180000D02*
X15350000Y-33180000D01*
X18010000Y-30640000D02*
X15350000Y-30640000D01*
X18010000Y-28100000D02*
X15350000Y-28100000D01*
X18010000Y-25560000D02*
X15350000Y-25560000D01*
X18010000Y-22960000D02*
X15350000Y-22960000D01*
X15350000Y-35780000D02*
X18010000Y-35780000D01*
X15350000Y-34830000D02*
X9350000Y-34830000D01*
X15350000Y-34770000D02*
X9350000Y-34770000D01*
X15350000Y-34650000D02*
X9350000Y-34650000D01*
X15350000Y-34530000D02*
X9350000Y-34530000D01*
X15350000Y-34410000D02*
X9350000Y-34410000D01*
X15350000Y-34290000D02*
X9350000Y-34290000D01*
X15350000Y-34170000D02*
X9350000Y-34170000D01*
X15350000Y-32290000D02*
X9350000Y-32290000D01*
X15350000Y-29750000D02*
X9350000Y-29750000D01*
X15350000Y-27210000D02*
X9350000Y-27210000D01*
X15350000Y-24670000D02*
X9350000Y-24670000D01*
X15350000Y-22960000D02*
X15350000Y-35780000D01*
X9350000Y-34830000D02*
X9350000Y-34070000D01*
X9350000Y-34070000D02*
X15350000Y-34070000D01*
X9350000Y-32290000D02*
X9350000Y-31530000D01*
X9350000Y-31530000D02*
X15350000Y-31530000D01*
X9350000Y-29750000D02*
X9350000Y-28990000D01*
X9350000Y-28990000D02*
X15350000Y-28990000D01*
X9350000Y-27210000D02*
X9350000Y-26450000D01*
X9350000Y-26450000D02*
X15350000Y-26450000D01*
X9350000Y-24670000D02*
X9350000Y-23910000D01*
X9350000Y-23910000D02*
X15350000Y-23910000D01*
%TO.C,Q3*%
X44450000Y-56740000D02*
X44450000Y-61381000D01*
X41181000Y-56740000D02*
X41181000Y-58250000D01*
X37480000Y-56740000D02*
X37480000Y-58250000D01*
X34210000Y-61381000D02*
X44450000Y-61381000D01*
X34210000Y-58250000D02*
X44450000Y-58250000D01*
X34210000Y-56740000D02*
X44450000Y-56740000D01*
X34210000Y-56740000D02*
X34210000Y-61381000D01*
%TO.C,J5*%
X44190000Y-35780000D02*
X44190000Y-22960000D01*
X44190000Y-35780000D02*
X35560000Y-35780000D01*
X44190000Y-35660000D02*
X35560000Y-35660000D01*
X44190000Y-35541905D02*
X35560000Y-35541905D01*
X44190000Y-35423810D02*
X35560000Y-35423810D01*
X44190000Y-35305715D02*
X35560000Y-35305715D01*
X44190000Y-35187620D02*
X35560000Y-35187620D01*
X44190000Y-35069525D02*
X35560000Y-35069525D01*
X44190000Y-34951430D02*
X35560000Y-34951430D01*
X44190000Y-34833335D02*
X35560000Y-34833335D01*
X44190000Y-34715240D02*
X35560000Y-34715240D01*
X44190000Y-34597145D02*
X35560000Y-34597145D01*
X44190000Y-34479050D02*
X35560000Y-34479050D01*
X44190000Y-34360955D02*
X35560000Y-34360955D01*
X44190000Y-34242860D02*
X35560000Y-34242860D01*
X44190000Y-34124765D02*
X35560000Y-34124765D01*
X44190000Y-34006670D02*
X35560000Y-34006670D01*
X44190000Y-33888575D02*
X35560000Y-33888575D01*
X44190000Y-33770480D02*
X35560000Y-33770480D01*
X44190000Y-33652385D02*
X35560000Y-33652385D01*
X44190000Y-33534290D02*
X35560000Y-33534290D01*
X44190000Y-33416195D02*
X35560000Y-33416195D01*
X44190000Y-33298100D02*
X35560000Y-33298100D01*
X44190000Y-33180000D02*
X35560000Y-33180000D01*
X44190000Y-30640000D02*
X35560000Y-30640000D01*
X44190000Y-28100000D02*
X35560000Y-28100000D01*
X44190000Y-25560000D02*
X35560000Y-25560000D01*
X44190000Y-22960000D02*
X35560000Y-22960000D01*
X35560000Y-35780000D02*
X35560000Y-22960000D01*
X35560000Y-34810000D02*
X35210000Y-34810000D01*
X35560000Y-34090000D02*
X35210000Y-34090000D01*
X35560000Y-32270000D02*
X35150000Y-32270000D01*
X35560000Y-31550000D02*
X35150000Y-31550000D01*
X35560000Y-29730000D02*
X35150000Y-29730000D01*
X35560000Y-29010000D02*
X35150000Y-29010000D01*
X35560000Y-27190000D02*
X35150000Y-27190000D01*
X35560000Y-26470000D02*
X35150000Y-26470000D01*
X35560000Y-24650000D02*
X35150000Y-24650000D01*
X35560000Y-23930000D02*
X35150000Y-23930000D01*
X34100000Y-35780000D02*
X32990000Y-35780000D01*
X32990000Y-35780000D02*
X32990000Y-34450000D01*
D12*
%TO.C,J4*%
X43550000Y-70650000D02*
X28550000Y-70650000D01*
X43550000Y-63150000D02*
X43550000Y-70650000D01*
X28550000Y-70650000D02*
X28550000Y-63150000D01*
X28550000Y-63150000D02*
X43550000Y-63150000D01*
D11*
%TO.C,Q2*%
X33080000Y-56800000D02*
X33080000Y-61441000D01*
X29811000Y-56800000D02*
X29811000Y-58310000D01*
X26110000Y-56800000D02*
X26110000Y-58310000D01*
X22840000Y-61441000D02*
X33080000Y-61441000D01*
X22840000Y-58310000D02*
X33080000Y-58310000D01*
X22840000Y-56800000D02*
X33080000Y-56800000D01*
X22840000Y-56800000D02*
X22840000Y-61441000D01*
%TD*%
M02*
