M48
; DRILL file {KiCad 7.0.6-1.fc38} date Sat 19 Aug 2023 06:40:57 PM -03
; FORMAT={-:-/ absolute / inch / decimal}
; #@! TF.CreationDate,2023-08-19T18:40:57-03:00
; #@! TF.GenerationSoftware,Kicad,Pcbnew,7.0.6-1.fc38
; #@! TF.FileFunction,Plated,1,2,PTH
FMAT,2
INCH
; #@! TA.AperFunction,Plated,PTH,ComponentDrill
T1C0.0394
; #@! TA.AperFunction,Plated,PTH,ComponentDrill
T2C0.0433
; #@! TA.AperFunction,Plated,PTH,ComponentDrill
T3C0.0551
%
G90
G05
T1
X0.7657Y-0.9563
X0.7657Y-1.0563
X0.7657Y-1.1563
X0.7657Y-1.2563
X0.7657Y-1.3563
X0.861Y-0.761
X0.961Y-0.761
X1.061Y-0.761
X1.161Y-0.761
X1.261Y-0.761
X1.3425Y-0.9563
X1.3425Y-1.0563
X1.3425Y-1.1563
X1.3425Y-1.2563
X1.3425Y-1.3563
T2
X1.0008Y-2.365
X1.1008Y-2.365
X1.2008Y-2.365
X1.4484Y-2.3626
X1.5484Y-2.3626
X1.6484Y-2.3626
T3
X0.7441Y-2.6437
X0.9409Y-2.6437
X1.2224Y-2.6437
X1.4193Y-2.6437
X1.6161Y-2.6437
T0
M30
