%TF.GenerationSoftware,KiCad,Pcbnew,7.0.6-1.fc38*%
%TF.CreationDate,2023-08-19T18:40:52-03:00*%
%TF.ProjectId,CeilingFanControl,4365696c-696e-4674-9661-6e436f6e7472,rev?*%
%TF.SameCoordinates,Original*%
%TF.FileFunction,Soldermask,Bot*%
%TF.FilePolarity,Negative*%
%FSLAX46Y46*%
G04 Gerber Fmt 4.6, Leading zero omitted, Abs format (unit mm)*
G04 Created by KiCad (PCBNEW 7.0.6-1.fc38) date 2023-08-19 18:40:52*
%MOMM*%
%LPD*%
G01*
G04 APERTURE LIST*
G04 Aperture macros list*
%AMRoundRect*
0 Rectangle with rounded corners*
0 $1 Rounding radius*
0 $2 $3 $4 $5 $6 $7 $8 $9 X,Y pos of 4 corners*
0 Add a 4 corners polygon primitive as box body*
4,1,4,$2,$3,$4,$5,$6,$7,$8,$9,$2,$3,0*
0 Add four circle primitives for the rounded corners*
1,1,$1+$1,$2,$3*
1,1,$1+$1,$4,$5*
1,1,$1+$1,$6,$7*
1,1,$1+$1,$8,$9*
0 Add four rect primitives between the rounded corners*
20,1,$1+$1,$2,$3,$4,$5,0*
20,1,$1+$1,$4,$5,$6,$7,0*
20,1,$1+$1,$6,$7,$8,$9,0*
20,1,$1+$1,$8,$9,$2,$3,0*%
G04 Aperture macros list end*
%ADD10R,1.700000X1.700000*%
%ADD11O,1.700000X1.700000*%
%ADD12C,2.100000*%
%ADD13O,1.905000X2.000000*%
%ADD14R,1.905000X2.000000*%
%ADD15R,1.350000X2.850000*%
%ADD16RoundRect,0.250000X-0.250000X-0.475000X0.250000X-0.475000X0.250000X0.475000X-0.250000X0.475000X0*%
%ADD17R,1.650000X0.650000*%
%ADD18R,1.780000X2.000000*%
%ADD19RoundRect,0.250000X0.450000X-0.262500X0.450000X0.262500X-0.450000X0.262500X-0.450000X-0.262500X0*%
%ADD20RoundRect,0.250000X-0.450000X0.262500X-0.450000X-0.262500X0.450000X-0.262500X0.450000X0.262500X0*%
%ADD21R,1.500000X0.650000*%
%ADD22RoundRect,0.249999X0.450001X1.425001X-0.450001X1.425001X-0.450001X-1.425001X0.450001X-1.425001X0*%
%ADD23RoundRect,0.250000X0.262500X0.450000X-0.262500X0.450000X-0.262500X-0.450000X0.262500X-0.450000X0*%
%ADD24RoundRect,0.225000X0.375000X-0.225000X0.375000X0.225000X-0.375000X0.225000X-0.375000X-0.225000X0*%
%ADD25R,0.500000X1.050000*%
G04 APERTURE END LIST*
D10*
%TO.C,J2*%
X21870000Y-19330000D03*
D11*
X24410000Y-19330000D03*
X26950000Y-19330000D03*
X29490000Y-19330000D03*
X32030000Y-19330000D03*
%TD*%
D12*
%TO.C,J1*%
X18900000Y-67150000D03*
X23900000Y-67150000D03*
%TD*%
D10*
%TO.C,J3*%
X19450000Y-34450000D03*
D11*
X19450000Y-31910000D03*
X19450000Y-29370000D03*
X19450000Y-26830000D03*
X19450000Y-24290000D03*
%TD*%
D13*
%TO.C,Q3*%
X41870000Y-60010000D03*
X39330000Y-60010000D03*
D14*
X36790000Y-60010000D03*
%TD*%
D10*
%TO.C,J5*%
X34100000Y-34450000D03*
D11*
X34100000Y-31910000D03*
X34100000Y-29370000D03*
X34100000Y-26830000D03*
X34100000Y-24290000D03*
%TD*%
D12*
%TO.C,J4*%
X41050000Y-67150000D03*
X36050000Y-67150000D03*
X31050000Y-67150000D03*
%TD*%
D13*
%TO.C,Q2*%
X30500000Y-60070000D03*
X27960000Y-60070000D03*
D14*
X25420000Y-60070000D03*
%TD*%
D15*
%TO.C,BR1*%
X22660000Y-52260000D03*
X17560000Y-52260000D03*
X17560000Y-44060000D03*
X22660000Y-44060000D03*
%TD*%
D16*
%TO.C,C2*%
X16350000Y-38500000D03*
X18250000Y-38500000D03*
%TD*%
%TO.C,C1*%
X17050000Y-55570000D03*
X18950000Y-55570000D03*
%TD*%
D17*
%TO.C,Q4*%
X26220000Y-38690000D03*
X26220000Y-37420000D03*
X32620000Y-37420000D03*
X32620000Y-38690000D03*
%TD*%
D18*
%TO.C,U2*%
X28930000Y-41900000D03*
X31470000Y-41900000D03*
X34010000Y-41900000D03*
X34010000Y-49520000D03*
X31470000Y-49520000D03*
X28930000Y-49520000D03*
%TD*%
D19*
%TO.C,R1*%
X19090000Y-59505000D03*
X19090000Y-57680000D03*
%TD*%
D20*
%TO.C,R4*%
X26120000Y-41010000D03*
X26120000Y-42835000D03*
%TD*%
D21*
%TO.C,IC1*%
X24010000Y-32470000D03*
X24010000Y-31200000D03*
X24010000Y-29930000D03*
X24010000Y-28660000D03*
X24010000Y-27390000D03*
X24010000Y-26120000D03*
X24010000Y-24850000D03*
X29410000Y-24850000D03*
X29410000Y-26120000D03*
X29410000Y-27390000D03*
X29410000Y-28660000D03*
X29410000Y-29930000D03*
X29410000Y-31200000D03*
X29410000Y-32470000D03*
%TD*%
D22*
%TO.C,R10*%
X31980000Y-53610000D03*
X25880000Y-53610000D03*
%TD*%
D20*
%TO.C,R5*%
X35850000Y-37037500D03*
X35850000Y-38862500D03*
%TD*%
D23*
%TO.C,R3*%
X18220000Y-40820000D03*
X16395000Y-40820000D03*
%TD*%
%TO.C,R7*%
X38825000Y-29340000D03*
X37000000Y-29340000D03*
%TD*%
D20*
%TO.C,R9*%
X42170000Y-36987500D03*
X42170000Y-38812500D03*
%TD*%
D24*
%TO.C,D1*%
X20420000Y-41510000D03*
X20420000Y-38210000D03*
%TD*%
D22*
%TO.C,R11*%
X42130000Y-53670000D03*
X36030000Y-53670000D03*
%TD*%
D18*
%TO.C,U3*%
X37730000Y-41960000D03*
X40270000Y-41960000D03*
X42810000Y-41960000D03*
X42810000Y-49580000D03*
X40270000Y-49580000D03*
X37730000Y-49580000D03*
%TD*%
D19*
%TO.C,R2*%
X16730000Y-59465000D03*
X16730000Y-57640000D03*
%TD*%
D25*
%TO.C,Q1*%
X23940000Y-40550000D03*
X22640000Y-40550000D03*
X23290000Y-38450000D03*
%TD*%
D23*
%TO.C,R6*%
X38782500Y-31850000D03*
X36957500Y-31850000D03*
%TD*%
D20*
%TO.C,R8*%
X38870000Y-36997500D03*
X38870000Y-38822500D03*
%TD*%
M02*
