%TF.GenerationSoftware,KiCad,Pcbnew,7.0.6-1.fc38*%
%TF.CreationDate,2023-08-19T18:40:52-03:00*%
%TF.ProjectId,CeilingFanControl,4365696c-696e-4674-9661-6e436f6e7472,rev?*%
%TF.SameCoordinates,Original*%
%TF.FileFunction,Legend,Bot*%
%TF.FilePolarity,Positive*%
%FSLAX46Y46*%
G04 Gerber Fmt 4.6, Leading zero omitted, Abs format (unit mm)*
G04 Created by KiCad (PCBNEW 7.0.6-1.fc38) date 2023-08-19 18:40:52*
%MOMM*%
%LPD*%
G01*
G04 APERTURE LIST*
%ADD10C,0.150000*%
%ADD11C,0.200000*%
%ADD12C,0.120000*%
G04 APERTURE END LIST*
D10*
X25531009Y-47905238D02*
X25578628Y-48048095D01*
X25578628Y-48048095D02*
X25626247Y-48095714D01*
X25626247Y-48095714D02*
X25721485Y-48143333D01*
X25721485Y-48143333D02*
X25864342Y-48143333D01*
X25864342Y-48143333D02*
X25959580Y-48095714D01*
X25959580Y-48095714D02*
X26007200Y-48048095D01*
X26007200Y-48048095D02*
X26054819Y-47952857D01*
X26054819Y-47952857D02*
X26054819Y-47571905D01*
X26054819Y-47571905D02*
X25054819Y-47571905D01*
X25054819Y-47571905D02*
X25054819Y-47905238D01*
X25054819Y-47905238D02*
X25102438Y-48000476D01*
X25102438Y-48000476D02*
X25150057Y-48048095D01*
X25150057Y-48048095D02*
X25245295Y-48095714D01*
X25245295Y-48095714D02*
X25340533Y-48095714D01*
X25340533Y-48095714D02*
X25435771Y-48048095D01*
X25435771Y-48048095D02*
X25483390Y-48000476D01*
X25483390Y-48000476D02*
X25531009Y-47905238D01*
X25531009Y-47905238D02*
X25531009Y-47571905D01*
X26054819Y-49143333D02*
X25578628Y-48810000D01*
X26054819Y-48571905D02*
X25054819Y-48571905D01*
X25054819Y-48571905D02*
X25054819Y-48952857D01*
X25054819Y-48952857D02*
X25102438Y-49048095D01*
X25102438Y-49048095D02*
X25150057Y-49095714D01*
X25150057Y-49095714D02*
X25245295Y-49143333D01*
X25245295Y-49143333D02*
X25388152Y-49143333D01*
X25388152Y-49143333D02*
X25483390Y-49095714D01*
X25483390Y-49095714D02*
X25531009Y-49048095D01*
X25531009Y-49048095D02*
X25578628Y-48952857D01*
X25578628Y-48952857D02*
X25578628Y-48571905D01*
X26054819Y-50095714D02*
X26054819Y-49524286D01*
X26054819Y-49810000D02*
X25054819Y-49810000D01*
X25054819Y-49810000D02*
X25197676Y-49714762D01*
X25197676Y-49714762D02*
X25292914Y-49619524D01*
X25292914Y-49619524D02*
X25340533Y-49524286D01*
X16406666Y-42659580D02*
X16454285Y-42707200D01*
X16454285Y-42707200D02*
X16597142Y-42754819D01*
X16597142Y-42754819D02*
X16692380Y-42754819D01*
X16692380Y-42754819D02*
X16835237Y-42707200D01*
X16835237Y-42707200D02*
X16930475Y-42611961D01*
X16930475Y-42611961D02*
X16978094Y-42516723D01*
X16978094Y-42516723D02*
X17025713Y-42326247D01*
X17025713Y-42326247D02*
X17025713Y-42183390D01*
X17025713Y-42183390D02*
X16978094Y-41992914D01*
X16978094Y-41992914D02*
X16930475Y-41897676D01*
X16930475Y-41897676D02*
X16835237Y-41802438D01*
X16835237Y-41802438D02*
X16692380Y-41754819D01*
X16692380Y-41754819D02*
X16597142Y-41754819D01*
X16597142Y-41754819D02*
X16454285Y-41802438D01*
X16454285Y-41802438D02*
X16406666Y-41850057D01*
X16025713Y-41850057D02*
X15978094Y-41802438D01*
X15978094Y-41802438D02*
X15882856Y-41754819D01*
X15882856Y-41754819D02*
X15644761Y-41754819D01*
X15644761Y-41754819D02*
X15549523Y-41802438D01*
X15549523Y-41802438D02*
X15501904Y-41850057D01*
X15501904Y-41850057D02*
X15454285Y-41945295D01*
X15454285Y-41945295D02*
X15454285Y-42040533D01*
X15454285Y-42040533D02*
X15501904Y-42183390D01*
X15501904Y-42183390D02*
X16073332Y-42754819D01*
X16073332Y-42754819D02*
X15454285Y-42754819D01*
X18126666Y-54019580D02*
X18174285Y-54067200D01*
X18174285Y-54067200D02*
X18317142Y-54114819D01*
X18317142Y-54114819D02*
X18412380Y-54114819D01*
X18412380Y-54114819D02*
X18555237Y-54067200D01*
X18555237Y-54067200D02*
X18650475Y-53971961D01*
X18650475Y-53971961D02*
X18698094Y-53876723D01*
X18698094Y-53876723D02*
X18745713Y-53686247D01*
X18745713Y-53686247D02*
X18745713Y-53543390D01*
X18745713Y-53543390D02*
X18698094Y-53352914D01*
X18698094Y-53352914D02*
X18650475Y-53257676D01*
X18650475Y-53257676D02*
X18555237Y-53162438D01*
X18555237Y-53162438D02*
X18412380Y-53114819D01*
X18412380Y-53114819D02*
X18317142Y-53114819D01*
X18317142Y-53114819D02*
X18174285Y-53162438D01*
X18174285Y-53162438D02*
X18126666Y-53210057D01*
X17174285Y-54114819D02*
X17745713Y-54114819D01*
X17459999Y-54114819D02*
X17459999Y-53114819D01*
X17459999Y-53114819D02*
X17555237Y-53257676D01*
X17555237Y-53257676D02*
X17650475Y-53352914D01*
X17650475Y-53352914D02*
X17745713Y-53400533D01*
X29545238Y-35940057D02*
X29640476Y-35892438D01*
X29640476Y-35892438D02*
X29735714Y-35797200D01*
X29735714Y-35797200D02*
X29878571Y-35654342D01*
X29878571Y-35654342D02*
X29973809Y-35606723D01*
X29973809Y-35606723D02*
X30069047Y-35606723D01*
X30021428Y-35844819D02*
X30116666Y-35797200D01*
X30116666Y-35797200D02*
X30211904Y-35701961D01*
X30211904Y-35701961D02*
X30259523Y-35511485D01*
X30259523Y-35511485D02*
X30259523Y-35178152D01*
X30259523Y-35178152D02*
X30211904Y-34987676D01*
X30211904Y-34987676D02*
X30116666Y-34892438D01*
X30116666Y-34892438D02*
X30021428Y-34844819D01*
X30021428Y-34844819D02*
X29830952Y-34844819D01*
X29830952Y-34844819D02*
X29735714Y-34892438D01*
X29735714Y-34892438D02*
X29640476Y-34987676D01*
X29640476Y-34987676D02*
X29592857Y-35178152D01*
X29592857Y-35178152D02*
X29592857Y-35511485D01*
X29592857Y-35511485D02*
X29640476Y-35701961D01*
X29640476Y-35701961D02*
X29735714Y-35797200D01*
X29735714Y-35797200D02*
X29830952Y-35844819D01*
X29830952Y-35844819D02*
X30021428Y-35844819D01*
X28735714Y-35178152D02*
X28735714Y-35844819D01*
X28973809Y-34797200D02*
X29211904Y-35511485D01*
X29211904Y-35511485D02*
X28592857Y-35511485D01*
X26544819Y-44978095D02*
X27354342Y-44978095D01*
X27354342Y-44978095D02*
X27449580Y-45025714D01*
X27449580Y-45025714D02*
X27497200Y-45073333D01*
X27497200Y-45073333D02*
X27544819Y-45168571D01*
X27544819Y-45168571D02*
X27544819Y-45359047D01*
X27544819Y-45359047D02*
X27497200Y-45454285D01*
X27497200Y-45454285D02*
X27449580Y-45501904D01*
X27449580Y-45501904D02*
X27354342Y-45549523D01*
X27354342Y-45549523D02*
X26544819Y-45549523D01*
X26640057Y-45978095D02*
X26592438Y-46025714D01*
X26592438Y-46025714D02*
X26544819Y-46120952D01*
X26544819Y-46120952D02*
X26544819Y-46359047D01*
X26544819Y-46359047D02*
X26592438Y-46454285D01*
X26592438Y-46454285D02*
X26640057Y-46501904D01*
X26640057Y-46501904D02*
X26735295Y-46549523D01*
X26735295Y-46549523D02*
X26830533Y-46549523D01*
X26830533Y-46549523D02*
X26973390Y-46501904D01*
X26973390Y-46501904D02*
X27544819Y-45930476D01*
X27544819Y-45930476D02*
X27544819Y-46549523D01*
X21194819Y-58425833D02*
X20718628Y-58092500D01*
X21194819Y-57854405D02*
X20194819Y-57854405D01*
X20194819Y-57854405D02*
X20194819Y-58235357D01*
X20194819Y-58235357D02*
X20242438Y-58330595D01*
X20242438Y-58330595D02*
X20290057Y-58378214D01*
X20290057Y-58378214D02*
X20385295Y-58425833D01*
X20385295Y-58425833D02*
X20528152Y-58425833D01*
X20528152Y-58425833D02*
X20623390Y-58378214D01*
X20623390Y-58378214D02*
X20671009Y-58330595D01*
X20671009Y-58330595D02*
X20718628Y-58235357D01*
X20718628Y-58235357D02*
X20718628Y-57854405D01*
X21194819Y-59378214D02*
X21194819Y-58806786D01*
X21194819Y-59092500D02*
X20194819Y-59092500D01*
X20194819Y-59092500D02*
X20337676Y-58997262D01*
X20337676Y-58997262D02*
X20432914Y-58902024D01*
X20432914Y-58902024D02*
X20480533Y-58806786D01*
X26094819Y-44473333D02*
X25618628Y-44140000D01*
X26094819Y-43901905D02*
X25094819Y-43901905D01*
X25094819Y-43901905D02*
X25094819Y-44282857D01*
X25094819Y-44282857D02*
X25142438Y-44378095D01*
X25142438Y-44378095D02*
X25190057Y-44425714D01*
X25190057Y-44425714D02*
X25285295Y-44473333D01*
X25285295Y-44473333D02*
X25428152Y-44473333D01*
X25428152Y-44473333D02*
X25523390Y-44425714D01*
X25523390Y-44425714D02*
X25571009Y-44378095D01*
X25571009Y-44378095D02*
X25618628Y-44282857D01*
X25618628Y-44282857D02*
X25618628Y-43901905D01*
X25428152Y-45330476D02*
X26094819Y-45330476D01*
X25047200Y-45092381D02*
X25761485Y-44854286D01*
X25761485Y-44854286D02*
X25761485Y-45473333D01*
X27706189Y-23404819D02*
X27706189Y-22404819D01*
X26658571Y-23309580D02*
X26706190Y-23357200D01*
X26706190Y-23357200D02*
X26849047Y-23404819D01*
X26849047Y-23404819D02*
X26944285Y-23404819D01*
X26944285Y-23404819D02*
X27087142Y-23357200D01*
X27087142Y-23357200D02*
X27182380Y-23261961D01*
X27182380Y-23261961D02*
X27229999Y-23166723D01*
X27229999Y-23166723D02*
X27277618Y-22976247D01*
X27277618Y-22976247D02*
X27277618Y-22833390D01*
X27277618Y-22833390D02*
X27229999Y-22642914D01*
X27229999Y-22642914D02*
X27182380Y-22547676D01*
X27182380Y-22547676D02*
X27087142Y-22452438D01*
X27087142Y-22452438D02*
X26944285Y-22404819D01*
X26944285Y-22404819D02*
X26849047Y-22404819D01*
X26849047Y-22404819D02*
X26706190Y-22452438D01*
X26706190Y-22452438D02*
X26658571Y-22500057D01*
X25706190Y-23404819D02*
X26277618Y-23404819D01*
X25991904Y-23404819D02*
X25991904Y-22404819D01*
X25991904Y-22404819D02*
X26087142Y-22547676D01*
X26087142Y-22547676D02*
X26182380Y-22642914D01*
X26182380Y-22642914D02*
X26277618Y-22690533D01*
X29392857Y-56904819D02*
X29726190Y-56428628D01*
X29964285Y-56904819D02*
X29964285Y-55904819D01*
X29964285Y-55904819D02*
X29583333Y-55904819D01*
X29583333Y-55904819D02*
X29488095Y-55952438D01*
X29488095Y-55952438D02*
X29440476Y-56000057D01*
X29440476Y-56000057D02*
X29392857Y-56095295D01*
X29392857Y-56095295D02*
X29392857Y-56238152D01*
X29392857Y-56238152D02*
X29440476Y-56333390D01*
X29440476Y-56333390D02*
X29488095Y-56381009D01*
X29488095Y-56381009D02*
X29583333Y-56428628D01*
X29583333Y-56428628D02*
X29964285Y-56428628D01*
X28440476Y-56904819D02*
X29011904Y-56904819D01*
X28726190Y-56904819D02*
X28726190Y-55904819D01*
X28726190Y-55904819D02*
X28821428Y-56047676D01*
X28821428Y-56047676D02*
X28916666Y-56142914D01*
X28916666Y-56142914D02*
X29011904Y-56190533D01*
X27821428Y-55904819D02*
X27726190Y-55904819D01*
X27726190Y-55904819D02*
X27630952Y-55952438D01*
X27630952Y-55952438D02*
X27583333Y-56000057D01*
X27583333Y-56000057D02*
X27535714Y-56095295D01*
X27535714Y-56095295D02*
X27488095Y-56285771D01*
X27488095Y-56285771D02*
X27488095Y-56523866D01*
X27488095Y-56523866D02*
X27535714Y-56714342D01*
X27535714Y-56714342D02*
X27583333Y-56809580D01*
X27583333Y-56809580D02*
X27630952Y-56857200D01*
X27630952Y-56857200D02*
X27726190Y-56904819D01*
X27726190Y-56904819D02*
X27821428Y-56904819D01*
X27821428Y-56904819D02*
X27916666Y-56857200D01*
X27916666Y-56857200D02*
X27964285Y-56809580D01*
X27964285Y-56809580D02*
X28011904Y-56714342D01*
X28011904Y-56714342D02*
X28059523Y-56523866D01*
X28059523Y-56523866D02*
X28059523Y-56285771D01*
X28059523Y-56285771D02*
X28011904Y-56095295D01*
X28011904Y-56095295D02*
X27964285Y-56000057D01*
X27964285Y-56000057D02*
X27916666Y-55952438D01*
X27916666Y-55952438D02*
X27821428Y-55904819D01*
X36594819Y-34933333D02*
X36118628Y-34600000D01*
X36594819Y-34361905D02*
X35594819Y-34361905D01*
X35594819Y-34361905D02*
X35594819Y-34742857D01*
X35594819Y-34742857D02*
X35642438Y-34838095D01*
X35642438Y-34838095D02*
X35690057Y-34885714D01*
X35690057Y-34885714D02*
X35785295Y-34933333D01*
X35785295Y-34933333D02*
X35928152Y-34933333D01*
X35928152Y-34933333D02*
X36023390Y-34885714D01*
X36023390Y-34885714D02*
X36071009Y-34838095D01*
X36071009Y-34838095D02*
X36118628Y-34742857D01*
X36118628Y-34742857D02*
X36118628Y-34361905D01*
X35594819Y-35838095D02*
X35594819Y-35361905D01*
X35594819Y-35361905D02*
X36071009Y-35314286D01*
X36071009Y-35314286D02*
X36023390Y-35361905D01*
X36023390Y-35361905D02*
X35975771Y-35457143D01*
X35975771Y-35457143D02*
X35975771Y-35695238D01*
X35975771Y-35695238D02*
X36023390Y-35790476D01*
X36023390Y-35790476D02*
X36071009Y-35838095D01*
X36071009Y-35838095D02*
X36166247Y-35885714D01*
X36166247Y-35885714D02*
X36404342Y-35885714D01*
X36404342Y-35885714D02*
X36499580Y-35838095D01*
X36499580Y-35838095D02*
X36547200Y-35790476D01*
X36547200Y-35790476D02*
X36594819Y-35695238D01*
X36594819Y-35695238D02*
X36594819Y-35457143D01*
X36594819Y-35457143D02*
X36547200Y-35361905D01*
X36547200Y-35361905D02*
X36499580Y-35314286D01*
X17136666Y-37094819D02*
X17469999Y-36618628D01*
X17708094Y-37094819D02*
X17708094Y-36094819D01*
X17708094Y-36094819D02*
X17327142Y-36094819D01*
X17327142Y-36094819D02*
X17231904Y-36142438D01*
X17231904Y-36142438D02*
X17184285Y-36190057D01*
X17184285Y-36190057D02*
X17136666Y-36285295D01*
X17136666Y-36285295D02*
X17136666Y-36428152D01*
X17136666Y-36428152D02*
X17184285Y-36523390D01*
X17184285Y-36523390D02*
X17231904Y-36571009D01*
X17231904Y-36571009D02*
X17327142Y-36618628D01*
X17327142Y-36618628D02*
X17708094Y-36618628D01*
X16803332Y-36094819D02*
X16184285Y-36094819D01*
X16184285Y-36094819D02*
X16517618Y-36475771D01*
X16517618Y-36475771D02*
X16374761Y-36475771D01*
X16374761Y-36475771D02*
X16279523Y-36523390D01*
X16279523Y-36523390D02*
X16231904Y-36571009D01*
X16231904Y-36571009D02*
X16184285Y-36666247D01*
X16184285Y-36666247D02*
X16184285Y-36904342D01*
X16184285Y-36904342D02*
X16231904Y-36999580D01*
X16231904Y-36999580D02*
X16279523Y-37047200D01*
X16279523Y-37047200D02*
X16374761Y-37094819D01*
X16374761Y-37094819D02*
X16660475Y-37094819D01*
X16660475Y-37094819D02*
X16755713Y-37047200D01*
X16755713Y-37047200D02*
X16803332Y-36999580D01*
X40916666Y-30094819D02*
X41249999Y-29618628D01*
X41488094Y-30094819D02*
X41488094Y-29094819D01*
X41488094Y-29094819D02*
X41107142Y-29094819D01*
X41107142Y-29094819D02*
X41011904Y-29142438D01*
X41011904Y-29142438D02*
X40964285Y-29190057D01*
X40964285Y-29190057D02*
X40916666Y-29285295D01*
X40916666Y-29285295D02*
X40916666Y-29428152D01*
X40916666Y-29428152D02*
X40964285Y-29523390D01*
X40964285Y-29523390D02*
X41011904Y-29571009D01*
X41011904Y-29571009D02*
X41107142Y-29618628D01*
X41107142Y-29618628D02*
X41488094Y-29618628D01*
X40583332Y-29094819D02*
X39916666Y-29094819D01*
X39916666Y-29094819D02*
X40345237Y-30094819D01*
X42624819Y-34963333D02*
X42148628Y-34630000D01*
X42624819Y-34391905D02*
X41624819Y-34391905D01*
X41624819Y-34391905D02*
X41624819Y-34772857D01*
X41624819Y-34772857D02*
X41672438Y-34868095D01*
X41672438Y-34868095D02*
X41720057Y-34915714D01*
X41720057Y-34915714D02*
X41815295Y-34963333D01*
X41815295Y-34963333D02*
X41958152Y-34963333D01*
X41958152Y-34963333D02*
X42053390Y-34915714D01*
X42053390Y-34915714D02*
X42101009Y-34868095D01*
X42101009Y-34868095D02*
X42148628Y-34772857D01*
X42148628Y-34772857D02*
X42148628Y-34391905D01*
X42624819Y-35439524D02*
X42624819Y-35630000D01*
X42624819Y-35630000D02*
X42577200Y-35725238D01*
X42577200Y-35725238D02*
X42529580Y-35772857D01*
X42529580Y-35772857D02*
X42386723Y-35868095D01*
X42386723Y-35868095D02*
X42196247Y-35915714D01*
X42196247Y-35915714D02*
X41815295Y-35915714D01*
X41815295Y-35915714D02*
X41720057Y-35868095D01*
X41720057Y-35868095D02*
X41672438Y-35820476D01*
X41672438Y-35820476D02*
X41624819Y-35725238D01*
X41624819Y-35725238D02*
X41624819Y-35534762D01*
X41624819Y-35534762D02*
X41672438Y-35439524D01*
X41672438Y-35439524D02*
X41720057Y-35391905D01*
X41720057Y-35391905D02*
X41815295Y-35344286D01*
X41815295Y-35344286D02*
X42053390Y-35344286D01*
X42053390Y-35344286D02*
X42148628Y-35391905D01*
X42148628Y-35391905D02*
X42196247Y-35439524D01*
X42196247Y-35439524D02*
X42243866Y-35534762D01*
X42243866Y-35534762D02*
X42243866Y-35725238D01*
X42243866Y-35725238D02*
X42196247Y-35820476D01*
X42196247Y-35820476D02*
X42148628Y-35868095D01*
X42148628Y-35868095D02*
X42053390Y-35915714D01*
X20904819Y-36041905D02*
X19904819Y-36041905D01*
X19904819Y-36041905D02*
X19904819Y-36280000D01*
X19904819Y-36280000D02*
X19952438Y-36422857D01*
X19952438Y-36422857D02*
X20047676Y-36518095D01*
X20047676Y-36518095D02*
X20142914Y-36565714D01*
X20142914Y-36565714D02*
X20333390Y-36613333D01*
X20333390Y-36613333D02*
X20476247Y-36613333D01*
X20476247Y-36613333D02*
X20666723Y-36565714D01*
X20666723Y-36565714D02*
X20761961Y-36518095D01*
X20761961Y-36518095D02*
X20857200Y-36422857D01*
X20857200Y-36422857D02*
X20904819Y-36280000D01*
X20904819Y-36280000D02*
X20904819Y-36041905D01*
X20904819Y-37565714D02*
X20904819Y-36994286D01*
X20904819Y-37280000D02*
X19904819Y-37280000D01*
X19904819Y-37280000D02*
X20047676Y-37184762D01*
X20047676Y-37184762D02*
X20142914Y-37089524D01*
X20142914Y-37089524D02*
X20190533Y-36994286D01*
X39682857Y-57114819D02*
X40016190Y-56638628D01*
X40254285Y-57114819D02*
X40254285Y-56114819D01*
X40254285Y-56114819D02*
X39873333Y-56114819D01*
X39873333Y-56114819D02*
X39778095Y-56162438D01*
X39778095Y-56162438D02*
X39730476Y-56210057D01*
X39730476Y-56210057D02*
X39682857Y-56305295D01*
X39682857Y-56305295D02*
X39682857Y-56448152D01*
X39682857Y-56448152D02*
X39730476Y-56543390D01*
X39730476Y-56543390D02*
X39778095Y-56591009D01*
X39778095Y-56591009D02*
X39873333Y-56638628D01*
X39873333Y-56638628D02*
X40254285Y-56638628D01*
X38730476Y-57114819D02*
X39301904Y-57114819D01*
X39016190Y-57114819D02*
X39016190Y-56114819D01*
X39016190Y-56114819D02*
X39111428Y-56257676D01*
X39111428Y-56257676D02*
X39206666Y-56352914D01*
X39206666Y-56352914D02*
X39301904Y-56400533D01*
X37778095Y-57114819D02*
X38349523Y-57114819D01*
X38063809Y-57114819D02*
X38063809Y-56114819D01*
X38063809Y-56114819D02*
X38159047Y-56257676D01*
X38159047Y-56257676D02*
X38254285Y-56352914D01*
X38254285Y-56352914D02*
X38349523Y-56400533D01*
X35854819Y-45008095D02*
X36664342Y-45008095D01*
X36664342Y-45008095D02*
X36759580Y-45055714D01*
X36759580Y-45055714D02*
X36807200Y-45103333D01*
X36807200Y-45103333D02*
X36854819Y-45198571D01*
X36854819Y-45198571D02*
X36854819Y-45389047D01*
X36854819Y-45389047D02*
X36807200Y-45484285D01*
X36807200Y-45484285D02*
X36759580Y-45531904D01*
X36759580Y-45531904D02*
X36664342Y-45579523D01*
X36664342Y-45579523D02*
X35854819Y-45579523D01*
X35854819Y-45960476D02*
X35854819Y-46579523D01*
X35854819Y-46579523D02*
X36235771Y-46246190D01*
X36235771Y-46246190D02*
X36235771Y-46389047D01*
X36235771Y-46389047D02*
X36283390Y-46484285D01*
X36283390Y-46484285D02*
X36331009Y-46531904D01*
X36331009Y-46531904D02*
X36426247Y-46579523D01*
X36426247Y-46579523D02*
X36664342Y-46579523D01*
X36664342Y-46579523D02*
X36759580Y-46531904D01*
X36759580Y-46531904D02*
X36807200Y-46484285D01*
X36807200Y-46484285D02*
X36854819Y-46389047D01*
X36854819Y-46389047D02*
X36854819Y-46103333D01*
X36854819Y-46103333D02*
X36807200Y-46008095D01*
X36807200Y-46008095D02*
X36759580Y-45960476D01*
X16914819Y-61185833D02*
X16438628Y-60852500D01*
X16914819Y-60614405D02*
X15914819Y-60614405D01*
X15914819Y-60614405D02*
X15914819Y-60995357D01*
X15914819Y-60995357D02*
X15962438Y-61090595D01*
X15962438Y-61090595D02*
X16010057Y-61138214D01*
X16010057Y-61138214D02*
X16105295Y-61185833D01*
X16105295Y-61185833D02*
X16248152Y-61185833D01*
X16248152Y-61185833D02*
X16343390Y-61138214D01*
X16343390Y-61138214D02*
X16391009Y-61090595D01*
X16391009Y-61090595D02*
X16438628Y-60995357D01*
X16438628Y-60995357D02*
X16438628Y-60614405D01*
X16010057Y-61566786D02*
X15962438Y-61614405D01*
X15962438Y-61614405D02*
X15914819Y-61709643D01*
X15914819Y-61709643D02*
X15914819Y-61947738D01*
X15914819Y-61947738D02*
X15962438Y-62042976D01*
X15962438Y-62042976D02*
X16010057Y-62090595D01*
X16010057Y-62090595D02*
X16105295Y-62138214D01*
X16105295Y-62138214D02*
X16200533Y-62138214D01*
X16200533Y-62138214D02*
X16343390Y-62090595D01*
X16343390Y-62090595D02*
X16914819Y-61519167D01*
X16914819Y-61519167D02*
X16914819Y-62138214D01*
X23830057Y-36394761D02*
X23782438Y-36299523D01*
X23782438Y-36299523D02*
X23687200Y-36204285D01*
X23687200Y-36204285D02*
X23544342Y-36061428D01*
X23544342Y-36061428D02*
X23496723Y-35966190D01*
X23496723Y-35966190D02*
X23496723Y-35870952D01*
X23734819Y-35918571D02*
X23687200Y-35823333D01*
X23687200Y-35823333D02*
X23591961Y-35728095D01*
X23591961Y-35728095D02*
X23401485Y-35680476D01*
X23401485Y-35680476D02*
X23068152Y-35680476D01*
X23068152Y-35680476D02*
X22877676Y-35728095D01*
X22877676Y-35728095D02*
X22782438Y-35823333D01*
X22782438Y-35823333D02*
X22734819Y-35918571D01*
X22734819Y-35918571D02*
X22734819Y-36109047D01*
X22734819Y-36109047D02*
X22782438Y-36204285D01*
X22782438Y-36204285D02*
X22877676Y-36299523D01*
X22877676Y-36299523D02*
X23068152Y-36347142D01*
X23068152Y-36347142D02*
X23401485Y-36347142D01*
X23401485Y-36347142D02*
X23591961Y-36299523D01*
X23591961Y-36299523D02*
X23687200Y-36204285D01*
X23687200Y-36204285D02*
X23734819Y-36109047D01*
X23734819Y-36109047D02*
X23734819Y-35918571D01*
X23734819Y-37299523D02*
X23734819Y-36728095D01*
X23734819Y-37013809D02*
X22734819Y-37013809D01*
X22734819Y-37013809D02*
X22877676Y-36918571D01*
X22877676Y-36918571D02*
X22972914Y-36823333D01*
X22972914Y-36823333D02*
X23020533Y-36728095D01*
X40946666Y-32404819D02*
X41279999Y-31928628D01*
X41518094Y-32404819D02*
X41518094Y-31404819D01*
X41518094Y-31404819D02*
X41137142Y-31404819D01*
X41137142Y-31404819D02*
X41041904Y-31452438D01*
X41041904Y-31452438D02*
X40994285Y-31500057D01*
X40994285Y-31500057D02*
X40946666Y-31595295D01*
X40946666Y-31595295D02*
X40946666Y-31738152D01*
X40946666Y-31738152D02*
X40994285Y-31833390D01*
X40994285Y-31833390D02*
X41041904Y-31881009D01*
X41041904Y-31881009D02*
X41137142Y-31928628D01*
X41137142Y-31928628D02*
X41518094Y-31928628D01*
X40089523Y-31404819D02*
X40279999Y-31404819D01*
X40279999Y-31404819D02*
X40375237Y-31452438D01*
X40375237Y-31452438D02*
X40422856Y-31500057D01*
X40422856Y-31500057D02*
X40518094Y-31642914D01*
X40518094Y-31642914D02*
X40565713Y-31833390D01*
X40565713Y-31833390D02*
X40565713Y-32214342D01*
X40565713Y-32214342D02*
X40518094Y-32309580D01*
X40518094Y-32309580D02*
X40470475Y-32357200D01*
X40470475Y-32357200D02*
X40375237Y-32404819D01*
X40375237Y-32404819D02*
X40184761Y-32404819D01*
X40184761Y-32404819D02*
X40089523Y-32357200D01*
X40089523Y-32357200D02*
X40041904Y-32309580D01*
X40041904Y-32309580D02*
X39994285Y-32214342D01*
X39994285Y-32214342D02*
X39994285Y-31976247D01*
X39994285Y-31976247D02*
X40041904Y-31881009D01*
X40041904Y-31881009D02*
X40089523Y-31833390D01*
X40089523Y-31833390D02*
X40184761Y-31785771D01*
X40184761Y-31785771D02*
X40375237Y-31785771D01*
X40375237Y-31785771D02*
X40470475Y-31833390D01*
X40470475Y-31833390D02*
X40518094Y-31881009D01*
X40518094Y-31881009D02*
X40565713Y-31976247D01*
X39534819Y-34903333D02*
X39058628Y-34570000D01*
X39534819Y-34331905D02*
X38534819Y-34331905D01*
X38534819Y-34331905D02*
X38534819Y-34712857D01*
X38534819Y-34712857D02*
X38582438Y-34808095D01*
X38582438Y-34808095D02*
X38630057Y-34855714D01*
X38630057Y-34855714D02*
X38725295Y-34903333D01*
X38725295Y-34903333D02*
X38868152Y-34903333D01*
X38868152Y-34903333D02*
X38963390Y-34855714D01*
X38963390Y-34855714D02*
X39011009Y-34808095D01*
X39011009Y-34808095D02*
X39058628Y-34712857D01*
X39058628Y-34712857D02*
X39058628Y-34331905D01*
X38963390Y-35474762D02*
X38915771Y-35379524D01*
X38915771Y-35379524D02*
X38868152Y-35331905D01*
X38868152Y-35331905D02*
X38772914Y-35284286D01*
X38772914Y-35284286D02*
X38725295Y-35284286D01*
X38725295Y-35284286D02*
X38630057Y-35331905D01*
X38630057Y-35331905D02*
X38582438Y-35379524D01*
X38582438Y-35379524D02*
X38534819Y-35474762D01*
X38534819Y-35474762D02*
X38534819Y-35665238D01*
X38534819Y-35665238D02*
X38582438Y-35760476D01*
X38582438Y-35760476D02*
X38630057Y-35808095D01*
X38630057Y-35808095D02*
X38725295Y-35855714D01*
X38725295Y-35855714D02*
X38772914Y-35855714D01*
X38772914Y-35855714D02*
X38868152Y-35808095D01*
X38868152Y-35808095D02*
X38915771Y-35760476D01*
X38915771Y-35760476D02*
X38963390Y-35665238D01*
X38963390Y-35665238D02*
X38963390Y-35474762D01*
X38963390Y-35474762D02*
X39011009Y-35379524D01*
X39011009Y-35379524D02*
X39058628Y-35331905D01*
X39058628Y-35331905D02*
X39153866Y-35284286D01*
X39153866Y-35284286D02*
X39344342Y-35284286D01*
X39344342Y-35284286D02*
X39439580Y-35331905D01*
X39439580Y-35331905D02*
X39487200Y-35379524D01*
X39487200Y-35379524D02*
X39534819Y-35474762D01*
X39534819Y-35474762D02*
X39534819Y-35665238D01*
X39534819Y-35665238D02*
X39487200Y-35760476D01*
X39487200Y-35760476D02*
X39439580Y-35808095D01*
X39439580Y-35808095D02*
X39344342Y-35855714D01*
X39344342Y-35855714D02*
X39153866Y-35855714D01*
X39153866Y-35855714D02*
X39058628Y-35808095D01*
X39058628Y-35808095D02*
X39011009Y-35760476D01*
X39011009Y-35760476D02*
X38963390Y-35665238D01*
D11*
%TO.C,BR1*%
X23685000Y-53685000D02*
X23685000Y-50835000D01*
X15860000Y-50485000D02*
X24360000Y-50485000D01*
X24360000Y-50485000D02*
X24360000Y-45835000D01*
X15860000Y-45835000D02*
X15860000Y-50485000D01*
X24360000Y-45835000D02*
X15860000Y-45835000D01*
D12*
%TO.C,C2*%
X17038748Y-37765000D02*
X17561252Y-37765000D01*
X17038748Y-39235000D02*
X17561252Y-39235000D01*
%TO.C,C1*%
X17738748Y-54835000D02*
X18261252Y-54835000D01*
X17738748Y-56305000D02*
X18261252Y-56305000D01*
D11*
%TO.C,Q4*%
X25395000Y-39365000D02*
X27045000Y-39365000D01*
X27395000Y-36705000D02*
X27395000Y-39405000D01*
X27395000Y-39405000D02*
X31445000Y-39405000D01*
X31445000Y-36705000D02*
X27395000Y-36705000D01*
X31445000Y-39405000D02*
X31445000Y-36705000D01*
D12*
%TO.C,U2*%
X35340000Y-43260000D02*
X35340000Y-48160000D01*
X27600000Y-43260000D02*
X35340000Y-43260000D01*
X27600000Y-44710000D02*
X27600000Y-43260000D01*
X35340000Y-48160000D02*
X27600000Y-48160000D01*
X27600000Y-48160000D02*
X27600000Y-46710000D01*
X27600000Y-46710000D02*
G75*
G03*
X27600000Y-44710000I0J1000000D01*
G01*
%TO.C,R1*%
X18355000Y-58819564D02*
X18355000Y-58365436D01*
X19825000Y-58819564D02*
X19825000Y-58365436D01*
%TO.C,R4*%
X26855000Y-41695436D02*
X26855000Y-42149564D01*
X25385000Y-41695436D02*
X25385000Y-42149564D01*
D11*
%TO.C,IC1*%
X23260000Y-33145000D02*
X24760000Y-33145000D01*
X25110000Y-24335000D02*
X25110000Y-32985000D01*
X25110000Y-32985000D02*
X28310000Y-32985000D01*
X28310000Y-24335000D02*
X25110000Y-24335000D01*
X28310000Y-32985000D02*
X28310000Y-24335000D01*
D12*
%TO.C,R10*%
X31107064Y-55320000D02*
X26752936Y-55320000D01*
X31107064Y-51900000D02*
X26752936Y-51900000D01*
%TO.C,R5*%
X36585000Y-37722936D02*
X36585000Y-38177064D01*
X35115000Y-37722936D02*
X35115000Y-38177064D01*
%TO.C,R3*%
X17534564Y-41555000D02*
X17080436Y-41555000D01*
X17534564Y-40085000D02*
X17080436Y-40085000D01*
%TO.C,R7*%
X38139564Y-30075000D02*
X37685436Y-30075000D01*
X38139564Y-28605000D02*
X37685436Y-28605000D01*
%TO.C,R9*%
X42905000Y-37672936D02*
X42905000Y-38127064D01*
X41435000Y-37672936D02*
X41435000Y-38127064D01*
%TO.C,D1*%
X19420000Y-42220000D02*
X19420000Y-38210000D01*
X21420000Y-42220000D02*
X19420000Y-42220000D01*
X21420000Y-42220000D02*
X21420000Y-38210000D01*
%TO.C,R11*%
X41257064Y-55380000D02*
X36902936Y-55380000D01*
X41257064Y-51960000D02*
X36902936Y-51960000D01*
%TO.C,U3*%
X44140000Y-43320000D02*
X44140000Y-48220000D01*
X36400000Y-43320000D02*
X44140000Y-43320000D01*
X36400000Y-44770000D02*
X36400000Y-43320000D01*
X44140000Y-48220000D02*
X36400000Y-48220000D01*
X36400000Y-48220000D02*
X36400000Y-46770000D01*
X36400000Y-46770000D02*
G75*
G03*
X36400000Y-44770000I0J1000000D01*
G01*
%TO.C,R2*%
X15995000Y-58779564D02*
X15995000Y-58325436D01*
X17465000Y-58779564D02*
X17465000Y-58325436D01*
D11*
%TO.C,Q1*%
X24440000Y-41075000D02*
X24440000Y-40025000D01*
X22240000Y-39675000D02*
X24340000Y-39675000D01*
X24340000Y-39675000D02*
X24340000Y-39325000D01*
X22240000Y-39325000D02*
X22240000Y-39675000D01*
X24340000Y-39325000D02*
X22240000Y-39325000D01*
D12*
%TO.C,R6*%
X38097064Y-32585000D02*
X37642936Y-32585000D01*
X38097064Y-31115000D02*
X37642936Y-31115000D01*
%TO.C,R8*%
X39605000Y-37682936D02*
X39605000Y-38137064D01*
X38135000Y-37682936D02*
X38135000Y-38137064D01*
%TD*%
M02*
